<svg width="16" height="16" viewBox="0 0 16 16" fill="currentColor" xmlns="http://www.w3.org/2000/svg">
<path d="M10.973 7.70469L5.69023 3.57852C5.67643 3.56765 5.65984 3.56089 5.64237 3.55903C5.6249 3.55717 5.60726 3.56027 5.59147 3.56798C5.57569 3.57569 5.5624 3.58769 5.55312 3.60262C5.54385 3.61754 5.53898 3.63478 5.53906 3.65234V4.5582C5.53906 4.61562 5.56602 4.6707 5.61055 4.70586L9.82929 8L5.61055 11.2941C5.56484 11.3293 5.53906 11.3844 5.53906 11.4418V12.3477C5.53906 12.4262 5.6293 12.4695 5.69023 12.4215L10.973 8.29531C11.0179 8.26029 11.0543 8.21549 11.0792 8.16431C11.1042 8.11314 11.1172 8.05695 11.1172 8C11.1172 7.94305 11.1042 7.88686 11.0792 7.83569C11.0543 7.78451 11.0179 7.73971 10.973 7.70469Z"/>
</svg>
