<svg width="16" height="16" viewBox="0 0 16 16" fill="currentColor" xmlns="http://www.w3.org/2000/svg">
<path d="M12.4356 10.8512L8.30358 5.15469C8.15358 4.94844 7.84655 4.94844 7.69772 5.15469L3.56452 10.8512C3.55434 10.8652 3.54825 10.8817 3.54691 10.899C3.54557 10.9163 3.54904 10.9336 3.55693 10.949C3.56481 10.9644 3.57682 10.9773 3.5916 10.9863C3.60639 10.9953 3.62338 11.0001 3.64069 11H4.51959C4.57936 11 4.63561 10.9707 4.67077 10.9227L8.00006 6.33359L11.3294 10.9227C11.3645 10.9707 11.4208 11 11.4805 11H12.3594C12.4356 11 12.4801 10.9133 12.4356 10.8512Z" />
</svg>
