<svg width="20" height="20" viewBox="0 0 20 20" fill="currentColor" xmlns="http://www.w3.org/2000/svg">
<path d="M3.02783 10.4723L7.90674 15.21C7.96338 15.2588 8.03564 15.2861 8.11182 15.2861H9.84033C9.98486 15.2861 10.0513 15.1064 9.94189 15.0127L5.60205 10.7419H17.0317C17.1177 10.7419 17.188 10.6715 17.188 10.5856V9.41374C17.188 9.3278 17.1177 9.25749 17.0317 9.25749H5.604L9.94385 4.98665C10.0532 4.89095 9.98682 4.71321 9.84228 4.71321H8.05517C8.01807 4.71321 7.98096 4.72689 7.95361 4.75228L3.02783 9.52702C2.96022 9.58581 2.906 9.65843 2.86885 9.73997C2.8317 9.82151 2.81248 9.91007 2.81248 9.99967C2.81248 10.0893 2.8317 10.1778 2.86885 10.2594C2.906 10.3409 2.96022 10.4135 3.02783 10.4723Z"/>
</svg>
