<svg width="1440" height="900" viewBox="0 0 1440 900" fill="none"
  xmlns="http://www.w3.org/2000/svg">
  <rect opacity="0.2" x="-78" y="341.972" width="521.064" height="363.959" rx="181.98" fill="#697FD2"/>
  <rect opacity="0.1" x="808.77" y="-60.3911" width="762.831" height="364.832" rx="182.416" transform="rotate(90 808.77 -60.3911)" fill="#697FD2"/>
  <path opacity="0.2" d="M626.353 702.439C727.099 702.439 808.77 784.11 808.77 884.856L808.77 1282.85C808.77 1383.6 727.099 1465.27 626.353 1465.27L443.937 1465.27L443.937 884.855C443.937 784.11 525.608 702.439 626.353 702.439Z" fill="#697FD2"/>
  <path opacity="0.2" d="M991.185 285.239C1091.93 285.239 1173.6 366.91 1173.6 467.655L1173.6 916.277C1173.6 989.065 1114.6 1048.07 1041.81 1048.07L940.563 1048.07C867.775 1048.07 808.769 989.064 808.769 916.277L808.769 285.239L991.185 285.239Z" fill="#697FD2"/>
  <path opacity="0.1" d="M1538.43 476.383L1538.43 658.363C1538.43 758.868 1456.96 840.343 1356.45 840.343L1173.6 840.343L1173.6 658.8C1173.6 558.054 1255.27 476.383 1356.02 476.383L1538.43 476.383Z" fill="#697FD2"/>
  <path opacity="0.1" d="M1297.54 -365C1374.66 -365 1437.19 -302.477 1437.19 -225.351L1437.19 397.831L1254.77 397.831C1154.03 397.831 1072.36 316.161 1072.36 215.415L1072.36 -225.351C1072.36 -302.477 1134.88 -365 1212 -365L1297.54 -365Z" fill="#697FD2"/>
  <rect opacity="0.1" x="443.064" y="-179.093" width="521.064" height="375.306" rx="187.653" transform="rotate(90 443.064 -179.093)" fill="#697FD2"/>
</svg>