 
<svg width="16" height="16" viewBox="0 0 16 16" fill="none" xmlns="http://www.w3.org/2000/svg">
<path d="M14.25 3H5.125C5.05625 3 5 3.05625 5 3.125V4C5 4.06875 5.05625 4.125 5.125 4.125H14.25C14.3188 4.125 14.375 4.06875 14.375 4V3.125C14.375 3.05625 14.3188 3 14.25 3ZM14.25 7.4375H5.125C5.05625 7.4375 5 7.49375 5 7.5625V8.4375C5 8.50625 5.05625 8.5625 5.125 8.5625H14.25C14.3188 8.5625 14.375 8.50625 14.375 8.4375V7.5625C14.375 7.49375 14.3188 7.4375 14.25 7.4375ZM14.25 11.875H5.125C5.05625 11.875 5 11.9312 5 12V12.875C5 12.9438 5.05625 13 5.125 13H14.25C14.3188 13 14.375 12.9438 14.375 12.875V12C14.375 11.9312 14.3188 11.875 14.25 11.875ZM1.625 3.5625C1.625 3.67741 1.64763 3.79119 1.69161 3.89735C1.73558 4.00351 1.80003 4.09997 1.88128 4.18122C1.96253 4.26247 2.05899 4.32692 2.16515 4.37089C2.27131 4.41487 2.38509 4.4375 2.5 4.4375C2.61491 4.4375 2.72869 4.41487 2.83485 4.37089C2.94101 4.32692 3.03747 4.26247 3.11872 4.18122C3.19997 4.09997 3.26442 4.00351 3.30839 3.89735C3.35237 3.79119 3.375 3.67741 3.375 3.5625C3.375 3.44759 3.35237 3.33381 3.30839 3.22765C3.26442 3.12149 3.19997 3.02503 3.11872 2.94378C3.03747 2.86253 2.94101 2.79808 2.83485 2.75411C2.72869 2.71013 2.61491 2.6875 2.5 2.6875C2.38509 2.6875 2.27131 2.71013 2.16515 2.75411C2.05899 2.79808 1.96253 2.86253 1.88128 2.94378C1.80003 3.02503 1.73558 3.12149 1.69161 3.22765C1.64763 3.33381 1.625 3.44759 1.625 3.5625ZM1.625 8C1.625 8.11491 1.64763 8.22869 1.69161 8.33485C1.73558 8.44101 1.80003 8.53747 1.88128 8.61872C1.96253 8.69997 2.05899 8.76442 2.16515 8.80839C2.27131 8.85237 2.38509 8.875 2.5 8.875C2.61491 8.875 2.72869 8.85237 2.83485 8.80839C2.94101 8.76442 3.03747 8.69997 3.11872 8.61872C3.19997 8.53747 3.26442 8.44101 3.30839 8.33485C3.35237 8.22869 3.375 8.11491 3.375 8C3.375 7.88509 3.35237 7.77131 3.30839 7.66515C3.26442 7.55899 3.19997 7.46253 3.11872 7.38128C3.03747 7.30003 2.94101 7.23558 2.83485 7.19161C2.72869 7.14763 2.61491 7.125 2.5 7.125C2.38509 7.125 2.27131 7.14763 2.16515 7.19161C2.05899 7.23558 1.96253 7.30003 1.88128 7.38128C1.80003 7.46253 1.73558 7.55899 1.69161 7.66515C1.64763 7.77131 1.625 7.88509 1.625 8ZM1.625 12.4375C1.625 12.5524 1.64763 12.6662 1.69161 12.7723C1.73558 12.8785 1.80003 12.975 1.88128 13.0562C1.96253 13.1375 2.05899 13.2019 2.16515 13.2459C2.27131 13.2899 2.38509 13.3125 2.5 13.3125C2.61491 13.3125 2.72869 13.2899 2.83485 13.2459C2.94101 13.2019 3.03747 13.1375 3.11872 13.0562C3.19997 12.975 3.26442 12.8785 3.30839 12.7723C3.35237 12.6662 3.375 12.5524 3.375 12.4375C3.375 12.3226 3.35237 12.2088 3.30839 12.1027C3.26442 11.9965 3.19997 11.9 3.11872 11.8188C3.03747 11.7375 2.94101 11.6731 2.83485 11.6291C2.72869 11.5851 2.61491 11.5625 2.5 11.5625C2.38509 11.5625 2.27131 11.5851 2.16515 11.6291C2.05899 11.6731 1.96253 11.7375 1.88128 11.8188C1.80003 11.9 1.73558 11.9965 1.69161 12.1027C1.64763 12.2088 1.625 12.3226 1.625 12.4375Z"/>
</svg>
