<svg width="37" height="16" viewBox="0 0 37 16" fill="none" xmlns="http://www.w3.org/2000/svg">
<path d="M8.03125 8.00977H5.86914L5.85742 7.10156H7.82031C8.14453 7.10156 8.42773 7.04688 8.66992 6.9375C8.91211 6.82812 9.09961 6.67188 9.23242 6.46875C9.36914 6.26172 9.4375 6.01562 9.4375 5.73047C9.4375 5.41797 9.37695 5.16406 9.25586 4.96875C9.13867 4.76953 8.95703 4.625 8.71094 4.53516C8.46875 4.44141 8.16016 4.39453 7.78516 4.39453H6.12109V12H4.99023V3.46875H7.78516C8.22266 3.46875 8.61328 3.51367 8.95703 3.60352C9.30078 3.68945 9.5918 3.82617 9.83008 4.01367C10.0723 4.19727 10.2559 4.43164 10.3809 4.7168C10.5059 5.00195 10.5684 5.34375 10.5684 5.74219C10.5684 6.09375 10.4785 6.41211 10.2988 6.69727C10.1191 6.97852 9.86914 7.20898 9.54883 7.38867C9.23242 7.56836 8.86133 7.68359 8.43555 7.73438L8.03125 8.00977ZM7.97852 12H5.42383L6.0625 11.0801H7.97852C8.33789 11.0801 8.64258 11.0176 8.89258 10.8926C9.14648 10.7676 9.33984 10.5918 9.47266 10.3652C9.60547 10.1348 9.67188 9.86328 9.67188 9.55078C9.67188 9.23438 9.61523 8.96094 9.50195 8.73047C9.38867 8.5 9.21094 8.32227 8.96875 8.19727C8.72656 8.07227 8.41406 8.00977 8.03125 8.00977H6.41992L6.43164 7.10156H8.63477L8.875 7.42969C9.28516 7.46484 9.63281 7.58203 9.91797 7.78125C10.2031 7.97656 10.4199 8.22656 10.5684 8.53125C10.7207 8.83594 10.7969 9.17188 10.7969 9.53906C10.7969 10.0703 10.6797 10.5195 10.4453 10.8867C10.2148 11.25 9.88867 11.5273 9.4668 11.7188C9.04492 11.9062 8.54883 12 7.97852 12ZM17.8867 11.0801V12H13.3691V11.0801H17.8867ZM13.5977 3.46875V12H12.4668V3.46875H13.5977ZM17.2891 7.13672V8.05664H13.3691V7.13672H17.2891ZM17.8281 3.46875V4.39453H13.3691V3.46875H17.8281ZM22.5566 3.46875V12H21.4434V3.46875H22.5566ZM25.2988 3.46875V4.39453H18.707V3.46875H25.2988ZM29.2539 4.22461L26.4297 12H25.2754L28.5273 3.46875H29.2715L29.2539 4.22461ZM31.6211 12L28.791 4.22461L28.7734 3.46875H29.5176L32.7812 12H31.6211ZM31.4746 8.8418V9.76758H26.6816V8.8418H31.4746Z" fill="#0CB3B3"/>
<rect x="0.5" y="0.5" width="36" height="15" rx="1.5" stroke="#0CB3B3"/>
</svg>
