<svg width="182" height="33" viewBox="0 0 182 33" fill="currentColor"
  xmlns="http://www.w3.org/2000/svg">
  <path d="M10.6295 26.367H6.61523V6.55762H10.6295V26.367Z" fill="white"/>
  <path d="M27.0656 26.367H23.3104V19.572C23.3104 17.5761 22.4298 16.5781 20.6687 16.5781C19.8227 16.5607 19.1235 16.8644 18.571 17.4893C18.0357 18.1141 17.7681 18.8604 17.7681 19.7282V26.367H14.0906V13.506H17.4573L17.5869 15.1462C18.6055 13.8098 19.9868 13.1589 21.7306 13.1936C25.2873 13.1936 27.0656 15.3111 27.0656 19.546V26.367Z" fill="white"/>
  <path d="M46.686 26.6534C44.5625 26.6534 42.8619 26.0372 41.5843 24.8049C40.3239 23.5553 39.6937 21.9411 39.6937 19.9625C39.6937 18.0013 40.3325 16.3871 41.6102 15.1201C42.9051 13.8531 44.5971 13.2196 46.686 13.2196C48.7926 13.2196 50.4847 13.8531 51.7621 15.1201C53.0573 16.3871 53.7046 18.0013 53.7046 19.9625C53.7046 21.9411 53.0659 23.5553 51.7881 24.8049C50.5278 26.0372 48.8272 26.6534 46.686 26.6534ZM46.686 23.321C47.7566 23.321 48.5594 22.9998 49.0949 22.3577C49.6473 21.6982 49.9236 20.8998 49.9236 19.9625C49.9236 19.06 49.6473 18.2703 49.0949 17.5934C48.5422 16.9165 47.7393 16.5781 46.686 16.5781C45.6504 16.5781 44.8562 16.9165 44.3035 17.5934C43.7511 18.2703 43.4747 19.06 43.4747 19.9625C43.4747 20.8651 43.7424 21.6548 44.2775 22.3317C44.8303 22.9912 45.6331 23.321 46.686 23.321Z" fill="white"/>
  <path d="M68.0394 26.367H64.3617V19.468C64.3617 17.5935 63.6279 16.6563 62.1605 16.6563C61.4526 16.6563 60.8913 16.9339 60.4771 17.4894C60.0625 18.0447 59.8552 18.713 59.8552 19.494V26.367H56.1261V13.5061H59.3892L59.6483 14.964C60.3043 13.8011 61.4267 13.2197 63.0151 13.2197C64.7935 13.2197 66.0364 14.0181 66.7443 15.6149C67.3143 14.7471 67.9271 14.1309 68.5831 13.7664C69.2392 13.3846 70.042 13.1937 70.9916 13.1937C72.5109 13.1937 73.737 13.6623 74.6693 14.5995C75.619 15.5368 76.0936 17.1162 76.0936 19.3378V26.367H72.3386V19.4159C72.3386 17.6282 71.6908 16.7343 70.3961 16.7343C69.6882 16.7343 69.1182 17.0033 68.6868 17.5414C68.2549 18.0621 68.0394 18.7043 68.0394 19.468V26.367Z" fill="white"/>
  <path d="M88.8286 14.99L88.9582 13.5061H92.4545V26.367H89.0877L88.8805 24.7529C88.4835 25.3777 87.9049 25.8464 87.1452 26.1588C86.4029 26.4712 85.6691 26.6361 84.944 26.6534C82.9929 26.6708 81.4045 26.0807 80.1788 24.8831C78.9528 23.6682 78.34 22.0193 78.34 19.9365C78.34 17.8538 78.9701 16.205 80.2303 14.99C81.5081 13.7751 83.1138 13.185 85.0476 13.2197C85.8764 13.2197 86.6274 13.3759 87.3007 13.6883C87.9912 14.0007 88.5008 14.4346 88.8286 14.99ZM85.4359 16.5261C84.469 16.5261 83.6662 16.8385 83.0274 17.4633C82.3887 18.0708 82.0691 18.8952 82.0691 19.9365C82.0691 20.9779 82.3887 21.8024 83.0274 22.4098C83.6662 23.0173 84.469 23.321 85.4359 23.321C86.4374 23.321 87.2489 22.9913 87.8703 22.3317C88.5094 21.6722 88.8286 20.9172 88.8286 20.0667C88.8286 19.0774 88.5267 18.2443 87.9222 17.5674C87.3352 16.8732 86.5065 16.5261 85.4359 16.5261Z" fill="white"/>
  <path d="M101.044 17.3591L103.167 13.5321H107.622V13.6622L103.556 19.9105L107.855 26.2889V26.367H103.401L101.044 22.5139L98.7131 26.367H94.2326V26.2889L98.5577 19.9105L94.4658 13.6622V13.5321H98.9204L101.044 17.3591Z" fill="white"/>
  <path d="M113.371 13.48H109.642V26.367H113.371V13.48Z" fill="white"/>
  <path d="M128.434 26.367H124.757V19.468C124.757 17.5935 124.023 16.6563 122.556 16.6563C121.847 16.6563 121.286 16.9339 120.872 17.4894C120.458 18.0447 120.25 18.713 120.25 19.494V26.367H116.521V13.5061H119.784L120.043 14.964C120.699 13.8011 121.821 13.2197 123.41 13.2197C125.188 13.2197 126.431 14.0181 127.139 15.6149C127.709 14.7471 128.322 14.1309 128.978 13.7664C129.634 13.3846 130.437 13.1937 131.387 13.1937C132.906 13.1937 134.132 13.6623 135.064 14.5995C136.014 15.5368 136.489 17.1162 136.489 19.3378V26.367H132.733V19.4159C132.733 17.6282 132.086 16.7343 130.791 16.7343C130.083 16.7343 129.513 17.0033 129.082 17.5414C128.65 18.0621 128.434 18.7043 128.434 19.468V26.367Z" fill="white"/>
  <path d="M139.279 13.506H143.034V20.301C143.034 22.2969 143.915 23.2949 145.676 23.2949C146.522 23.3123 147.213 23.0085 147.748 22.3837C148.3 21.7589 148.576 21.0126 148.576 20.1447V13.506H152.254V26.3669H148.887L148.758 24.6747C147.774 26.0112 146.393 26.662 144.614 26.6273C141.057 26.6273 139.279 24.5272 139.279 20.327V13.506Z" fill="white"/>
  <path d="M167.332 26.367H163.655V19.468C163.655 17.5935 162.921 16.6563 161.453 16.6563C160.746 16.6563 160.184 16.9339 159.77 17.4894C159.355 18.0447 159.148 18.713 159.148 19.494V26.367H155.419V13.5061H158.682L158.941 14.964C159.597 13.8011 160.72 13.2197 162.308 13.2197C164.086 13.2197 165.329 14.0181 166.037 15.6149C166.607 14.7471 167.22 14.1309 167.876 13.7664C168.532 13.3846 169.335 13.1937 170.285 13.1937C171.804 13.1937 173.03 13.6623 173.962 14.5995C174.912 15.5368 175.387 17.1162 175.387 19.3378V26.367H171.632V19.4159C171.632 17.6282 170.984 16.7343 169.689 16.7343C168.981 16.7343 168.411 17.0033 167.98 17.5414C167.548 18.0621 167.332 18.7043 167.332 19.468V26.367Z" fill="white"/>
  <path d="M37.4929 9.98048C36.5411 9.98048 35.9404 10.1988 35.6909 10.6354C35.4507 11.0627 35.3305 11.6061 35.3305 12.2656V13.4918H38.4215V16.7802H35.3305V26.3667H31.4217V16.7802H29.0653V13.4918H31.4217V11.6386C31.4217 9.91081 31.8791 8.64282 32.794 7.83466C33.7088 7.0265 34.9979 6.62242 36.6612 6.62242C37.3635 6.62242 37.9503 6.67815 38.4215 6.78962V10.078C38.2552 10.0223 37.9457 9.98977 37.4929 9.98048Z" fill="white"/>
</svg>

