<svg width="14" height="14" viewBox="0 0 14 14" fill="currentColor"
  xmlns="http://www.w3.org/2000/svg">
  <path fill-rule="evenodd" clip-rule="evenodd" d="M11.0098 3.5H12.4444V4.66667H11.0098C10.7508 5.67305 9.83723 6.41667 8.74999 6.41667C7.66275 6.41667 6.74919 5.67305 6.49017 4.66667H1.55554V3.5H6.49017C6.74919 2.49362 7.66275 1.75 8.74999 1.75C9.83723 1.75 10.7508 2.49362 11.0098 3.5ZM8.74999 5.25C9.39433 5.25 9.91666 4.72767 9.91666 4.08333C9.91666 3.439 9.39433 2.91667 8.74999 2.91667C8.10566 2.91667 7.58333 3.439 7.58333 4.08333C7.58333 4.72767 8.10566 5.25 8.74999 5.25Z" fill="currentColor"/>
  <path fill-rule="evenodd" clip-rule="evenodd" d="M2.99016 10.5H1.55554L1.55554 9.33333L2.99016 9.33333C3.24918 8.32695 4.16274 7.58333 5.24998 7.58333C6.33722 7.58333 7.25078 8.32695 7.5098 9.33333L12.4444 9.33333V10.5H7.5098C7.25078 11.5064 6.33722 12.25 5.24998 12.25C4.16274 12.25 3.24918 11.5064 2.99016 10.5ZM5.24998 8.75C4.60565 8.75 4.08331 9.27233 4.08331 9.91667C4.08331 10.561 4.60565 11.0833 5.24998 11.0833C5.89431 11.0833 6.41665 10.561 6.41665 9.91667C6.41665 9.27233 5.89431 8.75 5.24998 8.75Z" fill="currentColor"/>
</svg>
