<svg width="252" height="294" style="height: 294px;" viewBox="0 0 252 294" fill="none" xmlns="http://www.w3.org/2000/svg">
<path fill-rule="evenodd" clip-rule="evenodd" d="M39.755 130.84C39.6543 131.928 39.3392 132.985 38.8279 133.95C38.3165 134.916 37.6191 135.77 36.7759 136.465C35.9326 137.159 34.9602 137.68 33.9146 137.997C32.8691 138.314 31.7712 138.421 30.6843 138.311C29.5973 138.202 28.5428 137.878 27.5815 137.359C26.6203 136.84 25.7713 136.135 25.0836 135.286C24.396 134.437 23.8831 133.461 23.5748 132.413C23.2664 131.365 23.1686 130.266 23.287 129.18C23.5236 127.009 24.6083 125.02 26.3048 123.646C28.0012 122.272 30.172 121.624 32.3443 121.843C34.5166 122.062 36.5143 123.13 37.9024 124.815C39.2904 126.5 39.9563 128.666 39.755 130.84Z" fill="#DFE7F6"/>
<path d="M48.373 146.508L35.725 157.296M36.975 134.297L47.457 140.24L36.975 134.297Z" stroke="#DFE7F6" stroke-width="2"/>
<path fill-rule="evenodd" clip-rule="evenodd" d="M39.875 159.352C39.7244 160.847 38.9858 162.222 37.8219 163.173C36.658 164.124 35.1639 164.573 33.6685 164.422C32.1731 164.272 30.7988 163.533 29.8479 162.369C28.897 161.205 28.4474 159.711 28.598 158.216C28.6726 157.476 28.8923 156.757 29.2446 156.101C29.5969 155.446 30.0748 154.866 30.6511 154.395C31.2275 153.924 31.8909 153.572 32.6035 153.357C33.3162 153.143 34.0641 153.071 34.8045 153.145C35.545 153.22 36.2635 153.44 36.919 153.792C37.5746 154.144 38.1543 154.622 38.6252 155.199C39.096 155.775 39.4487 156.438 39.6632 157.151C39.8776 157.864 39.9496 158.612 39.875 159.352ZM57.588 143.247C57.5189 143.998 57.3019 144.727 56.9494 145.393C56.5969 146.06 56.1159 146.649 55.5342 147.129C54.9525 147.608 54.2817 147.968 53.5603 148.186C52.839 148.405 52.0815 148.479 51.3315 148.403C50.5815 148.327 49.854 148.104 49.1908 147.746C48.5277 147.387 47.942 146.901 47.4677 146.316C46.9934 145.73 46.6398 145.056 46.4274 144.333C46.215 143.609 46.1479 142.851 46.23 142.102C46.394 140.606 47.1424 139.235 48.3123 138.288C49.4822 137.34 50.9789 136.894 52.4766 137.045C53.9742 137.196 55.3516 137.932 56.3089 139.094C57.2662 140.255 57.726 141.748 57.588 143.247Z" fill="#DFE7F6"/>
<path d="M129.41 18.175L99.5895 18.189C98.987 18.1892 98.3904 18.0707 97.8336 17.8403C97.2769 17.6099 96.771 17.2722 96.3449 16.8463C95.9187 16.4204 95.5806 15.9147 95.3498 15.3581C95.1191 14.8016 95.0002 14.205 95 13.6025C94.9998 13 95.1183 12.4034 95.3487 11.8466C95.5791 11.2899 95.9168 10.784 96.3427 10.3579C96.7686 9.93168 97.2743 9.59356 97.8309 9.36281C98.3874 9.13206 98.984 9.0132 99.5865 9.013L129.407 9C130.009 8.9998 130.606 9.11827 131.162 9.34863C131.719 9.57899 132.225 9.91674 132.651 10.3426C133.077 10.7684 133.415 11.274 133.646 11.8306C133.876 12.3871 133.995 12.9836 133.995 13.586C133.996 14.1884 133.877 14.785 133.647 15.3417C133.417 15.8983 133.079 16.4042 132.653 16.8303C132.227 17.2564 131.721 17.5945 131.165 17.8252C130.608 18.0559 130.012 18.1748 129.41 18.175Z" fill="#DFE7F6"/>
<path d="M140.816 36.512L110.996 36.525C110.393 36.5253 109.796 36.4069 109.24 36.1766C108.683 35.9463 108.177 35.6086 107.751 35.1828C107.325 34.757 106.987 34.2514 106.756 33.6949C106.525 33.1384 106.406 32.5419 106.406 31.9395C106.406 31.3371 106.524 30.7405 106.754 30.1838C106.985 29.6271 107.322 29.1212 107.748 28.6951C108.174 28.2689 108.68 27.9308 109.236 27.7C109.793 27.4692 110.389 27.3503 110.992 27.35L140.812 27.337C142.016 27.3543 143.166 27.8449 144.012 28.7029C144.859 29.5609 145.333 30.7174 145.334 31.9225C145.334 33.1276 144.861 34.2845 144.015 35.1433C143.17 36.002 142.02 36.4937 140.816 36.512Z" fill="#DFE7F6"/>
<path fill-rule="evenodd" clip-rule="evenodd" d="M190.725 115.815C190.172 121.3 185.278 125.298 179.794 124.745C174.309 124.192 170.311 119.297 170.864 113.813C171.416 108.328 176.311 104.33 181.796 104.883C187.281 105.436 191.279 110.33 190.726 115.815" fill="#DFE7F6"/>
<path d="M112 18.0085V18.0065L127.648 18.0005C127.693 17.9998 127.739 17.9998 127.784 18.0005L127.648 18.0005C127.086 18.0091 126.53 18.1208 126.008 18.3306C125.443 18.5573 124.93 18.894 124.497 19.321C124.063 19.748 123.72 20.2569 123.485 20.818C123.25 21.3791 123.13 21.9813 123.13 22.5895C123.13 23.1977 123.251 23.7998 123.486 24.3608C123.721 24.9217 124.065 25.4304 124.499 25.8571C124.932 26.2838 125.446 26.6202 126.01 26.8465C126.56 27.0666 127.143 27.3758 127.734 27.3841L127.784 27.3841C127.767 27.3844 127.751 27.3844 127.734 27.3841L112.001 27.3911V27.3891C113.217 27.3886 114.387 26.6963 115.246 25.8359C116.106 24.9754 116.589 23.8088 116.588 22.5925C116.587 21.3762 116.104 20.2099 115.243 19.3503C114.383 18.4906 113.216 18.0079 112 18.0085Z" fill="#DFE7F6"/>
<path d="M199.208 136.624L183.953 149.635M185.462 121.897L198.102 129.064L185.462 121.897Z" stroke="#DFE7F6" stroke-width="2"/>
<path fill-rule="evenodd" clip-rule="evenodd" d="M190.87 150.204C190.79 151.105 190.532 151.981 190.111 152.782C189.69 153.582 189.114 154.291 188.417 154.867C187.72 155.444 186.915 155.876 186.05 156.139C185.185 156.402 184.276 156.491 183.376 156.4C182.476 156.309 181.603 156.041 180.808 155.61C180.012 155.179 179.31 154.595 178.742 153.891C178.175 153.188 177.752 152.378 177.499 151.51C177.246 150.641 177.169 149.731 177.27 148.832C177.472 147.045 178.37 145.409 179.77 144.28C181.17 143.151 182.958 142.618 184.748 142.799C186.537 142.98 188.184 143.858 189.33 145.244C190.476 146.631 191.029 148.413 190.87 150.204ZM209.542 133.472C209.458 134.378 209.196 135.257 208.771 136.06C208.345 136.864 207.765 137.575 207.064 138.153C206.362 138.73 205.553 139.164 204.683 139.427C203.813 139.691 202.9 139.78 201.995 139.688C201.091 139.597 200.214 139.328 199.414 138.896C198.614 138.464 197.908 137.878 197.336 137.171C196.764 136.465 196.337 135.652 196.081 134.78C195.825 133.908 195.743 132.994 195.842 132.09C196.039 130.285 196.942 128.631 198.353 127.488C199.765 126.345 201.57 125.806 203.377 125.988C205.184 126.17 206.846 127.059 208.001 128.461C209.155 129.863 209.709 131.664 209.542 133.472Z" fill="#DFE7F6"/>
<path fill-rule="evenodd" clip-rule="evenodd" d="M222.582 130.12C222.582 130.412 222.524 130.701 222.413 130.971C222.301 131.24 222.137 131.485 221.931 131.692C221.724 131.898 221.479 132.062 221.209 132.173C220.94 132.285 220.651 132.342 220.359 132.342C220.067 132.342 219.778 132.285 219.508 132.173C219.238 132.061 218.993 131.897 218.787 131.691C218.58 131.484 218.417 131.239 218.305 130.97C218.193 130.7 218.136 130.411 218.136 130.119C218.136 129.529 218.37 128.964 218.787 128.547C219.204 128.13 219.77 127.896 220.359 127.896C220.949 127.896 221.514 128.13 221.931 128.547C222.348 128.964 222.582 129.529 222.582 130.119V130.12ZM183.119 86.6759C183.125 86.9717 183.073 87.2658 182.964 87.5409C182.855 87.8161 182.692 88.0667 182.485 88.2781C182.278 88.4896 182.031 88.6576 181.758 88.7722C181.485 88.8869 181.192 88.946 180.897 88.946C180.601 88.946 180.308 88.8869 180.035 88.7722C179.762 88.6576 179.515 88.4896 179.308 88.2781C179.101 88.0667 178.938 87.8161 178.83 87.5409C178.721 87.2658 178.668 86.9717 178.674 86.6759C178.686 86.0946 178.926 85.5413 179.341 85.1345C179.757 84.7278 180.315 84.5 180.897 84.5C181.478 84.5 182.036 84.7278 182.452 85.1345C182.867 85.5413 183.107 86.0946 183.119 86.6759ZM208.26 159.751C208.26 160.34 208.026 160.906 207.609 161.323C207.192 161.74 206.627 161.974 206.037 161.974C205.448 161.974 204.882 161.74 204.465 161.323C204.048 160.906 203.814 160.34 203.814 159.751C203.814 159.161 204.048 158.596 204.465 158.179C204.882 157.762 205.448 157.528 206.037 157.528C206.627 157.528 207.192 157.762 207.609 158.179C208.026 158.596 208.26 159.161 208.26 159.751Z" stroke="#DFE7F6" stroke-width="2"/>
<path d="M227.777 155.628C227.888 155.358 227.946 155.069 227.946 154.778V154.777C227.946 154.187 227.712 153.621 227.295 153.205C226.878 152.788 226.313 152.554 225.723 152.554C225.133 152.554 224.568 152.788 224.151 153.205C223.734 153.621 223.5 154.187 223.5 154.777C223.5 155.068 223.557 155.358 223.669 155.627C223.781 155.897 223.944 156.142 224.151 156.349C224.357 156.555 224.602 156.719 224.872 156.831C225.142 156.942 225.431 157 225.723 157C226.014 157 226.304 156.943 226.573 156.831C226.843 156.719 227.088 156.556 227.295 156.349C227.501 156.143 227.665 155.898 227.777 155.628Z" stroke="#DFE7F6" stroke-width="2"/>
<path d="M229.774 62.6384C230.19 62.2216 230.425 61.6563 230.425 61.0669H230.424C230.424 60.4775 230.189 59.9124 229.773 59.4957C229.356 59.079 228.791 58.8449 228.202 58.8449C227.612 58.8449 227.047 59.079 226.63 59.4957C226.214 59.9124 225.98 60.4775 225.98 61.0669C225.98 61.6563 226.214 62.2216 226.63 62.6384C227.047 63.0552 227.613 63.2894 228.202 63.2894C228.791 63.2894 229.357 63.0552 229.774 62.6384Z" stroke="#DFE7F6" stroke-width="2"/>
<path d="M200.29 38.0409C200.399 37.7658 200.452 37.4717 200.446 37.1759C200.433 36.5946 200.194 36.0413 199.778 35.6345C199.363 35.2278 198.804 35 198.223 35C197.642 35 197.083 35.2278 196.668 35.6345C196.252 36.0413 196.013 36.5946 196 37.1759C195.994 37.4717 196.047 37.7658 196.156 38.0409C196.265 38.3161 196.428 38.5667 196.635 38.7781C196.842 38.9896 197.089 39.1576 197.361 39.2722C197.634 39.3869 197.927 39.446 198.223 39.446C198.519 39.446 198.812 39.3869 199.085 39.2722C199.357 39.1576 199.604 38.9896 199.811 38.7781C200.018 38.5667 200.181 38.3161 200.29 38.0409Z" stroke="#DFE7F6" stroke-width="2"/>
<path d="M181.143 105.315V89.5115M224.5 153.5L221 134.083H219.487C219.487 134.083 212.624 148.073 208.143 157.208L208.5 157.574L224 154.5" stroke="#DFE7F6" stroke-width="2"/>
<path d="M226.15 61.86L213.31 69.761L198 61.859V39" stroke="#DFE7F6" stroke-width="2"/>
<path fill-rule="evenodd" clip-rule="evenodd" d="M166.588 65.9359H162.637C161.38 65.9325 160.176 65.4318 159.287 64.5433C158.399 63.6548 157.898 62.4506 157.894 61.1939C157.897 59.9371 158.398 58.7327 159.287 57.8439C160.176 56.9552 161.38 56.4544 162.637 56.4509H166.588C167.845 56.4544 169.049 56.9552 169.938 57.8439C170.827 58.7327 171.328 59.9371 171.331 61.1939C171.327 62.4506 170.826 63.6548 169.938 64.5433C169.049 65.4318 167.845 65.9325 166.588 65.9359Z" fill="#DFE7F6"/>
<path fill-rule="evenodd" clip-rule="evenodd" d="M52.04 76.1309C52.04 76.1309 73.85 81.4909 79.347 92.0759C84.922 102.816 72.995 101.336 63.617 97.0109C52.757 92.0029 38.917 85.1889 52.04 76.1309Z" fill="#FFB594"/>
<path fill-rule="evenodd" clip-rule="evenodd" d="M90.483 67.5038L90.034 70.3968C89.281 70.8868 85.286 67.7338 85.286 67.7338L83.641 68.4818L82.295 62.7978C82.295 62.7978 89.11 58.2088 91.212 57.7798C93.664 57.2788 101.096 58.7198 101.912 60.0578C101.912 60.0578 103.232 60.5438 99.685 60.7478C96.137 60.9508 94.642 61.1948 92.895 63.8798C91.148 66.5658 90.483 67.5038 90.483 67.5038Z" fill="#FFC6A0"/>
<path fill-rule="evenodd" clip-rule="evenodd" d="M128.055 111.367C125.428 103.643 121.905 98.1868 119.138 95.8888C115.638 92.9828 109.798 93.6638 107.772 91.7018C106.502 90.4708 104.557 90.5048 104.557 90.5048C104.557 90.5048 89.577 87.3468 87.729 87.0258C85.359 86.6158 85.605 86.3118 81.675 85.6208C80.105 83.7138 78.758 84.4988 78.758 84.4988L71.648 83.1158C70.795 81.6438 69.225 82.0928 69.225 82.0928L66.757 81.1958C65.112 91.1718 59.017 94.9918 59.017 94.9918C60.812 96.1138 74.72 103.292 74.72 103.292L79.827 140.402C79.827 140.402 76.506 146.096 81.173 149.511C81.173 149.511 101.056 145.768 116.094 149.182C116.094 149.182 119.141 146.636 117.066 140.376C117.589 137.366 118.46 132.113 118.802 128.754C119.187 129.526 120.821 130.672 121.942 132.231C121.942 132.231 131.349 124.866 132.994 118.219C132.162 117.496 131.396 116.634 130.727 115.766C130.16 115.03 130.369 113.71 129.962 113.049C129.293 111.965 128.158 111.671 128.055 111.367Z" fill="white"/>
<path fill-rule="evenodd" clip-rule="evenodd" d="M101.09 289.998C101.09 289.998 105.385 292.039 108.444 291.019C111.265 290.079 112.974 291.687 115.524 292.197C118.074 292.707 122.398 293.297 127.21 290.937C127.107 285.427 120.321 286.957 115.25 284.224C112.687 282.844 111.466 279.502 111.652 275.425H102.25C102.25 275.425 100.858 285.945 101.09 289.998Z" fill="#CBD1D1"/>
<path fill-rule="evenodd" clip-rule="evenodd" d="M101.067 289.826C101.067 289.826 103.495 291.097 107.826 290.479C110.884 290.042 111.538 290.96 115.249 291.51C118.961 292.06 125.973 291.441 127.072 290.616C127.485 291.716 126.729 292.679 126.729 292.679C126.729 292.679 125.217 293.282 121.917 293.503C119.887 293.639 116.117 293.794 114.31 293C112.523 291.625 109.063 291.097 108.582 292.759C104.664 293.709 101.227 292.473 101.227 292.473L101.067 289.826Z" fill="#2B0849"/>
<path fill-rule="evenodd" clip-rule="evenodd" d="M108.341 276.044H111.435C111.435 276.044 111.332 282.746 115.971 284.602C111.331 285.22 107.413 282.299 108.341 276.044Z" fill="#A4AABA"/>
<path fill-rule="evenodd" clip-rule="evenodd" d="M57.542 272.401C57.542 272.401 55.435 279.817 53.057 284.707C51.259 288.402 48.832 292.199 58.522 292.199C65.17 292.199 67.475 291.719 65.945 285.6C64.415 279.48 66.211 272.401 66.211 272.401H57.542Z" fill="#CBD1D1"/>
<path fill-rule="evenodd" clip-rule="evenodd" d="M51.476 289.793C51.476 289.793 53.573 290.962 58.109 290.962C64.192 290.962 66.358 289.312 66.358 289.312C66.358 289.312 66.96 290.426 65.739 291.477C64.746 292.332 62.142 293.068 58.349 293.023C54.204 292.975 52.517 292.457 51.613 291.855C50.788 291.305 50.926 290.275 51.476 289.793Z" fill="#2B0849"/>
<path fill-rule="evenodd" clip-rule="evenodd" d="M58.419 274.304C58.419 274.304 58.452 275.823 58.105 277.234C57.756 278.654 57.027 280.338 56.975 281.373C56.917 282.524 61.512 282.953 62.13 281.407C62.75 279.86 63.424 274.98 64.043 274.155C64.662 273.33 59.14 272.036 58.419 274.305" fill="#A4AABA"/>
<path fill-rule="evenodd" clip-rule="evenodd" d="M99.66 278.514L113.038 278.606C113.038 278.606 114.336 224.086 114.891 214.203C115.445 204.321 118.667 170.839 115.893 151.075L103.346 150.431L80.497 151.211C80.497 151.211 80.063 155.177 79.302 161.187C79.239 161.683 78.62 162.03 78.553 162.552C78.478 163.137 78.976 163.906 78.873 164.518C76.509 178.598 72.496 197.622 70.129 211.195C70.013 211.861 68.895 212.204 68.671 213.886C68.631 214.188 68.882 215.411 68.783 215.681C61.91 234.425 57.834 263.523 54.506 277.566L69.113 277.552C69.113 277.552 71.31 268.982 73.143 260.582C75.954 247.696 96.254 175.572 96.254 175.572L99.27 175.051L100.313 221.401C100.313 221.401 100.089 222.635 100.65 223.421C101.21 224.206 100.09 224.544 100.258 225.665L100.65 227.459C100.65 227.459 100.201 234.637 99.752 239.349C99.304 244.059 99.66 278.514 99.66 278.514Z" fill="#7BB2F9"/>
<path d="M106.36 225.142C106.36 225.142 109.134 224.032 112.463 221.259M76.085 221.626C77.238 221.72 80.123 219.607 83.04 216.691L76.085 221.626Z" stroke="#648BD8" stroke-width="1.051" stroke-linecap="round" stroke-linejoin="round"/>
<path d="M107.275 222.1C107.275 222.1 110.048 220.99 113.377 218.216" stroke="#648BD8" stroke-linecap="round" stroke-linejoin="round"/>
<path d="M56.12 274.418H69.43M74.74 224.767C74.74 224.767 77.362 224.176 81.245 221.402L74.74 224.767ZM86.03 151.634C85.76 154.74 86.33 160.159 81.694 160.757L86.03 151.634ZM103.625 149.88C103.625 149.88 103.735 163.892 102.332 164.945C100.113 166.609 99.342 166.889 99.342 166.889L103.625 149.88ZM99.79 150.438C99.79 150.438 99.825 163.318 98.594 174.815L99.79 150.438ZM93.673 175.911C93.673 175.911 100.885 174.247 103.104 174.247L93.673 175.911ZM74.31 205.861C74.0004 207.384 73.674 208.905 73.331 210.421C73.331 210.421 71.873 212.253 72.322 214.197C72.771 216.141 71.375 216.242 67.337 229.552C65.641 235.142 62.847 248.143 60.989 257.149L60.758 258.269L74.31 205.861ZM75.689 197.807C75.4069 199.394 75.1129 200.978 74.807 202.561L75.689 197.807ZM82.591 152.233L81.395 162.7C81.395 162.7 80.298 162.85 80.895 164.944C81.008 166.29 78.221 180.719 75.715 195.374L82.591 152.233Z" stroke="#648BD8" stroke-width="1.051" stroke-linecap="round" stroke-linejoin="round"/>
<path fill-rule="evenodd" clip-rule="evenodd" d="M116.241 148.22C116.241 148.22 99.194 145.116 80.348 148.42C80.506 150.934 80.345 152.57 80.345 152.57C80.345 152.57 95.032 149.752 116.015 152.258C116.267 149.903 116.241 148.22 116.241 148.22Z" fill="#192064"/>
<path fill-rule="evenodd" clip-rule="evenodd" d="M106.322 151.165L106.325 146.254C106.326 146.044 106.246 145.841 106.101 145.689C105.956 145.537 105.757 145.447 105.547 145.439C103.107 145.348 100.481 145.331 97.711 145.425C97.4996 145.432 97.2994 145.521 97.1523 145.673C97.0052 145.825 96.9227 146.028 96.922 146.24L96.919 151.146C96.9186 151.254 96.9399 151.362 96.9817 151.462C97.0236 151.562 97.0851 151.652 97.1626 151.728C97.2401 151.804 97.332 151.863 97.4329 151.903C97.5338 151.943 97.6416 151.962 97.75 151.959C100.135 151.899 102.723 151.895 105.48 151.976C105.589 151.98 105.697 151.961 105.799 151.922C105.901 151.883 105.994 151.824 106.072 151.749C106.151 151.673 106.213 151.583 106.256 151.483C106.299 151.383 106.321 151.275 106.322 151.166" fill="white"/>
<path fill-rule="evenodd" clip-rule="evenodd" d="M105.207 150.233L105.209 147.157C105.21 146.99 105.146 146.829 105.031 146.708C104.915 146.588 104.757 146.517 104.59 146.511C102.635 146.447 100.679 146.443 98.724 146.501C98.5556 146.506 98.3958 146.576 98.2783 146.697C98.1608 146.818 98.0947 146.979 98.094 147.148V150.22C98.0935 150.306 98.1101 150.39 98.1429 150.469C98.1757 150.548 98.224 150.62 98.2849 150.68C98.3459 150.74 98.4183 150.787 98.4979 150.819C98.5774 150.851 98.6625 150.866 98.748 150.864C100.679 150.821 102.611 150.825 104.542 150.875C104.904 150.885 105.207 150.595 105.207 150.233Z" fill="#192064"/>
<path d="M100.986 174.965L101.884 219.607C101.884 219.607 102.557 221.177 101.659 222.299C100.762 223.421 104.127 222.972 102.557 224.542C100.987 226.112 103.454 225.664 102.557 227.907C101.961 229.396 101.563 249.007 101.461 263.053M100.263 275.415H112.601H100.263ZM101.436 270.53C101.442 273.917 101.478 276.32 101.547 277.036L101.436 270.53ZM101.451 264.548C101.443 265.994 101.438 267.439 101.436 268.885L101.451 264.548Z" stroke="#648BD8" stroke-width="1.051" stroke-linecap="round" stroke-linejoin="round"/>
<path fill-rule="evenodd" clip-rule="evenodd" d="M46.876 83.4268C46.876 83.4268 46.36 89.4718 54.099 88.9788C65.299 88.2668 63.317 79.6338 85.639 67.3238C84.853 64.6158 83.192 62.5798 83.192 62.5798C83.192 62.5798 72.124 65.6898 60.608 70.6258C53.842 73.5258 47.213 76.9778 46.876 83.4268ZM104.46 91.0568L105.401 85.6848L96.517 74.2548L91.48 79.6268L89.74 87.4608C89.7265 87.5189 89.7294 87.5797 89.7485 87.6362C89.7676 87.6927 89.802 87.7428 89.848 87.7808C90.813 88.5808 96.348 92.7938 104.195 91.3248C104.261 91.3121 104.321 91.2797 104.369 91.2318C104.416 91.184 104.447 91.123 104.459 91.0568" fill="#FFC6A0"/>
<path fill-rule="evenodd" clip-rule="evenodd" d="M93.942 79.3868C93.942 79.3868 89.409 76.5338 91.51 72.5318C93.133 69.4418 96.023 73.6648 96.023 73.6648C96.023 73.6648 96.543 70.0228 99.144 70.0228C99.664 68.9828 100.705 65.8608 100.705 65.8608C100.705 65.8608 112.15 68.4618 114.231 68.9818C114.231 74.1848 111.927 88.4058 106.391 88.8428C97.499 89.5458 93.942 79.3868 93.942 79.3868Z" fill="#FFC6A0"/>
<path fill-rule="evenodd" clip-rule="evenodd" d="M113.874 73.4459C116.475 71.3649 117.344 63.7239 117.344 63.7239C117.344 63.7239 114.865 63.2339 110.704 61.6739C106.021 59.5929 97.906 56.9269 93.224 62.6499C83.556 65.8729 91.174 82.4729 91.174 82.4729L93.887 79.4519C93.887 79.4519 89.952 76.1649 91.807 73.2089C93.977 69.7469 95.727 74.2819 95.727 74.2819C95.727 74.2819 96.364 71.8949 99.308 70.9399C99.663 70.2299 100.344 68.2659 100.74 67.0899C100.825 66.8362 101.001 66.6234 101.235 66.4932C101.469 66.363 101.743 66.3247 102.003 66.3859C104.403 66.9439 110.68 68.4049 113.359 69.0479C113.881 69.1729 114.23 69.6629 114.179 70.1979L113.874 73.4459Z" fill="#520038"/>
<path fill-rule="evenodd" clip-rule="evenodd" d="M104.977 76.0639C104.874 76.6739 104.395 77.1019 103.907 77.0199C103.418 76.9369 103.106 76.3759 103.209 75.7659C103.312 75.1559 103.791 74.7279 104.279 74.8099C104.767 74.8919 105.079 75.4539 104.977 76.0639ZM112.132 77.6939C112.029 78.3039 111.55 78.7319 111.062 78.6499C110.574 78.5669 110.262 78.0059 110.364 77.3959C110.467 76.7859 110.946 76.3579 111.434 76.4399C111.922 76.5219 112.234 77.0829 112.132 77.6939Z" fill="#552950"/>
<path d="M110.13 74.8398L109.234 76.4498L108.936 80.8068H106.708" stroke="#DB836E" stroke-width="1.118" stroke-linecap="round" stroke-linejoin="round"/>
<path d="M110.846 74.481C110.846 74.481 112.636 73.765 113.352 75.018" stroke="#5C2552" stroke-width="1.118" stroke-linecap="round" stroke-linejoin="round"/>
<path d="M92.386 74.2819C92.386 74.2819 92.863 73.1679 93.499 73.5659C94.136 73.9639 94.773 74.9989 94.057 75.5559C93.34 76.1119 94.216 77.2259 94.216 77.2259" stroke="#DB836E" stroke-width="1.118" stroke-linecap="round" stroke-linejoin="round"/>
<path d="M103.287 72.9299C103.287 72.9299 105.117 74.0429 107.424 73.8839" stroke="#5C2552" stroke-width="1.118" stroke-linecap="round" stroke-linejoin="round"/>
<path d="M94.693 81.2048C94.693 81.2048 97.001 88.6048 105.117 88.8438M103.685 81.7618C103.685 81.7618 105.912 82.9548 108.061 82.9548L103.685 81.7618ZM104.64 84.3078C104.64 84.3078 105.594 84.7058 106.151 84.6258L104.64 84.3078Z" stroke="#DB836E" stroke-width="1.118" stroke-linecap="round" stroke-linejoin="round"/>
<path d="M69 82.6538C69 82.6538 68.274 91.9358 60.796 96.8598M81.45 89.3838C81.45 89.3838 81.9 95.0308 76.515 102.171L81.45 89.3838Z" stroke="#E4EBF7" stroke-width="1.101" stroke-linecap="round" stroke-linejoin="round"/>
<path d="M129.405 122.865C129.405 122.865 124.133 130.268 119.983 133.633" stroke="#E4EBF7" stroke-width="1.051" stroke-linecap="round" stroke-linejoin="round"/>
<path d="M119.306 107.329C119.306 107.329 119.758 111.695 117.179 139.391" stroke="#E4EBF7" stroke-width="1.101" stroke-linecap="round" stroke-linejoin="round"/>
<path fill-rule="evenodd" clip-rule="evenodd" d="M150.028 151.232H100.191C99.9232 151.232 99.6663 151.126 99.4769 150.936C99.2874 150.747 99.181 150.49 99.181 150.222V118.534C99.181 117.977 99.633 117.524 100.191 117.524H150.028C150.586 117.524 151.038 117.977 151.038 118.534V150.222C151.038 150.49 150.932 150.747 150.742 150.936C150.553 151.126 150.296 151.232 150.028 151.232Z" fill="#F2D7AD"/>
<path fill-rule="evenodd" clip-rule="evenodd" d="M150.29 151.232H130.427V117.525H151.211V150.311C151.211 150.555 151.114 150.789 150.942 150.961C150.769 151.134 150.535 151.231 150.291 151.231" fill="#F4D19D"/>
<path fill-rule="evenodd" clip-rule="evenodd" d="M123.554 127.896H92.917C92.822 127.896 92.7288 127.87 92.6476 127.821C92.5663 127.772 92.5001 127.701 92.4563 127.617C92.4124 127.533 92.3925 127.438 92.3988 127.344C92.4051 127.249 92.4374 127.158 92.492 127.08L98.872 117.967C99.065 117.69 99.382 117.525 99.722 117.525H130.814L123.554 127.896Z" fill="#F2D7AD"/>
<path fill-rule="evenodd" clip-rule="evenodd" d="M123.689 128.447H99.25V127.928H123.419L130.602 117.668L131.026 117.966L123.689 128.447Z" fill="#CC9B6E"/>
<path fill-rule="evenodd" clip-rule="evenodd" d="M158.298 127.896H139.629C139.307 127.896 138.989 127.821 138.701 127.677C138.413 127.533 138.163 127.324 137.97 127.066L130.814 117.525H150.779C151.269 117.525 151.729 117.755 152.023 118.147L158.713 127.067C158.771 127.144 158.806 127.236 158.814 127.332C158.823 127.427 158.805 127.524 158.762 127.61C158.719 127.696 158.652 127.769 158.571 127.819C158.489 127.87 158.394 127.897 158.298 127.897" fill="#F4D19D"/>
<path fill-rule="evenodd" clip-rule="evenodd" d="M157.847 128.479H138.463L130.606 118.004L131.021 117.694L138.721 127.96H157.847V128.479ZM130.554 150.685L130.522 142.508L131.041 142.506L131.073 150.683L130.554 150.685Z" fill="#CC9B6E"/>
<path fill-rule="evenodd" clip-rule="evenodd" d="M130.511 139.783L130.431 118.369L130.95 118.367L131.03 139.781L130.511 139.783ZM111.876 140.932L111.378 140.789L112.857 135.622L113.355 135.765L111.876 140.932ZM108.437 141.06L105.758 138.125L108.423 134.691L108.833 135.009L106.436 138.098L108.82 140.71L108.437 141.06ZM116.607 141.06L116.224 140.71L118.607 138.098L116.21 135.009L116.62 134.691L119.285 138.125L116.607 141.06Z" fill="#CC9B6E"/>
<path fill-rule="evenodd" clip-rule="evenodd" d="M154.316 131.892L151.202 129.932L151.24 133.446L150.197 133.538C148.515 133.653 146.563 133.768 145.408 133.768C143.506 133.768 142.715 136.026 147.638 136.416L144.993 135.82C144.993 135.82 142.825 137.137 145.497 138.12C145.497 138.12 143.917 139.337 146.058 140.7C145.474 144.204 151.305 144.758 153.18 144.29C155.056 143.82 157.413 141.931 157.667 139.13C157.947 136.045 156.777 133.698 154.317 131.892" fill="#FFC6A0"/>
<path d="M153.686 133.577C153.686 133.577 147.164 134.047 145.326 133.949C143.49 133.851 143.422 136.139 147.685 136.213C151.424 136.363 153.136 136.169 153.136 136.169" stroke="#DB836E" stroke-width="1.051" stroke-linecap="round" stroke-linejoin="round"/>
<path d="M145.16 135.877C143.31 137.223 145.721 138.232 145.721 138.232C145.721 138.232 149.199 139.13 152.451 138.849" stroke="#DB836E" stroke-width="1.051" stroke-linecap="round" stroke-linejoin="round"/>
<path d="M52.838 89.286C56.371 88.949 61.261 88.038 66.42 81.532M151.89 141.71C151.89 141.71 145.61 141.821 145.16 139.578C144.937 138.232 145.61 138.176 145.61 138.176L151.89 141.71ZM146.114 140.868C146.114 140.868 145.011 144.028 151.554 144.401L146.114 140.868ZM151.202 129.932V133.409V129.932Z" stroke="#DB836E" stroke-width="1.051" stroke-linecap="round" stroke-linejoin="round"/>
<path fill-rule="evenodd" clip-rule="evenodd" d="M168.567 248.318C166.804 248.318 165.113 247.618 163.867 246.371C162.62 245.124 161.92 243.434 161.92 241.671V175.205C161.92 174.332 162.092 173.468 162.426 172.661C162.76 171.855 163.25 171.122 163.867 170.505C164.484 169.887 165.217 169.398 166.023 169.064C166.83 168.73 167.694 168.558 168.567 168.558C169.44 168.558 170.304 168.73 171.111 169.064C171.917 169.398 172.65 169.887 173.267 170.505C173.884 171.122 174.374 171.855 174.708 172.661C175.042 173.468 175.214 174.332 175.214 175.205V241.671C175.214 243.434 174.514 245.124 173.267 246.371C172.021 247.618 170.33 248.318 168.567 248.318Z" fill="#5BA02E"/>
<path fill-rule="evenodd" clip-rule="evenodd" d="M176.543 247.653C174.78 247.653 173.09 246.952 171.843 245.706C170.597 244.459 169.897 242.769 169.897 241.006V207.774C169.886 206.894 170.05 206.021 170.379 205.205C170.708 204.389 171.196 203.647 171.815 203.021C172.433 202.395 173.169 201.898 173.981 201.559C174.793 201.22 175.664 201.045 176.543 201.045C177.423 201.045 178.294 201.22 179.106 201.559C179.918 201.898 180.654 202.395 181.272 203.021C181.891 203.647 182.378 204.389 182.708 205.205C183.037 206.021 183.201 206.894 183.19 207.774V241.006C183.19 242.769 182.49 244.46 181.243 245.706C179.997 246.953 178.306 247.653 176.543 247.653Z" fill="#92C110"/>
<path fill-rule="evenodd" clip-rule="evenodd" d="M186.443 293.613H158.92C158.075 293.613 157.264 293.277 156.666 292.68C156.069 292.082 155.733 291.271 155.733 290.426V244.292C155.733 243.447 156.069 242.636 156.666 242.038C157.264 241.441 158.075 241.105 158.92 241.105H186.444C187.289 241.105 188.1 241.441 188.698 242.038C189.295 242.636 189.631 243.447 189.631 244.292V290.426C189.631 291.271 189.295 292.082 188.698 292.68C188.1 293.277 187.289 293.613 186.444 293.613" fill="#F2D7AD"/>
<path d="M88.979 89.48C88.979 89.48 96.755 94.864 105.579 92.322" stroke="#E4EBF7" stroke-width="1.101" stroke-linecap="round" stroke-linejoin="round"/>
</svg>
