<svg width="132" height="81" viewBox="0 0 132 81" fill="none" xmlns="http://www.w3.org/2000/svg">
    <path
      d="M66 81C102.451 81 132 74.732 132 67C132 59.268 102.451 53 66 53C29.5492 53 0 59.268 0 67C0 74.732 29.5492 81 66 81Z"
      fill="#F5F5F5"
    />
    <path
      d="M113.438 26.52L92.5117 3.516C91.5073 1.948 90.0409 1 88.4961 1H43.5047C41.9599 1 40.4934 1.948 39.489 3.514L18.5629 26.522V45H113.438V26.52Z"
      stroke="#D9D9D9"
    />
    <path
      d="M85.827 32.862C85.827 29.652 87.8771 27.002 90.4202 27H113.438V63.274C113.438 67.52 110.715 71 107.353 71H24.6471C21.2852 71 18.5627 67.518 18.5627 63.274V27H41.5802C44.1232 27 46.1734 29.646 46.1734 32.856V32.9C46.1734 36.11 48.2462 38.702 50.7872 38.702H81.2132C83.7542 38.702 85.827 36.086 85.827 32.876V32.862Z"
      fill="#FAFAFA"
      stroke="#D9D9D9"
    />
  </svg>