<svg width="24" height="24" viewBox="0 0 24 24" fill="currentColor" xmlns="http://www.w3.org/2000/svg">
<path d="M4.14364 6.24452H1V17.2507H4.14364V6.24452Z"/>
<path d="M16.8904 17.2508H13.7904V11.3586C13.7904 9.75767 13.172 8.95722 11.935 8.95722C11.3381 8.95722 10.8652 9.19438 10.5161 9.66873C10.1666 10.143 9.99193 10.7138 9.99193 11.3808V17.2508H6.84859V6.2668H9.59912L9.81752 7.51196C10.3705 6.51879 11.3162 6.02222 12.6554 6.02222C14.1541 6.02222 15.2021 6.70409 15.7987 8.06783C16.2789 7.32665 16.7958 6.80042 17.3487 6.48915C17.9017 6.16305 18.5784 6 19.3789 6C20.6595 6 21.6929 6.40021 22.4788 7.20066C23.279 8.00111 23.6794 9.35001 23.6794 11.2474V17.2508H20.5139V11.3141C20.5139 9.78731 19.9682 9.02391 18.8769 9.02391C18.2802 9.02391 17.7998 9.25365 17.4361 9.7132C17.0721 10.1579 16.8904 10.7063 16.8904 11.3586V17.2508Z"/>
</svg>
