<svg width="14" height="14" viewBox="0 0 14 14"  fill="currentColor" xmlns="http://www.w3.org/2000/svg">
  <path d="M5.46875 4.34353H6.4791V8.96872C6.4791 9.02888 6.52832 9.0781 6.58848 9.0781H7.40879C7.46895 9.0781 7.51816 9.02888 7.51816 8.96872V4.34353H8.53125C8.62285 4.34353 8.67344 4.23825 8.61738 4.16716L7.08613 2.22849C7.0759 2.21542 7.06283 2.20484 7.04791 2.19757C7.03298 2.1903 7.0166 2.18652 7 2.18652C6.9834 2.18652 6.96702 2.1903 6.95209 2.19757C6.93717 2.20484 6.9241 2.21542 6.91387 2.22849L5.38262 4.16579C5.32656 4.23825 5.37715 4.34353 5.46875 4.34353ZM12.0039 8.55857H11.1836C11.1234 8.55857 11.0742 8.60779 11.0742 8.66794V10.7734H2.92578V8.66794C2.92578 8.60779 2.87656 8.55857 2.81641 8.55857H1.99609C1.93594 8.55857 1.88672 8.60779 1.88672 8.66794V11.375C1.88672 11.617 2.08223 11.8125 2.32422 11.8125H11.6758C11.9178 11.8125 12.1133 11.617 12.1133 11.375V8.66794C12.1133 8.60779 12.0641 8.55857 12.0039 8.55857Z"/>
</svg>
