<svg width="16" height="16" viewBox="0 0 16 16" fill="currentColor"
  xmlns="http://www.w3.org/2000/svg">
  <path fill-rule="evenodd" clip-rule="evenodd" d="M1.25 2C1.25 1.58579 1.58579 1.25 2 1.25H12C12.4142 1.25 12.75 1.58579 12.75 2C12.75 2.41421 12.4142 2.75 12 2.75H2.75V13.25H12C12.4142 13.25 12.75 13.5858 12.75 14C12.75 14.4142 12.4142 14.75 12 14.75H2C1.58579 14.75 1.25 14.4142 1.25 14V2ZM11.4306 4.94048C11.7001 4.62598 12.1736 4.58956 12.4881 4.85913L15.4881 7.43056C15.6543 7.57304 15.75 7.78106 15.75 8C15.75 8.21894 15.6543 8.42696 15.4881 8.56944L12.4881 11.1409C12.1736 11.4104 11.7001 11.374 11.4306 11.0595C11.161 10.745 11.1974 10.2716 11.5119 10.002L12.9726 8.75H6.5C6.08579 8.75 5.75 8.41421 5.75 8C5.75 7.58579 6.08579 7.25 6.5 7.25H12.9726L11.5119 5.99801C11.1974 5.72845 11.161 5.25497 11.4306 4.94048Z"/>
</svg>
