<svg width="47" height="46" viewBox="0 0 47 46" fill="none" xmlns="http://www.w3.org/2000/svg">
<path fill-rule="evenodd" clip-rule="evenodd" d="M1.5 22.9992C1.5 10.8501 11.349 1 23.5 1C35.6503 1 45.5 10.8494 45.5 22.9992C45.5 35.1499 35.6502 45 23.5 45C11.3497 45 1.5 35.1491 1.5 22.9992L1 23H0.5C0.5 35.7021 10.7974 46 23.5 46C36.2026 46 46.5 35.7021 46.5 22.9992C46.5 10.2971 36.2026 0 23.5 0C10.7967 0 0.5 10.2987 0.5 23H1L1.5 22.9992ZM24.0511 10.5001C22.4839 10.4923 20.9665 11.0307 19.8348 12.0129C18.6886 13.0077 18.0094 14.581 18 15.9967V20H16.5C15.3954 20 14.5 20.8954 14.5 22V30C14.5 31.1046 15.3954 32 16.5 32H31.5C32.6046 32 33.5 31.1046 33.5 30V22C33.5 20.8954 32.6046 20 31.5 20H29.9732L30 16.0032C30.0092 14.5892 29.3832 13.0643 28.2483 12.0563C27.1291 11.0621 25.6184 10.5083 24.0511 10.5001ZM29.4664 21L29.9664 21.0034L29.9664 21H31.5C32.0523 21 32.5 21.4477 32.5 22V30C32.5 30.5523 32.0523 31 31.5 31H16.5C15.9477 31 15.5 30.5523 15.5 30V22C15.5 21.4477 15.9477 21 16.5 21H29.4664ZM28.9731 20L29 15.9968C29.0074 14.8573 28.4939 13.6119 27.5842 12.8039C26.6589 11.982 25.3871 11.5071 24.0461 11.5001C23.557 11.4976 23.0763 11.5575 22.6174 11.6741C21.8181 11.877 21.0852 12.2518 20.4903 12.7681C19.5686 13.568 19.008 14.8644 19 16.0017V20H28.9731ZM24.5 25.9146C25.0826 25.7087 25.5 25.1531 25.5 24.5C25.5 23.6716 24.8284 23 24 23C23.1716 23 22.5 23.6716 22.5 24.5C22.5 25.1531 22.9174 25.7087 23.5 25.9146V27.5C23.5 27.7761 23.7239 28 24 28C24.2761 28 24.5 27.7761 24.5 27.5V25.9146Z" fill="#D9D9D9"/>
</svg>
