<svg width="252" height="294" viewBox="0 0 252 294" fill="none" xmlns="http://www.w3.org/2000/svg">
<path fill-rule="evenodd" clip-rule="evenodd" d="M41.582 132.92C41.4732 133.996 41.1528 135.039 40.6391 135.991C40.1254 136.944 39.4284 137.786 38.5879 138.47C37.7475 139.153 36.78 139.666 35.7408 139.977C34.7015 140.289 33.6109 140.393 32.531 140.285C31.4512 140.177 30.4034 139.858 29.4474 139.346C28.4914 138.834 27.646 138.14 26.9594 137.303C26.2727 136.466 25.7584 135.502 25.4456 134.467C25.1329 133.432 25.0279 132.346 25.1367 131.27C25.3564 129.098 26.4334 127.102 28.1307 125.72C29.8281 124.339 32.0068 123.686 34.1876 123.905C36.3684 124.124 38.3726 125.197 39.7593 126.887C41.146 128.578 41.8016 130.748 41.582 132.92Z" fill="#DFE7F6"/>
<path d="M50.1881 148.505L37.558 159.235M38.8059 136.36L49.2725 142.27L38.8059 136.36Z" stroke="#DFE7F6" stroke-width="2"/>
<path fill-rule="evenodd" clip-rule="evenodd" d="M41.7015 161.28C41.627 162.016 41.4077 162.731 41.0559 163.383C40.7041 164.035 40.2268 164.612 39.6513 165.08C39.0758 165.548 38.4134 165.899 37.7018 166.112C36.9902 166.326 36.2433 166.397 35.5039 166.323C34.7646 166.249 34.0471 166.03 33.3925 165.68C32.7379 165.33 32.159 164.854 31.6888 164.281C31.2187 163.708 30.8665 163.048 30.6524 162.339C30.4382 161.63 30.3664 160.886 30.4409 160.15C30.5913 158.663 31.3288 157.296 32.4911 156.35C33.6533 155.404 35.1452 154.957 36.6385 155.107C38.1317 155.257 39.504 155.991 40.4536 157.149C41.4031 158.307 41.852 159.793 41.7015 161.28ZM59.3897 145.261C59.3147 146.003 59.0937 146.723 58.7394 147.379C58.3851 148.036 57.9044 148.617 57.3248 149.088C56.7451 149.56 56.0779 149.913 55.3611 150.128C54.6444 150.343 53.8922 150.415 53.1475 150.34C52.4027 150.266 51.6801 150.046 51.0207 149.693C50.3614 149.34 49.7783 148.861 49.3048 148.284C48.8312 147.706 48.4765 147.042 48.2608 146.328C48.0451 145.614 47.9727 144.865 48.0477 144.123C48.1992 142.625 48.942 141.248 50.1127 140.296C51.2833 139.343 52.786 138.893 54.29 139.044C55.794 139.194 57.1763 139.934 58.1327 141.1C59.0891 142.266 59.5412 143.763 59.3897 145.261ZM100.76 29.516L130.538 29.503C131.753 29.5025 132.918 29.0212 133.777 28.1651C134.636 27.309 135.118 26.1482 135.117 24.938C135.117 23.7278 134.634 22.5674 133.774 21.7121C132.915 20.8567 131.749 20.3765 130.534 20.377L100.756 20.39C100.154 20.3903 99.5586 20.5087 99.0029 20.7383C98.4473 20.9679 97.9424 21.3043 97.5172 21.7282C96.6586 22.5844 96.1766 23.7453 96.1772 24.9555C96.1779 26.1657 96.6612 27.326 97.5208 28.1813C98.3804 29.0366 99.5459 29.5167 100.761 29.516H100.76ZM112.15 47.754L141.927 47.741C143.142 47.7405 144.307 47.2592 145.166 46.4031C146.025 45.547 146.507 44.3862 146.506 43.176C146.506 41.9658 146.023 40.8054 145.163 39.9501C144.304 39.0947 143.138 38.6145 141.923 38.615L112.145 38.628C111.543 38.6283 110.948 38.7467 110.392 38.9763C109.836 39.2059 109.332 39.5423 108.906 39.9662C108.048 40.8224 107.566 41.9833 107.566 43.1935C107.567 44.4037 108.05 45.564 108.91 46.4193C109.77 47.2746 110.935 47.7547 112.15 47.754Z" fill="#DFE7F6"/>
<path fill-rule="evenodd" clip-rule="evenodd" d="M114.521 29.503V29.5L130.281 29.493C129.066 29.4935 127.901 29.9748 127.042 30.8309C126.183 31.687 125.701 32.8478 125.702 34.058C125.702 35.2682 126.186 36.4286 127.045 37.2839C127.905 38.1393 129.07 38.6195 130.285 38.619L114.525 38.626V38.624C115.722 38.5985 116.863 38.1065 117.7 37.2535C118.538 36.4005 119.007 35.2544 119.007 34.061C119.006 32.8677 118.536 31.722 117.698 30.8697C116.859 30.0175 115.718 29.5265 114.521 29.502V29.503ZM186.144 137.723C185.592 143.178 180.704 147.155 175.227 146.605C169.75 146.055 165.758 141.187 166.31 135.732C166.862 130.277 171.75 126.3 177.226 126.85C182.703 127.4 186.696 132.268 186.144 137.723Z" fill="#DFE7F6"/>
<path d="M194.613 158.42L179.382 171.36M180.888 143.772L193.51 150.901L180.888 143.772Z" stroke="#DFE7F6" stroke-width="2"/>
<path fill-rule="evenodd" clip-rule="evenodd" d="M186.289 171.926C186.108 173.72 185.218 175.369 183.816 176.509C182.415 177.65 180.615 178.189 178.814 178.009C177.013 177.828 175.358 176.942 174.213 175.545C173.067 174.149 172.526 172.357 172.707 170.563C172.903 168.781 173.798 167.148 175.197 166.02C176.596 164.891 178.385 164.359 180.176 164.539C181.967 164.719 183.614 165.596 184.759 166.979C185.904 168.363 186.453 170.141 186.288 171.926H186.289ZM204.933 155.285C204.75 157.092 203.854 158.753 202.442 159.902C201.029 161.05 199.217 161.593 197.402 161.411C195.588 161.229 193.921 160.336 192.767 158.929C191.614 157.523 191.069 155.717 191.252 153.91C191.453 152.118 192.356 150.477 193.765 149.344C195.173 148.211 196.974 147.677 198.775 147.858C200.576 148.039 202.233 148.92 203.386 150.311C204.539 151.701 205.095 153.489 204.932 155.285" fill="#DFE7F6"/>
<path fill-rule="evenodd" clip-rule="evenodd" d="M153.598 194.074C153.598 194.66 153.364 195.222 152.948 195.637C152.532 196.051 151.967 196.284 151.379 196.284C150.79 196.284 150.226 196.051 149.81 195.637C149.394 195.222 149.16 194.66 149.16 194.074C149.16 193.488 149.394 192.926 149.81 192.511C150.226 192.097 150.79 191.864 151.379 191.864C151.967 191.864 152.532 192.097 152.948 192.511C153.364 192.926 153.598 193.488 153.598 194.074ZM226.831 118.217C226.831 118.803 226.597 119.366 226.181 119.78C225.765 120.195 225.2 120.427 224.612 120.427C224.023 120.427 223.459 120.195 223.043 119.78C222.626 119.366 222.393 118.803 222.393 118.217C222.393 117.631 222.626 117.068 223.043 116.654C223.459 116.239 224.023 116.007 224.612 116.007C225.2 116.007 225.765 116.239 226.181 116.654C226.597 117.068 226.831 117.631 226.831 118.217V118.217ZM217.955 153.051C217.955 153.637 217.721 154.2 217.305 154.614C216.889 155.029 216.324 155.262 215.736 155.262C215.147 155.262 214.583 155.029 214.166 154.614C213.75 154.2 213.516 153.637 213.516 153.051C213.516 152.465 213.75 151.903 214.166 151.488C214.582 151.074 215.147 150.841 215.735 150.841C216.324 150.841 216.888 151.074 217.304 151.488C217.72 151.903 217.954 152.465 217.954 153.051H217.955ZM178.549 109.842C178.549 110.428 178.315 110.991 177.898 111.405C177.482 111.82 176.917 112.053 176.329 112.053C175.74 112.053 175.175 111.82 174.759 111.405C174.343 110.991 174.109 110.428 174.109 109.842C174.109 109.256 174.343 108.693 174.759 108.279C175.175 107.864 175.74 107.632 176.328 107.632C176.917 107.632 177.481 107.864 177.898 108.279C178.314 108.693 178.548 109.256 178.548 109.842H178.549ZM196.895 94.454C196.895 95.0403 196.662 95.6025 196.245 96.0171C195.829 96.4316 195.265 96.6645 194.676 96.6645C194.087 96.6645 193.523 96.4316 193.107 96.0171C192.691 95.6025 192.457 95.0403 192.457 94.454C192.457 93.8677 192.691 93.3055 193.107 92.8909C193.523 92.4764 194.087 92.2435 194.676 92.2435C195.265 92.2435 195.829 92.4764 196.245 92.8909C196.662 93.3055 196.895 93.8677 196.895 94.454ZM203.652 182.523C203.652 182.813 203.595 183.101 203.483 183.369C203.372 183.637 203.208 183.88 203.002 184.086C202.796 184.291 202.552 184.454 202.282 184.565C202.013 184.676 201.725 184.733 201.433 184.733C201.142 184.733 200.853 184.676 200.584 184.565C200.315 184.454 200.07 184.291 199.864 184.086C199.658 183.88 199.495 183.637 199.383 183.369C199.272 183.101 199.215 182.813 199.215 182.523C199.215 181.937 199.448 181.375 199.864 180.96C200.281 180.546 200.845 180.313 201.433 180.313C202.022 180.313 202.586 180.546 203.002 180.96C203.418 181.375 203.652 181.937 203.652 182.523Z" stroke="#DFE7F6" stroke-width="2"/>
<path d="M222.392 119.404L209.572 127.263L194.283 119.403V96.668M215.982 155.262L214.072 175.337L203.159 181.295L215.982 155.262ZM175.297 176.636L168.949 186.397H157.605L153.104 192.846L175.297 176.636ZM176.575 127.28V111.56V127.28Z" stroke="#DFE7F6" stroke-width="2"/>
<path fill-rule="evenodd" clip-rule="evenodd" d="M181.4 29.32C181.4 13.128 194.578 0 210.837 0C227.094 0 240.273 13.127 240.273 29.32C240.273 45.514 227.094 58.642 210.837 58.642C194.579 58.642 181.4 45.514 181.4 29.321" fill="#A26EF4"/>
<path fill-rule="evenodd" clip-rule="evenodd" d="M222.332 41.706L200.683 41.581C200.453 41.5797 200.226 41.5333 200.014 41.4444C199.802 41.3556 199.61 41.226 199.448 41.0631C199.286 40.9003 199.159 40.7073 199.072 40.4952C198.985 40.2831 198.941 40.056 198.942 39.827L199.014 27.597C199.015 27.368 199.062 27.1415 199.151 26.9304C199.24 26.7193 199.37 26.5277 199.534 26.3667C199.697 26.2057 199.891 26.0784 200.104 25.9919C200.317 25.9055 200.545 25.8617 200.775 25.863L222.423 25.988C223.39 25.994 224.17 26.779 224.164 27.743L224.093 39.972C224.092 40.201 224.045 40.4276 223.956 40.6386C223.867 40.8497 223.737 41.0413 223.573 41.2023C223.41 41.3633 223.216 41.4907 223.003 41.5771C222.79 41.6635 222.562 41.7073 222.332 41.706Z" fill="white"/>
<path fill-rule="evenodd" clip-rule="evenodd" d="M215.963 29.192C215.948 31.769 213.906 33.846 211.402 33.832C208.898 33.818 206.88 31.717 206.895 29.139L206.935 22.214C206.951 19.637 208.993 17.56 211.496 17.574C214 17.589 216.018 19.69 216.004 22.267L215.963 29.192ZM211.415 15.118C209.584 15.1076 207.824 15.8221 206.522 17.1043C205.219 18.3864 204.482 20.1313 204.471 21.955L204.428 29.323C204.423 30.2261 204.596 31.1214 204.938 31.9578C205.28 32.7941 205.785 33.5552 206.422 34.1975C207.709 35.4947 209.461 36.2294 211.292 36.24C213.124 36.2506 214.884 35.5362 216.186 34.2541C217.489 32.9719 218.226 31.2269 218.237 29.403L218.279 22.035C218.29 20.2112 217.572 18.4579 216.285 17.1608C214.998 15.8636 213.246 15.1288 211.415 15.118ZM168.234 68.367H164.288C163.033 68.3636 161.83 67.8655 160.943 66.9816C160.056 66.0978 159.556 64.9 159.552 63.65C159.556 62.4 160.056 61.2022 160.943 60.3184C161.83 59.4345 163.033 58.9364 164.288 58.933H168.234C169.489 58.9364 170.691 59.4345 171.578 60.3184C172.466 61.2022 172.966 62.4 172.969 63.65C172.966 64.9 172.466 66.0978 171.578 66.9816C170.691 67.8655 169.489 68.3636 168.234 68.367Z" fill="white"/>
<path fill-rule="evenodd" clip-rule="evenodd" d="M168.884 248.838C167.124 248.838 165.436 248.141 164.191 246.901C162.947 245.662 162.248 243.98 162.248 242.227V176.119C162.269 174.38 162.978 172.719 164.22 171.497C165.463 170.275 167.138 169.589 168.885 169.589C170.631 169.589 172.307 170.275 173.549 171.497C174.791 172.719 175.5 174.38 175.521 176.119V242.227C175.521 243.98 174.822 245.661 173.577 246.901C172.333 248.14 170.645 248.837 168.885 248.837" fill="#5BA02E"/>
<path fill-rule="evenodd" clip-rule="evenodd" d="M176.849 248.176C175.089 248.176 173.401 247.479 172.156 246.24C170.912 245 170.213 243.319 170.212 241.566V208.512C170.202 207.637 170.365 206.769 170.694 205.957C171.023 205.146 171.51 204.407 172.127 203.785C172.745 203.162 173.48 202.668 174.29 202.331C175.101 201.993 175.971 201.82 176.849 201.82C177.728 201.82 178.597 201.993 179.408 202.331C180.219 202.668 180.954 203.162 181.571 203.785C182.189 204.407 182.676 205.146 183.005 205.957C183.333 206.769 183.497 207.637 183.486 208.512V241.565C183.486 243.318 182.787 245 181.542 246.239C180.298 247.479 178.61 248.176 176.85 248.176" fill="#92C110"/>
<path fill-rule="evenodd" clip-rule="evenodd" d="M186.735 293.89H159.25C158.406 293.89 157.596 293.556 156.999 292.962C156.403 292.367 156.067 291.561 156.067 290.72V244.833C156.067 243.992 156.403 243.186 156.999 242.591C157.596 241.997 158.406 241.663 159.25 241.663H186.735C187.579 241.663 188.389 241.997 188.985 242.591C189.582 243.186 189.918 243.992 189.918 244.833V290.719C189.918 291.56 189.582 292.366 188.985 292.961C188.389 293.555 187.579 293.889 186.735 293.889" fill="#F2D7AD"/>
<path fill-rule="evenodd" clip-rule="evenodd" d="M82.2986 147.673C82.2986 147.673 88.701 146.746 99.9346 146.393C111.71 146.022 117.575 147.479 117.575 147.479C117.575 147.479 121.286 143.624 118.546 139.055C119.83 126.978 124.552 106.228 118.883 90.782C117.762 89.443 115.125 89.27 111.317 90.162C109.974 90.477 104.141 90.013 103.302 90.062L87.93 89.715C87.93 89.715 84.4291 89.545 79.863 89.207C78.3449 89.094 75.6191 87.524 74.3832 88.869C73.9756 89.312 71.9486 94.538 72.4054 104.946L81.0748 140.588C81.0748 140.588 77.9213 144.198 82.2986 147.673Z" fill="white"/>
<path fill-rule="evenodd" clip-rule="evenodd" d="M76.0698 73.325L75.1663 66.928L87.196 60.408C87.196 60.408 94.5271 60.29 95.266 61.613C96.006 62.937 89.6277 62.606 89.6277 62.606C89.6277 62.606 87.7843 63.994 87.0022 65.106C85.3416 67.469 86.0123 71.577 78.6511 71.092C76.9363 71.376 76.0709 73.325 76.0709 73.325" fill="#FFC6A0"/>
<path fill-rule="evenodd" clip-rule="evenodd" d="M52.6489 77.672C52.6489 77.672 66.9226 87.078 77.7214 92.116C78.7867 92.613 75.6191 108.299 65.782 103.927C58.3164 100.609 45.5397 95.487 44.2145 89.431C43.5016 86.173 46.7676 81.788 52.6489 77.671V77.672ZM142.427 80.113C142.427 80.113 135.708 83.112 128.528 86.989C124.619 89.099 118.351 91.693 116.149 94.977C109.9 104.291 119.699 106.197 129.147 102.48C135.884 99.829 158.262 90.353 142.427 80.113Z" fill="#FFB594"/>
<path fill-rule="evenodd" clip-rule="evenodd" d="M76.4695 66.36L79.5417 70.241C79.5417 70.241 76.7476 72.911 73.2065 75.988C66.0752 82.183 60.3525 90.284 57.1478 92.428C53.166 95.09 47.3549 95.742 44.9223 92.31C41.3551 87.278 45.3881 77.682 76.4695 66.36Z" fill="#FFC6A0"/>
<path fill-rule="evenodd" clip-rule="evenodd" d="M64.9316 85.116C64.9316 85.116 62.5823 93.529 55.9841 99.563C56.6387 100.111 74.6442 110.073 78.2164 109.619C83.4752 108.95 84.6589 90.651 79.3659 89.088C78.6611 88.88 73.4414 87.802 70.4776 86.921C69.6042 86.661 68.8602 85.211 66.9185 85.985L64.9306 85.116H64.9316ZM128.873 85.826C128.873 85.826 134.213 87.782 136.228 99.56C135.679 99.834 118.608 111.91 114.312 107.365C107.752 100.425 113.543 89.972 118.604 88.755C123.268 87.634 123.654 87.385 128.874 85.826" fill="white"/>
<path d="M78.4915 94.656C78.4915 94.656 79.4061 102.066 73.5579 107.734" stroke="#E4EBF7" stroke-width="1.051" stroke-linecap="round" stroke-linejoin="round"/>
<path d="M87.7452 94.68C87.7452 94.68 90.8817 97.252 98.0491 97.252C105.218 97.252 107.159 93.815 107.159 93.815" stroke="#E4EBF7" stroke-width="0.932" stroke-linecap="round" stroke-linejoin="round"/>
<path fill-rule="evenodd" clip-rule="evenodd" d="M117.651 68.639L110.843 62.462C110.843 62.462 105.467 58.148 101.583 61.569C97.7007 64.991 106.064 63.652 107.259 65.734C108.453 67.816 108.11 66.877 105.167 66.18C99.542 64.849 103.077 67.073 108.154 71.535C110.254 73.38 115.174 72.49 115.174 72.49L117.651 68.639Z" fill="#FFC6A0"/>
<path fill-rule="evenodd" clip-rule="evenodd" d="M105.701 91.315L105.403 80.378L89.4219 80.351L88.8898 90.801C88.8637 91.204 89.0604 91.589 89.4068 91.8C91.464 93.051 98.8312 96.893 105.269 92.224C105.557 92.014 105.714 91.67 105.701 91.314" fill="#FFB594"/>
<path fill-rule="evenodd" clip-rule="evenodd" d="M108.002 74.24C108.822 73.093 108.987 65.122 109.021 62.312C109.024 62.0465 108.925 61.7898 108.745 61.5939C108.565 61.398 108.318 61.2775 108.052 61.257L103.413 60.892C95.6726 59.848 86.2743 61.516 85.0876 67.238C79.5838 73.051 84.6649 80.482 84.6649 80.482C84.6649 80.482 86.6358 84.048 88.9871 87.273C89.7461 88.314 89.3867 83.542 92.0392 81.344C97.5852 76.75 108.002 74.241 108.002 74.241" fill="#5C2552"/>
<path fill-rule="evenodd" clip-rule="evenodd" d="M88.7783 83.206C88.7783 83.206 91.474 89.408 100.427 89.728C108.278 90.008 109.435 82.72 107.89 72.223L106.978 66.74C100.835 63.843 91.4378 67.28 91.4378 67.28C91.4378 67.28 90.8596 69.324 91.2471 72.784C88.962 74.85 89.4158 78.402 89.4158 78.402C89.4158 78.402 88.5072 76.48 87.4279 76.081C86.5645 75.761 85.5234 76.17 85.0967 78.061C84.0525 82.693 88.7783 83.206 88.7783 83.206Z" fill="#FFC6A0"/>
<path d="M101.245 77.099L102.953 76.171L101.933 71.847L102.61 70.441" stroke="#DB836E" stroke-width="1.145" stroke-linecap="round" stroke-linejoin="round"/>
<path fill-rule="evenodd" clip-rule="evenodd" d="M105.967 74.092C105.944 74.805 105.513 75.371 105.003 75.355C104.491 75.339 104.095 74.748 104.117 74.035C104.138 73.322 104.571 72.757 105.081 72.772C105.593 72.788 105.989 73.379 105.967 74.092ZM97.9809 74.349C97.9588 75.062 97.5271 75.627 97.016 75.612C96.505 75.596 96.1084 75.005 96.1305 74.292C96.1526 73.579 96.5843 73.013 97.0953 73.029C97.6074 73.045 98.0029 73.635 97.9809 74.349Z" fill="#552950"/>
<path d="M91.4951 86.786C91.4951 86.786 96.7851 91.743 104.225 89.113" stroke="#DB836E" stroke-width="1.145" stroke-linecap="round" stroke-linejoin="round"/>
<path fill-rule="evenodd" clip-rule="evenodd" d="M100.173 81.903C100.173 81.903 96.5672 82.135 98.7277 79.113C100.324 77.617 103.644 78.653 103.644 78.653C103.644 78.653 104.805 82.559 100.173 81.903Z" fill="#DB836E"/>
<path d="M94.2571 71.975C94.2571 71.975 96.759 70.831 99.0541 70.902M103.29 70.6C103.29 70.6 105.783 71.44 106.705 71.315L103.29 70.6Z" stroke="#5C2552" stroke-width="1.526" stroke-linecap="round" stroke-linejoin="round"/>
<path d="M99.7328 83.719C99.7328 83.719 101.651 83.87 102.252 83.465M86.6639 77.374C86.6639 77.374 87.6288 78.253 88.1277 79.48C87.7492 79.96 87.0906 80.632 87.8908 81.289L86.6639 77.374Z" stroke="#DB836E" stroke-width="1.145" stroke-linecap="round" stroke-linejoin="round"/>
<path d="M100.564 115.821L110.644 113.813M88.1317 115.821L103.924 112.809L88.1317 115.821Z" stroke="#E4EBF7" stroke-width="1.051" stroke-linecap="round" stroke-linejoin="round"/>
<path d="M66.773 86.763C66.773 86.763 65.1686 95.593 60.0493 100.841" stroke="#E4EBF7" stroke-width="1.114" stroke-linecap="round" stroke-linejoin="round"/>
<path d="M128.821 87.934C128.821 87.934 131.846 92.055 132.897 99.719" stroke="#E4EBF7" stroke-width="1.051" stroke-linecap="round" stroke-linejoin="round"/>
<path d="M64.3453 84.816C64.3453 84.816 58.2913 94.728 50.6841 94.719" stroke="#DB836E" stroke-width="0.795" stroke-linecap="round" stroke-linejoin="round"/>
<path fill-rule="evenodd" clip-rule="evenodd" d="M112.814 65.909L112.671 71.229C112.671 71.229 118.688 75.701 124.664 80.431C129.164 83.993 133.587 87.886 135.693 89.093C140.516 91.859 144.628 92.448 146.813 90.901C150.9 88.007 151.203 81.023 138.644 75.638C134.356 73.8 122.436 69.278 112.814 65.908" fill="#FFC6A0"/>
<path d="M131.052 85.488C131.052 85.488 135.658 91.245 142.717 91.702" stroke="#DB836E" stroke-width="0.75" stroke-linecap="round" stroke-linejoin="round"/>
<path d="M122.193 105.73C122.193 105.73 121.798 114.294 120.848 119.342" stroke="#E4EBF7" stroke-width="1.051" stroke-linecap="round" stroke-linejoin="round"/>
<path d="M116.245 161.512C116.245 161.512 112.661 160.024 113.557 154.372" stroke="#648BD8" stroke-width="1.051" stroke-linecap="round" stroke-linejoin="round"/>
<path fill-rule="evenodd" clip-rule="evenodd" d="M101.924 290.246C101.924 290.246 106.268 292.303 109.362 291.276C112.215 290.328 113.944 291.949 116.522 292.462C119.103 292.976 123.475 293.57 128.341 291.193C128.237 285.642 121.375 287.183 116.245 284.43C113.653 283.04 112.418 279.673 112.606 275.567H103.097C103.097 275.567 101.69 286.163 101.923 290.247" fill="#CBD1D1"/>
<path fill-rule="evenodd" clip-rule="evenodd" d="M101.9 290.073C101.9 290.073 104.357 291.354 108.737 290.731C111.83 290.291 112.491 291.216 116.245 291.77C119.999 292.324 127.09 291.7 128.203 290.87C128.619 291.978 127.854 292.947 127.854 292.947C127.854 292.947 126.325 293.555 122.988 293.778C120.935 293.915 117.122 294.071 115.295 293.271C113.487 291.886 109.987 291.354 109.502 293.028C105.539 293.986 102.062 292.74 102.062 292.74L101.901 290.073H101.9Z" fill="#2B0849"/>
<path fill-rule="evenodd" clip-rule="evenodd" d="M109.258 276.19H112.386C112.386 276.19 112.283 282.941 116.974 284.81C112.283 285.434 108.32 282.49 109.258 276.19Z" fill="#A4AABA"/>
<path fill-rule="evenodd" clip-rule="evenodd" d="M57.8797 272.52C57.8797 272.52 55.7492 279.99 53.3437 284.916C51.5254 288.64 49.0717 292.464 58.8706 292.464C65.5953 292.464 67.9265 291.981 66.3794 285.816C64.8322 279.652 66.6485 272.52 66.6485 272.52H57.8797Z" fill="#CBD1D1"/>
<path fill-rule="evenodd" clip-rule="evenodd" d="M51.7454 290.04C51.7454 290.04 53.8648 291.218 58.454 291.218C64.6064 291.218 66.7971 289.556 66.7971 289.556C66.7971 289.556 67.4045 290.678 66.1706 291.736C65.1666 292.598 62.5322 293.339 58.697 293.295C54.5033 293.246 52.7976 292.725 51.8839 292.118C51.0496 291.564 51.1892 290.525 51.7454 290.04Z" fill="#2B0849"/>
<path fill-rule="evenodd" clip-rule="evenodd" d="M58.7662 274.438C58.7662 274.438 58.8004 275.967 58.45 277.388C58.0966 278.819 57.3587 280.515 57.3065 281.558C57.2482 282.718 61.8947 283.15 62.5211 281.593C63.1466 280.034 63.8293 275.118 64.4558 274.287C65.0803 273.456 59.4961 272.152 58.7662 274.437" fill="#A4AABA"/>
<path fill-rule="evenodd" clip-rule="evenodd" d="M101.287 277.015L114.646 277.107C114.646 277.107 115.942 222.879 116.496 213.051C117.05 203.223 120.267 169.921 117.497 150.263L104.968 149.623L82.152 150.399C82.152 150.399 81.7173 154.343 80.9573 160.32C80.895 160.813 80.2776 161.158 80.2103 161.678C80.135 162.26 80.632 163.025 80.5296 163.634C78.1702 177.637 74.1613 196.56 71.7979 210.059C71.6814 210.722 70.566 211.063 70.3421 212.736C70.302 213.036 70.553 214.252 70.4546 214.521C63.5913 233.164 59.5212 262.105 56.198 276.072L70.7839 276.058C70.7839 276.058 72.9776 267.534 74.8079 259.18C77.615 246.363 97.8864 174.627 97.8864 174.627L100.898 174.11L101.94 220.21C101.94 220.21 101.716 221.438 102.275 222.218C102.835 223 101.717 223.335 101.883 224.451L102.275 226.235C102.275 226.235 101.827 233.375 101.379 238.061C100.932 242.746 101.287 277.015 101.287 277.015Z" fill="#7BB2F9"/>
<path d="M107.979 223.931C107.979 223.931 110.748 222.828 114.072 220.069M77.7466 220.434C78.8971 220.528 81.7786 218.426 84.6901 215.524L77.7466 220.434Z" stroke="#648BD8" stroke-width="1.051" stroke-linecap="round" stroke-linejoin="round"/>
<path d="M108.891 220.905C108.891 220.905 111.661 219.801 114.985 217.042" stroke="#648BD8" stroke-linecap="round" stroke-linejoin="round"/>
<path d="M57.8094 272.94H71.1002M76.4022 223.557C76.4022 223.557 79.0206 222.97 82.898 220.211L76.4022 223.557ZM87.678 150.82C87.4069 153.908 87.9762 159.298 83.3458 159.893L87.678 150.82ZM105.247 149.075C105.247 149.075 105.357 163.011 103.956 164.058C101.74 165.713 100.969 165.992 100.969 165.992L105.247 149.075ZM101.416 149.63C101.416 149.63 101.452 162.44 100.222 173.875L101.416 149.63ZM95.3082 174.965C95.3082 174.965 102.511 173.31 104.726 173.31L95.3082 174.965ZM75.9725 204.754C75.6553 206.304 75.33 207.821 74.9956 209.289C74.9956 209.289 73.5399 211.111 73.9886 213.045C74.4364 214.979 73.0419 215.079 69.0089 228.318C67.3162 233.877 64.5271 246.808 62.6707 255.765C62.5924 256.145 58.6367 273.825 58.5614 274.188L75.9725 204.754ZM77.35 196.743C77.0686 198.322 76.7751 199.898 76.4695 201.472L77.35 196.743ZM84.2423 151.414L83.0476 161.827C83.0476 161.827 81.9522 161.975 82.5496 164.057C82.6611 165.397 79.879 179.749 77.3761 194.324L84.2423 151.414Z" stroke="#648BD8" stroke-width="1.051" stroke-linecap="round" stroke-linejoin="round"/>
<path fill-rule="evenodd" clip-rule="evenodd" d="M117.845 147.423C117.845 147.423 100.822 144.336 82.0024 147.622C82.16 150.123 82.0004 151.75 82.0004 151.75C82.0004 151.75 96.6656 148.948 117.618 151.44C117.87 149.098 117.845 147.423 117.845 147.423Z" fill="#192064"/>
<path fill-rule="evenodd" clip-rule="evenodd" d="M107.939 150.353L107.943 145.468C107.944 145.259 107.864 145.058 107.719 144.907C107.574 144.756 107.376 144.667 107.166 144.658C104.729 144.566 102.106 144.55 99.3402 144.644C99.1294 144.652 98.9298 144.74 98.7831 144.891C98.6364 145.042 98.554 145.244 98.5531 145.454L98.55 150.334C98.55 150.79 98.9225 151.154 99.3803 151.142C101.953 151.078 104.527 151.083 107.099 151.159C107.208 151.163 107.316 151.144 107.418 151.106C107.519 151.067 107.612 151.008 107.69 150.933C107.769 150.858 107.831 150.768 107.874 150.668C107.917 150.568 107.939 150.461 107.939 150.353Z" fill="white"/>
<path fill-rule="evenodd" clip-rule="evenodd" d="M106.826 149.426L106.828 146.366C106.829 146.2 106.765 146.04 106.649 145.92C106.534 145.8 106.376 145.729 106.21 145.723C104.258 145.66 102.304 145.657 100.352 145.714C100.184 145.719 100.025 145.789 99.9079 145.909C99.7907 146.029 99.7247 146.19 99.7238 146.357L99.7228 149.413C99.7228 149.773 100.015 150.061 100.376 150.053C102.163 150.013 104.099 150.012 106.161 150.065C106.523 150.074 106.826 149.786 106.826 149.425" fill="#192064"/>
<path d="M102.611 174.024L103.508 218.426C103.508 218.426 104.179 219.987 103.283 221.103C102.387 222.219 105.748 221.773 104.179 223.334C102.611 224.896 105.076 224.45 104.179 226.681C103.585 228.161 103.187 247.668 103.085 261.637M101.889 273.933H114.21H101.889ZM103.061 269.075C103.067 272.443 103.101 274.834 103.171 275.545L103.061 269.075ZM103.076 263.125C103.067 264.655 103.061 266.105 103.06 267.438L103.076 263.125Z" stroke="#648BD8" stroke-width="1.051" stroke-linecap="round" stroke-linejoin="round"/>
</svg>
