<svg width="253" height="294" style="height: 294px;" viewBox="0 0 253 294" fill="none" xmlns="http://www.w3.org/2000/svg">
<path fill-rule="evenodd" clip-rule="evenodd" d="M48.7794 166.056C48.6787 167.144 48.3636 168.201 47.8523 169.167C47.3409 170.132 46.6435 170.987 45.8003 171.681C44.957 172.376 43.9846 172.897 42.9391 173.214C41.8935 173.53 40.7956 173.637 39.7087 173.528C38.6217 173.418 37.5672 173.094 36.6059 172.575C35.6447 172.056 34.7957 171.352 34.1081 170.503C33.4204 169.654 32.9076 168.677 32.5992 167.629C32.2908 166.581 32.193 165.483 32.3114 164.396C32.548 162.226 33.6327 160.237 35.3292 158.863C37.0256 157.488 39.1964 156.84 41.3687 157.059C43.541 157.278 45.5388 158.347 46.9268 160.032C48.3149 161.717 48.9808 163.882 48.7794 166.056Z" fill="#DFE7F6"/>
<path d="M57.3975 181.724L44.7495 192.512M45.9995 169.513L56.4815 175.456L45.9995 169.513Z" stroke="#DFE7F6" stroke-width="2"/>
<path fill-rule="evenodd" clip-rule="evenodd" d="M48.8993 194.569C48.7487 196.064 48.0101 197.438 46.8462 198.389C45.6822 199.34 44.1882 199.79 42.6928 199.639C41.1974 199.488 39.823 198.75 38.8721 197.586C37.9212 196.422 37.4717 194.928 37.6223 193.433C37.6969 192.692 37.9166 191.974 38.2689 191.318C38.6211 190.662 39.0991 190.083 39.6754 189.612C40.2517 189.141 40.9152 188.788 41.6278 188.574C42.3404 188.359 43.0883 188.287 43.8288 188.362C44.5693 188.437 45.2878 188.656 45.9433 189.009C46.5989 189.361 47.1786 189.839 47.6495 190.415C48.1203 190.991 48.473 191.655 48.6875 192.368C48.9019 193.08 48.9739 193.828 48.8993 194.569ZM66.6123 178.464C66.5432 179.214 66.3262 179.944 65.9737 180.61C65.6212 181.276 65.1402 181.866 64.5585 182.345C63.9768 182.825 63.3059 183.184 62.5846 183.403C61.8633 183.622 61.1058 183.695 60.3558 183.62C59.6058 183.544 58.8783 183.321 58.2151 182.962C57.5519 182.604 56.9663 182.118 56.492 181.532C56.0177 180.946 55.6641 180.272 55.4517 179.549C55.2393 178.826 55.1722 178.068 55.2543 177.319C55.4183 175.822 56.1667 174.451 57.3366 173.504C58.5065 172.557 60.0032 172.11 61.5008 172.261C62.9985 172.412 64.3759 173.149 65.3332 174.31C66.2905 175.472 66.7502 176.965 66.6123 178.464Z" fill="#DFE7F6"/>
<path d="M234.91 105.013L205.09 105.027C204.487 105.027 203.89 104.909 203.334 104.678C202.777 104.448 202.271 104.11 201.845 103.684C201.419 103.258 201.081 102.753 200.85 102.196C200.619 101.639 200.5 101.043 200.5 100.44C200.5 99.8379 200.618 99.2412 200.849 98.6845C201.079 98.1278 201.417 97.6219 201.843 97.1957C202.269 96.7696 202.774 96.4315 203.331 96.2007C203.887 95.97 204.484 95.8511 205.087 95.8509L234.907 95.8379C235.509 95.8377 236.106 95.9562 236.662 96.1865C237.219 96.4169 237.725 96.7546 238.151 97.1805C238.577 97.6063 238.915 98.1119 239.146 98.6684C239.376 99.2249 239.495 99.8215 239.495 100.424C239.496 101.026 239.377 101.623 239.147 102.18C238.917 102.736 238.579 103.242 238.153 103.668C237.727 104.094 237.221 104.432 236.665 104.663C236.108 104.894 235.512 105.013 234.91 105.013Z" fill="#DFE7F6"/>
<path d="M246.316 123.35L216.496 123.363C215.893 123.363 215.296 123.245 214.74 123.014C214.183 122.784 213.677 122.446 213.251 122.021C212.825 121.595 212.487 121.089 212.256 120.533C212.025 119.976 211.906 119.38 211.906 118.777C211.906 118.175 212.024 117.578 212.254 117.022C212.485 116.465 212.822 115.959 213.248 115.533C213.674 115.107 214.18 114.769 214.736 114.538C215.293 114.307 215.889 114.188 216.492 114.188L246.312 114.175C247.516 114.192 248.666 114.683 249.512 115.541C250.359 116.399 250.833 117.555 250.834 118.76C250.834 119.966 250.361 121.122 249.515 121.981C248.67 122.84 247.52 123.332 246.316 123.35Z" fill="#DFE7F6"/>
<path fill-rule="evenodd" clip-rule="evenodd" d="M33.2685 113.676C32.7155 119.161 27.8215 123.159 22.3375 122.606C16.8525 122.053 12.8546 117.158 13.4076 111.674C13.9596 106.189 18.8545 102.191 24.3395 102.744C29.8245 103.297 33.8225 108.191 33.2696 113.676" fill="#DFE7F6"/>
<path fill-rule="evenodd" clip-rule="evenodd" d="M52.7436 35.3562C58.2286 35.9092 62.2266 40.8032 61.6736 46.2872C61.1206 51.7722 56.2256 55.7702 50.7416 55.2172C45.2566 54.6652 41.2586 49.7702 41.8116 44.2852C42.3646 38.8002 47.2586 34.8022 52.7436 35.3552" fill="#DFE7F6"/>
<path d="M213.708 105.018V105.016L229.356 105.01C229.402 105.009 229.447 105.009 229.492 105.01L229.356 105.01C228.794 105.018 228.238 105.13 227.716 105.34C227.152 105.566 226.638 105.903 226.205 106.33C225.772 106.757 225.428 107.266 225.193 107.827C224.959 108.388 224.838 108.99 224.838 109.599C224.838 110.207 224.959 110.809 225.194 111.37C225.429 111.931 225.774 112.439 226.207 112.866C226.64 113.293 227.154 113.629 227.719 113.856C228.242 114.065 228.798 114.177 229.361 114.185L229.495 114.185C229.45 114.185 229.406 114.185 229.361 114.185L213.712 114.192V114.19C214.929 114.189 216.095 113.705 216.954 112.845C217.814 111.984 218.297 110.818 218.296 109.602C218.296 108.385 217.812 107.219 216.952 106.359C216.091 105.5 214.925 105.017 213.708 105.018Z" fill="#DFE7F6"/>
<path d="M41.7516 134.485L26.4966 147.496M28.0056 119.758L40.6456 126.925L28.0056 119.758Z" stroke="#DFE7F6" stroke-width="2"/>
<path d="M73.5527 26.8732L86.5637 42.1282M58.8257 40.6192L65.9927 27.9792L58.8257 40.6192Z" stroke="#DFE7F6" stroke-width="2"/>
<path fill-rule="evenodd" clip-rule="evenodd" d="M33.4137 148.065C33.3336 148.966 33.0756 149.842 32.6545 150.642C32.2334 151.443 31.6576 152.151 30.9605 152.728C30.2635 153.304 29.4589 153.736 28.5936 153.999C27.7283 154.262 26.8193 154.351 25.9195 154.26C25.0196 154.17 24.1467 153.901 23.3513 153.47C22.556 153.04 21.854 152.456 21.2861 151.752C20.7181 151.048 20.2956 150.238 20.0428 149.37C19.7901 148.501 19.7122 147.592 19.8137 146.693C20.0155 144.906 20.9137 143.27 22.3136 142.14C23.7134 141.011 25.502 140.479 27.2916 140.659C29.0811 140.84 30.7274 141.719 31.8734 143.105C33.0195 144.491 33.5729 146.273 33.4137 148.065ZM52.0857 131.333C52.0019 132.238 51.7398 133.117 51.3144 133.921C50.889 134.724 50.3088 135.435 49.6072 136.013C48.9056 136.591 48.0965 137.024 47.2266 137.288C46.3568 137.551 45.4433 137.64 44.5389 137.549C43.6346 137.458 42.7572 137.188 41.9575 136.756C41.1578 136.324 40.4516 135.738 39.8795 135.032C39.3075 134.325 38.881 133.513 38.6246 132.641C38.3682 131.769 38.287 130.854 38.3857 129.951C38.5829 128.145 39.4855 126.491 40.8968 125.348C42.3082 124.205 44.114 123.666 45.921 123.848C47.728 124.031 49.3897 124.919 50.5444 126.321C51.699 127.723 52.253 129.524 52.0857 131.333Z" fill="#DFE7F6"/>
<path fill-rule="evenodd" clip-rule="evenodd" d="M87.1327 35.2111C88.0336 35.2911 88.9096 35.5492 89.71 35.9703C90.5105 36.3914 91.2194 36.9671 91.7956 37.6642C92.3719 38.3613 92.8041 39.1658 93.0672 40.0312C93.3303 40.8965 93.419 41.8054 93.3282 42.7053C93.2374 43.6052 92.9689 44.4781 92.5383 45.2734C92.1077 46.0688 91.5235 46.7707 90.8197 47.3387C90.1158 47.9066 89.3062 48.3292 88.4378 48.5819C87.5694 48.8347 86.6594 48.9126 85.7607 48.8111C83.9734 48.6092 82.3377 47.711 81.2083 46.3112C80.0788 44.9114 79.5467 43.1228 79.7272 41.3332C79.9078 39.5436 80.7864 37.8973 82.1727 36.7513C83.559 35.6053 85.3411 35.0519 87.1327 35.2111ZM70.4007 16.5391C71.3058 16.6228 72.1853 16.8849 72.9886 17.3103C73.7918 17.7357 74.5029 18.3159 75.0808 19.0175C75.6587 19.7191 76.0919 20.5282 76.3555 21.3981C76.6191 22.268 76.7078 23.1815 76.6166 24.0858C76.5254 24.9902 76.256 25.8675 75.824 26.6672C75.3919 27.4669 74.8058 28.1732 74.0995 28.7452C73.3931 29.3173 72.5805 29.7438 71.7085 30.0002C70.8364 30.2566 69.9223 30.3378 69.0187 30.2391C67.2133 30.0418 65.5589 29.1393 64.4159 27.7279C63.2729 26.3166 62.7339 24.5107 62.9161 22.7038C63.0984 20.8968 63.9873 19.235 65.3891 18.0804C66.791 16.9257 68.5923 16.3717 70.4007 16.5391Z" fill="#DFE7F6"/>
<path fill-rule="evenodd" clip-rule="evenodd" d="M29.381 48.0707H25.43C24.1733 48.0673 22.9691 47.5666 22.0804 46.6781C21.1916 45.7895 20.6907 44.5854 20.687 43.3287C20.6904 42.0718 21.1913 40.8674 22.08 39.9787C22.9687 39.0899 24.1731 38.5891 25.43 38.5857H29.381C30.6379 38.5891 31.8423 39.0899 32.731 39.9787C33.6198 40.8674 34.1206 42.0718 34.124 43.3287C34.1203 44.5854 33.6194 45.7895 32.7307 46.6781C31.842 47.5666 30.6377 48.0673 29.381 48.0707Z" fill="#DFE7F6"/>
<path d="M35.6547 159.405L25.8362 147.583M45.4348 196.797L55.0163 206.524M63.5816 174.15L71.421 165.44" stroke="#DFE7F6" stroke-width="2"/>
<path d="M58.1233 208.378C58.2322 208.103 58.285 207.809 58.2788 207.513C58.2664 206.931 58.0268 206.378 57.6114 205.971C57.1959 205.565 56.6377 205.337 56.0563 205.337C55.4748 205.337 54.9166 205.565 54.5011 205.971C54.0857 206.378 53.8461 206.931 53.8338 207.513C53.8275 207.809 53.8803 208.103 53.9892 208.378C54.0981 208.653 54.2608 208.904 54.4678 209.115C54.6748 209.326 54.9219 209.494 55.1947 209.609C55.4674 209.724 55.7604 209.783 56.0563 209.783C56.3522 209.783 56.6451 209.724 56.9178 209.609C57.1906 209.494 57.4377 209.326 57.6447 209.115C57.8517 208.904 58.0144 208.653 58.1233 208.378Z" stroke="#DFE7F6" stroke-width="2"/>
<path d="M26.9597 146.545C27.0686 146.27 27.1215 145.976 27.1152 145.68C27.1029 145.099 26.8633 144.545 26.4478 144.139C26.0324 143.732 25.4741 143.504 24.8927 143.504C24.3113 143.504 23.753 143.732 23.3375 144.139C22.9221 144.545 22.6825 145.099 22.6702 145.68C22.6639 145.976 22.7167 146.27 22.8256 146.545C22.9345 146.82 23.0972 147.071 23.3042 147.282C23.5112 147.494 23.7583 147.662 24.0311 147.776C24.3039 147.891 24.5968 147.95 24.8927 147.95C25.1886 147.95 25.4815 147.891 25.7543 147.776C26.027 147.662 26.2742 147.494 26.4812 147.282C26.6882 147.071 26.8509 146.82 26.9597 146.545Z" stroke="#DFE7F6" stroke-width="2"/>
<path d="M74.812 164.59C74.9209 164.315 74.9738 164.021 74.9675 163.725C74.9551 163.144 74.7156 162.59 74.3001 162.184C73.8846 161.777 73.3264 161.549 72.745 161.549C72.1636 161.549 71.6053 161.777 71.1898 162.184C70.7744 162.59 70.5348 163.144 70.5225 163.725C70.5162 164.021 70.569 164.315 70.6779 164.59C70.7868 164.865 70.9495 165.116 71.1565 165.327C71.3635 165.539 71.6106 165.707 71.8834 165.821C72.1562 165.936 72.4491 165.995 72.745 165.995C73.0409 165.995 73.3338 165.936 73.6065 165.821C73.8793 165.707 74.1264 165.539 74.3334 165.327C74.5404 165.116 74.7032 164.865 74.812 164.59Z" stroke="#DFE7F6" stroke-width="2"/>
<path d="M200.901 208.017L203.84 258.335H202.284L197.097 208.017H122.744L117.902 258.335H116L119.631 208.017H122.744H197.097H200.901Z" fill="#EFC66E"/>
<rect x="116" y="204.853" width="87.8402" height="3.16355" fill="#EFC66E"/>
<rect x="116" y="208.017" width="87.8402" height="0.717357" fill="#C49C45"/>
<path d="M144.344 172.742C148.131 176.528 150.498 176.79 152.916 175.172C155.334 173.554 155.027 171.829 152.916 167.241C150.805 162.652 143.577 147.027 141.146 145.748C138.715 144.468 133.934 143.894 131.551 147.027C129.168 150.16 130.445 153.096 131.551 155.47C132.657 157.845 140.558 168.955 144.344 172.742Z" fill="#559B27"/>
<path d="M160.138 164.573C156.865 163.263 157.411 156.844 157.411 150.297C157.411 143.75 157.593 141.113 158.866 134.203C160.138 127.292 168.322 113.562 172.596 111.471C176.869 109.38 184.507 108.47 188.053 116.108C191.599 123.746 186.053 134.112 182.598 137.294C179.142 140.477 174.141 156.207 171.868 160.481C169.595 164.755 164.23 166.209 160.138 164.573Z" fill="#559B27"/>
<path d="M172.022 156.275C169.445 158.236 165.812 164.656 164.318 167.621C163.665 169.582 163.016 173.837 165.649 175.172C168.941 176.841 174.613 169.231 176.154 167.24C177.695 165.25 183.997 154.595 182.037 153.404C180.076 152.214 175.243 153.824 172.022 156.275Z" fill="#88B22A"/>
<path d="M158.673 151.249C161.027 159.232 158.716 164.554 157.266 166.217C156.882 166.558 155.679 167.24 153.939 167.24C151.764 167.24 147.926 162.379 146.647 157.645C145.368 152.912 136.668 138.583 133.982 133.978C131.295 129.372 130.272 120.545 138.715 121.184C147.159 121.824 155.73 141.27 158.673 151.249Z" fill="#88B22A"/>
<path d="M146.135 163.147C148.651 165.961 153.427 172.609 153.427 176.708C153.427 180.953 153.342 182.468 153.427 182.894M156.965 181.907C156.93 177.799 156.517 168.209 155.144 162.719C153.771 157.228 149.903 148.292 148.141 144.51M158.646 181.907C159.299 171.94 161.461 150.141 164.879 142.689C168.296 135.238 172.886 128.099 174.753 125.461M163.268 182.328C163.688 179.573 165.117 173.111 167.47 169.302" stroke="#4E5B90" stroke-width="2" stroke-linecap="round" stroke-linejoin="round"/>
<rect x="142.425" y="179.906" width="32.879" height="24.9471" rx="5" fill="#F2D7AD"/>
<circle cx="137.401" cy="154.294" r="1.22555" fill="white"/>
<circle cx="139.081" cy="131.253" r="1.22555" fill="white"/>
<circle cx="146.135" cy="134.615" r="1.22555" fill="white"/>
<circle cx="143.684" cy="140.708" r="1.22555" fill="white"/>
<circle cx="168.966" cy="149.506" r="1.22555" fill="white"/>
<circle cx="162.733" cy="135.841" r="1.22555" fill="white"/>
<circle cx="180.591" cy="131.253" r="1.22555" fill="white"/>
<circle cx="174.358" cy="118.158" r="1.22555" fill="white"/>
<circle cx="183.042" cy="119.926" r="1.22555" fill="white"/>
<circle cx="167.285" cy="127.91" r="1.22555" fill="white"/>
<circle cx="174.358" cy="139.482" r="1.22555" fill="white"/>
<path d="M66.045 93.2405C59.2665 89.2726 57.568 86.5146 57.0627 84.7236C61.9767 84.5399 71.2115 82.3288 72.8648 82.2186C74.5181 82.1083 80.7639 84.2393 83.6801 85.3185L84.8512 103.091C81.4068 101.461 72.8235 97.2084 66.045 93.2405Z" fill="#FFB594"/>
<path d="M136.377 105.436C134.823 103.446 133.139 101.965 132.492 101.473L120.991 108.078C122.364 109.71 125.949 114.481 129.306 120.511C132.663 126.542 136.921 128.412 138.631 128.593L139.874 112.974C139.356 111.29 137.931 107.425 136.377 105.436Z" fill="#FFB594"/>
<path d="M97.7015 85.3185C97.3335 86.8864 96.1299 87.2716 95.5741 87.2682C95.785 88.5523 97.4025 91.4079 102.186 92.5578C106.97 93.7077 112.689 90.3538 114.95 88.5331C114.03 88.1115 112.029 87.0727 111.385 86.2908C110.741 85.5089 110.81 82.017 110.925 80.3688L98.3914 79.9663C98.3147 81.097 98.0694 83.7505 97.7015 85.3185Z" fill="#FFB594"/>
<path d="M93.3628 71.9539C93.3628 70.2448 95.2472 70.2495 96.0941 70.4612L97.1422 76.9402C95.8189 75.9874 93.3627 76.432 93.3628 71.9539Z" fill="#FAB88C"/>
<path d="M115.92 71.9539C115.92 70.2448 114.036 70.2495 113.189 70.4612L112.141 76.9402C113.464 75.9874 115.92 76.432 115.92 71.9539Z" fill="#FAB88C"/>
<path d="M95.6666 58.866C99.0284 57.4331 102.67 57.9934 104.071 58.4527L105.173 61.2081C102.257 63.8259 96.1486 69.1853 95.0464 69.6813C93.9442 70.1773 91.005 69.8879 89.6732 69.6813C84.6674 73.6997 73.6087 82.4392 69.4204 85.2498C64.185 88.763 58.1918 88.2119 56.6763 84.7676C55.1608 81.3232 57.4341 77.9477 61.4295 75.0545C65.425 72.1612 83.0601 67.1324 86.4356 65.6169C89.8111 64.1014 91.4644 60.657 95.6666 58.866Z" fill="#FFC6A0"/>
<path d="M134.863 117.007C135.029 113.976 138.376 112.621 140.03 112.322C144.13 111.287 146.837 109.064 150.807 106.088C155.152 102.832 159.525 97.7101 160.185 97.2201C161.765 96.0478 162.937 95.4872 164.212 95.8439C165.486 96.2007 168.136 95.8439 169.818 94.9265C171.5 94.0091 171.551 95.4872 171.551 95.8439C171.551 96.1294 168.731 97.1521 167.321 97.6278C167.287 97.8826 167.739 98.4841 169.818 98.851C172.417 99.3097 175.73 97.6788 176.393 98.0865C177.055 98.4943 175.119 102.215 171.551 103.438C168.697 104.417 163.722 104.396 161.591 104.263C160.88 105.296 158.629 108.479 155.323 112.942C151.189 118.522 143.267 126.307 139.479 128.235C135.69 130.164 134.657 120.796 134.863 117.007Z" fill="#FFC6A0"/>
<path d="M104.433 85.5463C111.333 85.5463 113.591 76.8513 113.858 72.5038V64.1313H96.0188V72.041C95.9487 76.5427 97.5334 85.5463 104.433 85.5463Z" fill="#FFC6A0"/>
<path d="M94.964 66.7582C94.964 70.0291 95.8569 72.993 96.3034 74.0661C96.3988 72.9091 96.5839 71.2625 96.8531 69.6815C98.2067 69.4135 96.6558 65.5128 98.5592 64.9018C99.8289 64.4943 111.953 64.6668 112.329 66.3587C112.705 68.0506 112.348 69.7189 112.541 70.3064C112.733 70.8938 113.363 70.8938 113.363 70.8938L113.152 75.147C113.582 74.7867 114.524 73.6337 114.843 71.9043C115.243 69.7424 114.984 64.7608 114.209 62.5285C113.434 60.2962 111.079 58.3487 104.124 57.6802C98.9223 57.1803 97.7759 58.4178 94.3469 58.6256C94.3469 58.9781 94.964 63.4872 94.964 66.7582Z" fill="#520038"/>
<path d="M106.712 70.677L105.723 72.1597V76.9946C105.351 77.1092 104.507 77.2095 104.112 76.6938" stroke="#DB836E" stroke-width="1.118" stroke-linecap="round" stroke-linejoin="round"/>
<path d="M103.317 70.1327C101.532 69.8687 100.489 69.8742 98.5693 70.1327" stroke="#5C2552" stroke-width="1.118" stroke-linecap="round" stroke-linejoin="round"/>
<path d="M110.892 70.8534C109.134 70.2396 108.839 70.3021 106.919 70.5606" stroke="#5C2552" stroke-width="1.118" stroke-linecap="round" stroke-linejoin="round"/>
<path d="M104.533 80.7131C102.927 80.5097 101.229 78.5364 101.229 78.5364C101.229 78.5364 103.197 79.7261 104.697 79.9689C106.189 80.2104 107.159 79.937 107.264 79.9075L107.266 79.9071C106.996 80.3697 106.139 80.9166 104.533 80.7131Z" stroke="#DB836E" stroke-width="1.118" stroke-linecap="round" stroke-linejoin="round"/>
<path d="M102.87 81.7073C103.066 81.8805 103.937 82.3771 104.941 82.3264" stroke="#DB836E" stroke-width="1.118" stroke-linecap="round" stroke-linejoin="round"/>
<path d="M72.8882 97.5872C76.7575 92.3414 77.7777 89.076 77.5718 82.6957C78.0381 82.5662 78.9962 83.2108 80.1152 83.5217C81.514 83.9102 82.7574 84.9205 84.3116 84.9205C85.8657 84.9205 85.8657 85.0759 87.9639 84.9205C90.0621 84.765 95.2686 86.5524 96.0457 87.4849C96.8228 88.4174 99.3873 90.5156 104.827 90.5156C109.179 90.5156 112.287 88.4951 113.297 87.4849C113.919 87.7439 115.364 88.2775 116.173 88.3397C117.183 88.4174 122.933 89.5053 126.197 90.5156C129.461 91.5258 129.306 94.7119 130.86 96.3438C132.103 97.6493 136.196 103.519 138.087 106.291L132.958 108.622C130.906 109.554 127.233 114.813 125.653 117.325L123.4 111.186C123.244 112.223 122.933 114.512 122.933 115.383V123.387C122.933 125.796 121.768 129.992 121.768 130.381C121.768 130.769 122.389 133.334 121.768 133.878C121.146 134.422 122.467 136.52 122.933 137.763C123.306 138.758 123.089 141.752 122.933 143.125C121.923 143.332 117.882 143.871 109.8 144.368C101.719 144.866 92.1861 143.747 88.4302 143.125C88.1193 142.607 87.4977 141.198 87.4977 139.706V134.888C87.4977 133.955 88.1193 129.604 87.4977 127.661C86.876 125.718 87.3422 121.833 87.4977 119.968C87.622 118.476 85.8398 108.933 84.9332 104.348C84.2338 103.933 82.4776 102.98 81.0477 102.483C79.2604 101.861 77.3176 100.696 75.8412 100.462C74.66 100.276 73.3804 98.4679 72.8882 97.5872Z" fill="white"/>
<path d="M102.936 123.702C104.905 123.594 109.78 122.683 113.534 119.9M98.4062 127.1C101.831 127.693 109.651 128.426 113.534 126.614M122.756 143.036C122.998 142.092 123.338 139.784 122.756 138.101C122.028 135.998 121.381 134.218 121.785 133.733C122.189 133.248 121.785 131.063 121.785 130.335C121.785 129.607 123.484 125.886 123.322 123.217C123.16 120.547 123.322 116.243 123.322 113.331C123.322 111.001 123.756 107.038 123.756 105.42" stroke="#E4EBF7" stroke-width="1.101" stroke-linecap="round" stroke-linejoin="round"/>
<path d="M76.5413 97.0194C78.8101 92.8409 79.3947 90.4204 78.8809 85.9592" stroke="#E4EBF7" stroke-width="1.101" stroke-linecap="round" stroke-linejoin="round"/>
<path d="M81.9585 97.4699L85.2354 103.537L84.3939 91.7131" stroke="#E4EBF7" stroke-width="1.101" stroke-linecap="round" stroke-linejoin="round"/>
<path d="M96.085 90.4104C102.146 93.5846 105.688 93.9317 112.245 91.787" stroke="#E4EBF7" stroke-width="1.101" stroke-linecap="round" stroke-linejoin="round"/>
<path fill-rule="evenodd" clip-rule="evenodd" d="M79.4278 271.525C79.4278 271.525 77.3208 278.941 74.9428 283.831C73.1448 287.526 70.7178 291.323 80.4078 291.323C87.0558 291.323 89.3608 290.843 87.8308 284.724C86.3008 278.604 88.0968 271.525 88.0968 271.525H79.4278Z" fill="#CBD1D1"/>
<path fill-rule="evenodd" clip-rule="evenodd" d="M73.3617 288.917C73.3617 288.917 75.4587 290.086 79.9947 290.086C86.0777 290.086 88.2437 288.436 88.2437 288.436C88.2437 288.436 88.8457 289.55 87.6247 290.601C86.6317 291.456 84.0277 292.192 80.2347 292.147C76.0897 292.099 74.4027 291.581 73.4987 290.979C72.6737 290.429 72.8117 289.399 73.3617 288.917Z" fill="#2B0849"/>
<path fill-rule="evenodd" clip-rule="evenodd" d="M80.3047 273.428C80.3047 273.428 80.3377 274.947 79.9907 276.358C79.6417 277.778 78.9127 279.462 78.8607 280.497C78.8027 281.648 83.3977 282.077 84.0157 280.531C84.6357 278.984 85.3097 274.104 85.9287 273.279C86.5477 272.454 81.0257 271.16 80.3047 273.429" fill="#A4AABA"/>
<path d="M113.73 287.753C110.671 288.773 106.35 286.566 106.35 286.566C107.408 282.287 108.288 272.336 107.575 272.159H107.536C107.549 272.156 107.563 272.156 107.575 272.159H116.938L120.81 288.931C118.26 288.421 116.551 286.813 113.73 287.753Z" fill="#C4C4C4"/>
<path fill-rule="evenodd" clip-rule="evenodd" d="M117.242 272.159C117.242 272.159 119.349 279.575 121.727 284.465C123.525 288.16 125.952 291.957 116.262 291.957C109.614 291.957 107.897 292.601 109.427 286.482C110.957 280.362 108.573 272.159 108.573 272.159H117.242Z" fill="#CBD1D1"/>
<path d="M106.351 286.56C106.351 286.56 106.313 288.501 106.594 288.786C106.875 289.07 108.427 289.07 108.427 289.07C108.427 289.07 107.825 290.184 109.046 291.235C110.039 292.09 112.643 292.826 116.436 292.781C120.581 292.733 122.268 292.215 123.172 291.613C123.997 291.063 123.859 290.033 123.309 289.551C123.309 289.551 121.1 290.72 116.676 290.72C112.251 290.72 110.111 288.786 110.111 288.786C110.029 288.22 109.509 287.56 109.26 287.301C107.368 287.093 106.351 286.56 106.351 286.56Z" fill="#2B0849"/>
<path fill-rule="evenodd" clip-rule="evenodd" d="M116.365 274.062C116.365 274.062 116.332 275.581 116.679 276.992C117.028 278.412 117.757 280.096 117.809 281.131C117.867 282.282 113.272 282.711 112.654 281.165C112.034 279.618 111.36 274.738 110.741 273.913C110.122 273.088 115.644 271.794 116.365 274.063" fill="#A4AABA"/>
<path fill-rule="evenodd" clip-rule="evenodd" d="M106.411 272.892L119.789 272.984C119.789 272.984 121.087 218.464 121.642 208.581C122.196 198.699 125.418 165.217 122.644 145.453L110.097 144.809L88.3205 146.604C88.3205 146.604 88.8136 150.555 88.0526 156.565C87.9896 157.061 87.3706 157.408 87.3036 157.93C87.2286 158.515 87.7266 159.284 87.6236 159.896C86.8796 178.354 85.7127 192.264 84.9687 205.89C84.8527 206.556 83.7347 206.899 83.5107 208.581C83.4707 208.883 83.7217 210.106 83.6227 210.376C80.3907 230.867 78.9038 257.606 77.5544 271.944H89.9709C89.9709 271.944 91.7097 261.54 93.5427 253.14C96.3537 240.254 103.005 169.95 103.005 169.95L106.021 169.429L107.064 215.779C107.064 215.779 106.84 217.013 107.401 217.799C107.961 218.584 106.841 218.922 107.009 220.043L107.401 221.837C107.401 221.837 106.952 229.015 106.503 233.727C106.055 238.437 106.411 272.892 106.411 272.892Z" fill="#7BB2F9"/>
<path d="M113.111 219.52C113.111 219.52 115.885 218.41 119.214 215.637M90.4529 213.365C91.6059 213.459 94.4909 211.346 97.4079 208.43L90.4529 213.365Z" stroke="#648BD8" stroke-width="1.051" stroke-linecap="round" stroke-linejoin="round"/>
<path d="M114.025 216.478C114.025 216.478 116.798 215.368 120.127 212.594" stroke="#648BD8" stroke-linecap="round" stroke-linejoin="round"/>
<path d="M79.2024 270.005H88.0888M96.5638 216.259C96.5638 216.259 87.7152 221.947 91.5982 219.173L96.5638 216.259ZM95.7806 146.012C95.5106 149.118 96.0806 154.537 91.4446 155.135L95.7806 146.012ZM110.376 144.258C110.376 144.258 110.486 158.27 109.083 159.323C106.864 160.987 106.093 161.267 106.093 161.267L110.376 144.258ZM106.541 144.816C106.541 144.816 106.576 157.696 105.345 169.193L106.541 144.816ZM100.424 170.289C100.424 170.289 107.636 168.625 109.855 168.625L100.424 170.289ZM87.9956 200.497C87.686 202.021 87.0555 205.575 86.7125 207.091C86.7125 207.091 85.2545 208.923 85.7035 210.867C86.1525 212.811 87.598 212.458 83.56 225.768C81.864 231.358 85.418 245.58 83.56 254.586L83.329 255.706L87.9956 200.497ZM88.6078 192.847C88.3257 194.433 88.5359 196.84 88.23 198.423L88.6078 192.847ZM92.3416 146.611L91.1456 157.078C91.1456 157.078 90.0486 157.228 90.6456 159.322C90.7586 160.668 91.2837 176.474 88.7777 191.129L92.3416 146.611Z" stroke="#648BD8" stroke-width="1.051" stroke-linecap="round" stroke-linejoin="round"/>
<path fill-rule="evenodd" clip-rule="evenodd" d="M122.991 142.598C122.991 142.598 106.944 139.494 88.0985 142.798C88.2565 145.312 88.0955 146.948 88.0955 146.948C88.0955 146.948 101.782 144.13 122.765 146.636C123.017 144.281 122.991 142.598 122.991 142.598Z" fill="#192064"/>
<path fill-rule="evenodd" clip-rule="evenodd" d="M109.744 145.543L109.747 140.632C109.748 140.422 109.668 140.22 109.523 140.067C109.378 139.915 109.179 139.826 108.969 139.817C106.529 139.726 103.903 139.709 101.133 139.803C100.921 139.811 100.721 139.9 100.574 140.052C100.427 140.204 100.344 140.407 100.344 140.618L100.341 145.524C100.34 145.633 100.362 145.74 100.404 145.84C100.445 145.94 100.507 146.031 100.584 146.107C100.662 146.182 100.754 146.242 100.855 146.282C100.956 146.321 101.063 146.34 101.172 146.337C103.557 146.277 106.145 146.273 108.902 146.354C109.011 146.358 109.119 146.34 109.221 146.301C109.323 146.262 109.415 146.203 109.494 146.127C109.572 146.052 109.635 145.961 109.678 145.861C109.721 145.761 109.743 145.653 109.744 145.544" fill="#EDEDED"/>
<path fill-rule="evenodd" clip-rule="evenodd" d="M108.599 144.613L108.601 141.537C108.602 141.37 108.538 141.209 108.423 141.088C108.307 140.968 108.149 140.897 107.982 140.891C106.028 140.827 104.071 140.823 102.116 140.881C101.948 140.886 101.788 140.956 101.671 141.077C101.553 141.198 101.487 141.359 101.486 141.528V144.6C101.486 144.685 101.502 144.77 101.535 144.849C101.568 144.928 101.616 145 101.677 145.06C101.738 145.12 101.811 145.167 101.89 145.199C101.97 145.23 102.055 145.246 102.14 145.244C104.071 145.201 106.003 145.205 107.934 145.255C108.296 145.265 108.599 144.975 108.599 144.613Z" fill="#192064"/>
<path d="M107.736 169.343L108.634 213.985C108.634 213.985 109.307 215.555 108.409 216.677C107.512 217.799 110.877 217.35 109.307 218.92C107.737 220.49 110.204 220.042 109.307 222.285C108.711 223.774 108.313 243.385 108.211 257.431M107.013 269.793H119.351H107.013ZM108.186 264.908C108.192 268.295 108.228 270.698 108.297 271.414L108.186 264.908ZM108.201 258.926C108.193 260.372 108.188 261.818 108.186 263.263L108.201 258.926Z" stroke="#648BD8" stroke-width="1.051" stroke-linecap="round" stroke-linejoin="round"/>
<path d="M60.1562 87.3609C65.9237 88.2379 67.3968 87.7226 72.1333 83.4148M137.376 113.381C136.32 113.754 134.34 115.523 134.862 119.619C135.383 123.716 136.196 126.168 136.538 126.882" stroke="#DB836E" stroke-width="1.118" stroke-linecap="round" stroke-linejoin="round"/>
<ellipse cx="100.943" cy="72.4147" rx="0.902457" ry="1.06414" fill="#5C2552"/>
<ellipse cx="108.906" cy="72.8178" rx="0.902457" ry="1.06414" fill="#5C2552"/>
<path d="M99.7317 83.5142C103.699 86.0404 105.839 85.7669 109.569 83.5142" stroke="#DB836E" stroke-width="1.118" stroke-linecap="round" stroke-linejoin="round"/>
<path fill-rule="evenodd" clip-rule="evenodd" d="M175.133 29.4327C175.133 13.6841 187.899 0.916748 203.649 0.916748C219.396 0.916748 232.165 13.6841 232.165 29.4327C232.165 45.1803 219.396 57.9486 203.649 57.9486C187.899 57.9486 175.133 45.1803 175.133 29.4327Z" fill="#13C2C2"/>
<path d="M216.348 18.0005H190.948C190.103 18.0005 189.575 18.9217 189.999 19.6565L198.024 33.2981V41.599C198.024 42.2097 198.514 42.703 199.121 42.703H208.174C208.782 42.703 209.272 42.2097 209.272 41.599V33.2981L217.3 19.6565C217.721 18.9217 217.193 18.0005 216.348 18.0005ZM206.801 40.219H200.495V34.8369H206.805V40.219H206.801ZM207.132 32.0561L206.805 32.6288H200.491L200.163 32.0561L193.322 20.4845H213.974L207.132 32.0561Z" fill="white"/>
</svg>
