<svg width="58" height="46" viewBox="0 0 58 46" fill="none" xmlns="http://www.w3.org/2000/svg">
<path d="M58 35C58 41.0751 45.0163 46 29 46C12.9837 46 0 41.0751 0 35C0 28.9249 12.9837 24 29 24C45.0163 24 58 28.9249 58 35Z" fill="#434343"/>
<path d="M51.8694 14.8559L47.6252 7.67258L30.2581 14.7701L28.887 15.3304L33.5075 22.5818C33.7441 22.9531 34.2057 23.1033 34.6108 22.9408L47.6252 17.7197L51.4215 16.1967C51.9464 15.9861 52.1598 15.3474 51.8694 14.8559Z" fill="#2C2C2C"/>
<path d="M28.887 15.3304L10.3773 7.67258L6.13067 14.8599C5.84106 15.3501 6.05199 15.9869 6.57463 16.1991L9.69172 17.4653L23.1661 22.9386C23.5718 23.1034 24.0309 22.9516 24.2682 22.579L28.887 15.3304Z" fill="#2C2C2C"/>
<path d="M33.5075 22.5818L28.887 15.3304L24.2682 22.579C24.0309 22.9516 23.5718 23.1034 23.1661 22.9386L9.69172 17.4653V31.6119C9.69172 32.0078 9.93898 32.3571 10.3075 32.4863L28.887 39L47.0159 32.4892C47.3811 32.3581 47.6252 32.0075 47.6252 31.6141V17.7197L34.6108 22.9408C34.2057 23.1033 33.7441 22.9531 33.5075 22.5818Z" fill="#2C2C2C"/>
<path d="M47.6252 7.67258L51.8694 14.8559C52.1598 15.3474 51.9464 15.9861 51.4215 16.1967L47.6252 17.7197M47.6252 7.67258L30.2581 1.4354L29.1936 1.05311C29.1305 1.03045 29.0656 1.01505 29 1.00689M47.6252 7.67258L30.2581 14.7701L28.887 15.3304M10.3773 7.67258L28.5807 1.05432C28.7158 1.00522 28.8594 0.989399 29 1.00689M10.3773 7.67258L28.887 15.3304M10.3773 7.67258L6.13067 14.8599C5.84106 15.3501 6.05199 15.9869 6.57463 16.1991M28.887 15.3304L33.5075 22.5818C33.7441 22.9531 34.2057 23.1033 34.6108 22.9408L47.6252 17.7197M28.887 15.3304L24.2682 22.579C24.0309 22.9516 23.5718 23.1034 23.1661 22.9386M28.887 15.3304V39M47.6252 17.7197V31.6141C47.6252 32.0075 47.3811 32.3581 47.0159 32.4892L28.887 39M28.887 39L10.3075 32.4863C9.93898 32.3571 9.69172 32.0078 9.69172 31.6119M9.69172 17.4653C8.73192 17.0754 7.45059 16.555 6.57463 16.1991M9.69172 17.4653C14.2823 19.33 21.0082 22.062 23.1661 22.9386M9.69172 17.4653C9.69172 22.3103 9.69172 29.4315 9.69172 31.6119M9.69172 17.4653L6.57463 16.1991M9.69172 17.4653L23.1661 22.9386M9.69172 17.4653V31.6119M29 1.00689V9.5" stroke="#595959" stroke-linecap="round"/>
</svg>
