<svg width="259" height="299" viewBox="0 0 259 299" fill="none" xmlns="http://www.w3.org/2000/svg">
<path fill-rule="evenodd" clip-rule="evenodd" d="M137.266 135.326C137.266 135.326 139.881 113.02 131.891 104.165C123.783 95.1823 120.993 106.873 121.761 117.171C122.649 129.097 124.186 144.447 137.266 135.326" fill="#FFB594"/>
<path fill-rule="evenodd" clip-rule="evenodd" d="M142.05 89.527C142.05 89.527 143.099 85.4232 141.456 86.5071C139.813 87.591 137.699 91.4573 137.699 91.4573C137.699 91.4573 137.273 92.451 136.383 93.2736C135.494 94.0962 135.024 96.999 135.024 96.999L139.046 98.1999C139.046 98.1999 147.274 98.0585 149.14 96.9988C155.41 93.6618 155.889 88.9029 155.623 87.3584C155.623 87.3584 155.803 85.5363 152.997 87.716C150.192 89.8972 149.4 91.2846 146.318 90.4117C143.235 89.5381 142.05 89.527 142.05 89.527Z" fill="#FFC6A0"/>
<path fill-rule="evenodd" clip-rule="evenodd" d="M62.8115 139.543C62.8115 139.543 57.3178 117.766 64.0889 107.947C70.9603 97.9869 75.2463 109.215 75.8242 119.526C76.4938 131.467 76.9658 146.886 62.8115 139.543" fill="#FFB594"/>
<path fill-rule="evenodd" clip-rule="evenodd" d="M57.0708 93.8941C57.0708 93.8941 56.2856 89.7316 57.8563 90.9183C59.4269 92.105 60.2904 94.6849 60.2904 94.6849C60.2904 94.6849 62.2421 97.1828 62.8169 98.0354C63.3918 98.888 63.6408 101.166 63.6408 101.166L59.5135 102.741C59.5135 102.741 51.3111 102.074 49.5174 100.897C43.4731 97.1664 43.2997 92.3866 43.6635 90.8622C43.6635 90.8622 43.6007 89.0323 46.2613 91.387C48.9218 93.7431 49.6231 95.1783 52.7547 94.5042C55.887 93.8293 57.0708 93.8941 57.0708 93.8941Z" fill="#FFC6A0"/>
<path d="M87.7289 92.026C89.5769 92.347 102.355 94.001 102.355 94.001C106.672 92.8013 107.826 91.4468 116.104 92.5003C120.639 93.0776 126.538 95.0559 129.85 97.9686C132.545 99.658 135.622 107.534 136.723 109.909C129.003 111.519 127.992 113.939 122.308 121.708C120.137 117.647 119.517 114.988 119.132 114.216C118.79 117.575 117.589 142.366 117.066 145.376C119.141 151.636 116.094 154.182 116.094 154.182C101.056 150.768 81.173 154.511 81.173 154.511C76.506 151.096 79.827 145.402 79.827 145.402L76.2206 116.929V123.894C76.2206 123.894 73.3518 113.271 63.9399 108.497C63.94 103.365 64.7226 100.043 68.3409 96.2021C71.9592 92.3608 77.1108 90.0696 81.675 90.621C86.2391 91.1723 85.3589 91.616 87.7289 92.026Z" fill="white"/>
<path fill-rule="evenodd" clip-rule="evenodd" d="M101.09 294.998C101.09 294.998 105.385 297.039 108.444 296.019C111.265 295.079 112.974 296.687 115.524 297.197C118.074 297.707 122.398 298.297 127.21 295.937C127.107 290.427 120.321 291.957 115.25 289.224C112.687 287.844 111.466 284.502 111.652 280.425H102.25C102.25 280.425 100.858 290.945 101.09 294.998Z" fill="#CBD1D1"/>
<path d="M136.225 108.264C135.221 107.374 125.613 111.223 123.447 116.625" stroke="#E4EBF7" stroke-width="1.051" stroke-linecap="round" stroke-linejoin="round"/>
<path fill-rule="evenodd" clip-rule="evenodd" d="M101.067 294.826C101.067 294.826 103.495 296.097 107.826 295.479C110.884 295.042 111.538 295.96 115.249 296.51C118.961 297.06 125.973 296.441 127.072 295.616C127.485 296.716 126.729 297.679 126.729 297.679C126.729 297.679 125.217 298.282 121.917 298.503C119.887 298.639 116.117 298.794 114.31 298C112.523 296.625 109.063 296.097 108.582 297.759C104.664 298.709 101.227 297.473 101.227 297.473L101.067 294.826V294.826Z" fill="#2B0849"/>
<path fill-rule="evenodd" clip-rule="evenodd" d="M108.341 281.044H111.435C111.435 281.044 111.332 287.746 115.971 289.602C111.331 290.22 107.413 287.299 108.341 281.044Z" fill="#A4AABA"/>
<path fill-rule="evenodd" clip-rule="evenodd" d="M57.5418 277.401C57.5418 277.401 55.4348 284.817 53.0568 289.707C51.2588 293.402 48.8318 297.199 58.5218 297.199C65.1698 297.199 67.4748 296.719 65.9448 290.6C64.4148 284.48 66.2108 277.401 66.2108 277.401H57.5418V277.401Z" fill="#CBD1D1"/>
<path fill-rule="evenodd" clip-rule="evenodd" d="M51.4759 294.793C51.4759 294.793 53.5729 295.962 58.1089 295.962C64.1919 295.962 66.3579 294.312 66.3579 294.312C66.3579 294.312 66.9599 295.426 65.7389 296.477C64.7459 297.332 62.1419 298.068 58.3489 298.023C54.2039 297.975 52.5169 297.457 51.6129 296.855C50.7879 296.305 50.9259 295.275 51.4759 294.793" fill="#2B0849"/>
<path fill-rule="evenodd" clip-rule="evenodd" d="M58.4192 279.304C58.4192 279.304 58.4522 280.823 58.1052 282.234C57.7562 283.654 57.0272 285.338 56.9752 286.373C56.9172 287.524 61.5122 287.953 62.1302 286.407C62.7502 284.86 63.4242 279.98 64.0432 279.155C64.6622 278.33 59.1402 277.036 58.4192 279.305" fill="#A4AABA"/>
<path fill-rule="evenodd" clip-rule="evenodd" d="M99.6599 283.514L113.038 283.606C113.038 283.606 114.336 229.086 114.891 219.203C115.445 209.321 118.667 175.839 115.893 156.075L103.346 155.431L80.4969 156.211C80.4969 156.211 80.0629 160.177 79.3019 166.187C79.2389 166.683 78.6199 167.03 78.5529 167.552C78.4779 168.137 78.9759 168.906 78.8729 169.518C76.5089 183.598 72.4959 202.622 70.1289 216.195C70.0129 216.861 68.8949 217.204 68.6709 218.886C68.6309 219.188 68.8819 220.411 68.7829 220.681C61.9099 239.425 57.8339 268.523 54.5059 282.566L69.1129 282.552C69.1129 282.552 71.3099 273.982 73.1429 265.582C75.9539 252.696 96.2539 180.572 96.2539 180.572L99.2699 180.051L100.313 226.401C100.313 226.401 100.089 227.635 100.65 228.421C101.21 229.206 100.09 229.544 100.258 230.665L100.65 232.459C100.65 232.459 100.201 239.637 99.7519 244.349C99.3039 249.059 99.6599 283.514 99.6599 283.514" fill="#7BB2F9"/>
<path d="M106.36 230.142C106.36 230.142 109.134 229.032 112.463 226.259M76.085 226.626C77.238 226.72 80.123 224.607 83.04 221.691L76.085 226.626Z" stroke="#648BD8" stroke-width="1.051" stroke-linecap="round" stroke-linejoin="round"/>
<path d="M107.275 227.1C107.275 227.1 110.048 225.99 113.377 223.216" stroke="#648BD8" stroke-linecap="round" stroke-linejoin="round"/>
<path d="M56.1201 279.418H69.4301M74.7401 229.767C74.7401 229.767 77.3621 229.176 81.2451 226.402L74.7401 229.767ZM86.0301 156.634C85.7601 159.74 86.3301 165.159 81.6941 165.757L86.0301 156.634ZM103.625 154.88C103.625 154.88 103.735 168.892 102.332 169.945C100.113 171.609 99.3421 171.889 99.3421 171.889L103.625 154.88ZM99.7901 155.438C99.7901 155.438 99.8251 168.318 98.5941 179.815L99.7901 155.438ZM93.6731 180.911C93.6731 180.911 100.885 179.247 103.104 179.247L93.6731 180.911ZM74.3101 210.861C74.0005 212.384 73.6742 213.905 73.3311 215.421C73.3311 215.421 71.8731 217.253 72.3221 219.197C72.7711 221.141 71.3751 221.242 67.3371 234.552C65.6411 240.142 62.8471 253.143 60.9891 262.149L60.7581 263.269L74.3101 210.861ZM75.6891 202.807C75.4071 204.394 75.1131 205.978 74.8071 207.561L75.6891 202.807ZM82.5911 157.233L81.3951 167.7C81.3951 167.7 80.2981 167.85 80.8951 169.944C81.0081 171.29 78.2211 185.719 75.7151 200.374L82.5911 157.233Z" stroke="#648BD8" stroke-width="1.051" stroke-linecap="round" stroke-linejoin="round"/>
<path fill-rule="evenodd" clip-rule="evenodd" d="M116.241 153.22C116.241 153.22 99.1937 150.116 80.3477 153.42C80.5057 155.934 80.3447 157.57 80.3447 157.57C80.3447 157.57 95.0317 154.752 116.015 157.258C116.267 154.903 116.241 153.22 116.241 153.22" fill="#192064"/>
<path fill-rule="evenodd" clip-rule="evenodd" d="M106.322 156.165L106.325 151.254C106.326 151.044 106.246 150.841 106.101 150.689C105.956 150.537 105.757 150.447 105.547 150.439C103.107 150.348 100.481 150.331 97.711 150.425C97.4996 150.432 97.2993 150.521 97.1522 150.673C97.0051 150.825 96.9226 151.028 96.922 151.24L96.919 156.146C96.9185 156.254 96.9398 156.362 96.9817 156.462C97.0235 156.562 97.085 156.652 97.1625 156.728C97.24 156.804 97.3319 156.863 97.4328 156.903C97.5337 156.943 97.6416 156.962 97.75 156.959C100.135 156.899 102.723 156.895 105.48 156.976C105.589 156.98 105.697 156.961 105.799 156.922C105.901 156.883 105.993 156.824 106.072 156.749C106.15 156.673 106.213 156.583 106.256 156.483C106.299 156.383 106.321 156.275 106.322 156.166" fill="white"/>
<path fill-rule="evenodd" clip-rule="evenodd" d="M105.207 155.233L105.209 152.157C105.21 151.99 105.146 151.829 105.03 151.708C104.915 151.588 104.757 151.517 104.59 151.511C102.635 151.447 100.679 151.443 98.7238 151.501C98.5554 151.506 98.3956 151.576 98.2781 151.697C98.1605 151.818 98.0945 151.979 98.0938 152.148V155.22C98.0932 155.306 98.1098 155.39 98.1426 155.469C98.1754 155.548 98.2237 155.62 98.2847 155.68C98.3457 155.74 98.4181 155.787 98.4976 155.819C98.5771 155.851 98.6622 155.866 98.7478 155.864C100.679 155.821 102.611 155.825 104.542 155.875C104.904 155.885 105.207 155.595 105.207 155.233" fill="#192064"/>
<path d="M100.986 179.965L101.884 224.607C101.884 224.607 102.557 226.177 101.659 227.299C100.762 228.421 104.127 227.972 102.557 229.542C100.987 231.112 103.454 230.664 102.557 232.907C101.961 234.396 101.563 254.007 101.461 268.053M100.263 280.415H112.601H100.263ZM101.436 275.53C101.442 278.917 101.478 281.32 101.547 282.036L101.436 275.53ZM101.451 269.548C101.443 270.994 101.438 272.439 101.436 273.885L101.451 269.548Z" stroke="#648BD8" stroke-width="1.051" stroke-linecap="round" stroke-linejoin="round"/>
<path fill-rule="evenodd" clip-rule="evenodd" d="M65.7662 141.385C65.7662 141.385 71.3018 143.868 73.3917 136.401C76.4176 125.594 67.6143 124.614 63.3649 99.4795C60.5493 99.3273 58.079 100.223 58.079 100.223C58.079 100.223 57.3602 111.697 58.2171 124.197C58.7204 131.541 59.7901 138.938 65.7662 141.385Z" fill="#FFC6A0"/>
<path d="M101.832 81.0087L102.427 80.7883C102.494 80.7825 102.561 80.7981 102.619 80.8313C102.647 80.8471 102.25 80.9251 101.832 81.0087L100.955 81.3334C104.33 88.4909 101.716 94.8716 101.196 96.0053C101.196 96.0053 97.8073 97.1257 94.7456 96.2843C91.684 95.4429 88.5653 92.7481 88.5653 92.7481L89.5726 85.5493L100.955 81.3334C100.939 81.2989 100.922 81.2644 100.906 81.2299C100.89 81.1983 101.374 81.1001 101.832 81.0087Z" fill="#FFC6A0"/>
<path fill-rule="evenodd" clip-rule="evenodd" d="M88.659 88.6218C88.659 88.6218 83.3033 88.5571 83.0042 84.047C82.7739 80.5643 87.4443 82.6556 87.4443 82.6556C87.4443 82.6556 85.9852 79.2784 88.203 77.9196C88.1032 76.7612 87.3599 73.5552 87.3599 73.5552C87.3599 73.5552 98.4779 69.7943 100.524 69.1506C103.242 73.5872 108.706 86.9171 104.214 90.1817C96.999 95.4263 88.659 88.6218 88.659 88.6218" fill="#FFC6A0"/>
<path fill-rule="evenodd" clip-rule="evenodd" d="M102.551 73.1424C103.682 70.0091 100.431 63.0396 100.431 63.0396C100.431 63.0396 98.0616 63.9168 93.6986 64.7603C88.6183 65.4322 80.3059 67.3981 79.3031 74.724C72.7429 82.5227 89.346 93.3517 89.346 93.3517L89.0356 88.4746C89.0356 88.4746 83.5732 87.9575 83.6108 84.4679C83.6527 80.3822 87.5139 83.3351 87.5139 83.3351C87.5139 83.3351 86.8102 80.9669 88.8216 78.6147C88.7534 77.8238 88.3082 75.7933 88.0315 74.5837C87.9714 74.323 88.0108 74.0493 88.142 73.8162C88.2732 73.5831 88.4867 73.4074 88.7407 73.3236C91.0787 72.5457 97.1943 70.5124 99.8146 69.6612C100.325 69.4951 100.879 69.7306 101.115 70.2134L102.551 73.1424Z" fill="#520038"/>
<path fill-rule="evenodd" clip-rule="evenodd" d="M96.3326 80.0234C96.5635 80.5974 96.3786 81.2126 95.9196 81.3976C95.4593 81.5822 94.9002 81.2669 94.6694 80.6929C94.4385 80.1189 94.6234 79.5038 95.0824 79.3188C95.5413 79.1337 96.1009 79.45 96.3326 80.0234ZM103.285 77.6756C103.516 78.2496 103.331 78.8647 102.872 79.0498C102.413 79.2339 101.854 78.9185 101.622 78.3451C101.391 77.7711 101.576 77.1559 102.035 76.9709C102.494 76.7859 103.053 77.1013 103.285 77.6756Z" fill="#552950"/>
<path d="M100.087 76.2881L100.164 78.129L102.186 81.9999L100.287 83.1638" stroke="#DB836E" stroke-width="1.118" stroke-linecap="round" stroke-linejoin="round"/>
<path fill-rule="evenodd" clip-rule="evenodd" d="M133.789 138.349C133.789 138.349 128.319 140.973 126.038 133.562C122.736 122.836 131.511 121.631 135.115 96.3955C137.926 96.1711 140.418 97.003 140.418 97.003C140.418 97.003 141.431 108.455 140.895 120.973C140.58 128.327 139.701 135.749 133.789 138.349Z" fill="#FFC6A0"/>
<path d="M127.69 136.616C126.454 134.55 124.303 129.574 125.594 126.205C126.885 122.836 127.167 122.486 128.483 119.428" stroke="#DB836E" stroke-width="1.051" stroke-linecap="round" stroke-linejoin="round"/>
<path d="M100.51 75.6076C100.51 74.9053 101.402 73.5828 102.927 74.7564" stroke="#5C2552" stroke-width="1.118" stroke-linecap="round" stroke-linejoin="round"/>
<path d="M85.9253 85.7041C85.9253 85.7041 85.6424 84.5258 86.3902 84.4651C87.1388 84.4037 88.2679 84.8532 88.0265 85.7277C87.7836 86.6019 89.1516 86.972 89.1516 86.972" stroke="#DB836E" stroke-width="1.118" stroke-linecap="round" stroke-linejoin="round"/>
<path d="M93.2544 78.2349C94.5093 79.0731 96.5505 77.9217 97.2804 76.8872" stroke="#5C2552" stroke-width="1.118" stroke-linecap="round" stroke-linejoin="round"/>
<path d="M90.5254 89.7925C90.5254 89.7925 96.3286 93.6915 102.964 90.8324M98.2069 86.305C97.7971 86.7443 100.128 86.8039 102.562 85.0363C99.9676 85.336 98.8396 85.5795 98.2069 86.305ZM100.351 87.9771C100.351 87.9771 101.373 87.8181 101.806 87.459L100.351 87.9771Z" stroke="#DB836E" stroke-width="1.118" stroke-linecap="round" stroke-linejoin="round"/>
<path d="M66.1761 107.343C66.1761 107.343 72.1696 109.494 74.4679 116.625" stroke="#E4EBF7" stroke-width="1.101" stroke-linecap="round" stroke-linejoin="round"/>
<path d="M66.2466 101.61C68.5481 98.765 74.1412 93.115 78.1015 93.2717C82.0618 93.4285 83.7901 93.337 84.1592 93.2717" stroke="#E4EBF7" stroke-width="1.101" stroke-linecap="round" stroke-linejoin="round"/>
<path d="M119.306 112.329C119.306 112.329 119.758 116.695 117.179 144.391" stroke="#E4EBF7" stroke-width="1.101" stroke-linecap="round" stroke-linejoin="round"/>
<path d="M86.8633 93.9128C87.0688 94.7832 94.2773 101.298 102.797 97.4689" stroke="#E4EBF7" stroke-width="1.101" stroke-linecap="round" stroke-linejoin="round"/>
<path d="M71.8189 139.496C73.0022 137.398 75.0246 132.37 73.6478 129.035C72.271 125.7 69.1384 118.819 67.7441 115.796" stroke="#DB836E" stroke-width="1.051" stroke-linecap="round" stroke-linejoin="round"/>
<path d="M77.0591 113.138C77.971 111.033 80.1466 106.639 81.5535 105.909C82.9605 105.179 79.1435 110.424 77.0591 113.138Z" stroke="#E4EBF7" stroke-width="1.101" stroke-linecap="round" stroke-linejoin="round"/>
<path d="M119.578 113.138C118.666 111.033 116.491 106.639 115.084 105.909C113.677 105.179 117.494 110.424 119.578 113.138Z" stroke="#E4EBF7" stroke-width="1.101" stroke-linecap="round" stroke-linejoin="round"/>
<path d="M105.123 94.1973C107.027 94.1973 111.81 94.1973 115.713 94.1973C119.616 94.1973 126.938 101.098 130.111 104.549" stroke="#E4EBF7" stroke-width="1.101" stroke-linecap="round" stroke-linejoin="round"/>
<path fill-rule="evenodd" clip-rule="evenodd" d="M142.05 89.527C142.05 89.527 143.099 85.4232 141.456 86.5071C139.813 87.591 137.699 91.4573 137.699 91.4573C137.699 91.4573 137.273 92.451 136.383 93.2736C135.494 94.0962 135.024 96.999 135.024 96.999L139.046 98.1999C139.046 98.1999 147.274 98.0585 149.14 96.9988C155.41 93.6618 155.889 88.9029 155.623 87.3584C155.623 87.3584 155.803 85.5363 152.997 87.716C150.192 89.8972 149.4 91.2846 146.318 90.4117C143.235 89.5381 142.05 89.527 142.05 89.527Z" fill="#FFC6A0"/>
<path fill-rule="evenodd" clip-rule="evenodd" d="M57.0708 93.8941C57.0708 93.8941 56.2856 89.7316 57.8563 90.9183C59.4269 92.105 60.2904 94.6849 60.2904 94.6849C60.2904 94.6849 62.2421 97.1828 62.8169 98.0354C63.3918 98.888 63.6408 101.166 63.6408 101.166L59.5135 102.741C59.5135 102.741 51.3111 102.074 49.5174 100.897C43.4731 97.1664 43.2997 92.3866 43.6635 90.8622C43.6635 90.8622 43.6007 89.0323 46.2613 91.387C48.9218 93.7431 49.6231 95.1783 52.7547 94.5042C55.887 93.8293 57.0708 93.8941 57.0708 93.8941Z" fill="#FFC6A0"/>
<path fill-rule="evenodd" clip-rule="evenodd" d="M65.7662 141.385C65.7662 141.385 71.3018 143.868 73.3917 136.401C76.4176 125.594 67.6143 124.614 63.3649 99.4795C60.5493 99.3273 58.079 100.223 58.079 100.223C58.079 100.223 57.3602 111.697 58.2171 124.197C58.7204 131.541 59.7901 138.938 65.7662 141.385Z" fill="#FFC6A0"/>
<path fill-rule="evenodd" clip-rule="evenodd" d="M133.789 138.349C133.789 138.349 128.319 140.973 126.038 133.562C122.736 122.836 131.511 121.631 135.115 96.3955C137.926 96.1711 140.418 97.003 140.418 97.003C140.418 97.003 141.431 108.455 140.895 120.973C140.58 128.327 139.701 135.749 133.789 138.349Z" fill="#FFC6A0"/>
<path fill-rule="evenodd" clip-rule="evenodd" d="M210.888 23.8251C210.888 10.6671 221.554 0 234.713 0C247.87 0 258.538 10.6671 258.538 23.8251C258.538 36.9822 247.87 47.6501 234.713 47.6501C221.554 47.6501 210.888 36.9822 210.888 23.8251" fill="#13C2C2"/>
<path d="M241.102 26.2739L248.872 34.0447C248.895 34.0674 248.913 34.0945 248.925 34.1243C248.938 34.1541 248.944 34.186 248.944 34.2182C248.944 34.2504 248.938 34.2824 248.925 34.3121C248.913 34.3419 248.895 34.369 248.872 34.3917L247.568 35.6933C247.545 35.7161 247.518 35.7342 247.488 35.7466C247.458 35.7589 247.426 35.7653 247.394 35.7653C247.362 35.7653 247.33 35.7589 247.3 35.7466C247.27 35.7342 247.243 35.7161 247.221 35.6933L239.45 27.9256C237.891 29.1285 235.988 29.7808 233.983 29.7808C233.908 29.7808 233.832 29.7799 233.757 29.778V27.503C233.832 27.5055 233.907 27.5067 233.983 27.5067C235.772 27.5067 237.454 26.8095 238.723 25.5438C239.988 24.2781 240.686 22.5935 240.686 20.8042C240.686 19.0149 239.988 17.3333 238.723 16.0646C237.457 14.7959 235.772 14.1017 233.983 14.1017C232.194 14.1017 230.512 14.7989 229.243 16.0646C228.333 16.9747 227.717 18.1014 227.443 19.3279H225.126C225.428 17.4904 226.293 15.7987 227.637 14.4578C229.33 12.7642 231.586 11.8276 233.983 11.8276C236.38 11.8276 238.636 12.7612 240.33 14.4578C242.023 16.1543 242.96 18.4045 242.96 20.8042C242.96 22.809 242.307 24.715 241.102 26.2739Z" fill="white"/>
<path d="M221.491 31.1446H223.217C223.354 31.1446 223.486 31.0831 223.577 30.9776L226.12 27.9453L228.663 30.9776C228.751 31.0831 228.883 31.1446 229.023 31.1446H230.749C230.948 31.1446 231.057 30.9132 230.928 30.7608L227.345 26.4863L230.931 22.2117C231.06 22.0594 230.951 21.8279 230.752 21.8279H229.026C228.889 21.8279 228.757 21.8895 228.666 21.9949L226.12 25.0272L223.577 21.9949C223.489 21.8895 223.357 21.8279 223.217 21.8279H221.491C221.292 21.8279 221.183 22.0594 221.312 22.2117L224.895 26.4863L221.312 30.7608C221.283 30.7948 221.265 30.8363 221.259 30.8805C221.253 30.9247 221.26 30.9696 221.279 31.01C221.297 31.0504 221.327 31.0846 221.365 31.1085C221.403 31.1323 221.446 31.1449 221.491 31.1446Z" fill="white"/>
<rect x="170.068" y="251.872" width="36.1405" height="7.4837" fill="#5B7AB3"/>
<path d="M171.74 290.206L180.113 191.891H172.685L164.447 290.206H171.74Z" fill="#82AEFF"/>
<path d="M205.726 290.206L197.353 191.891H204.78L213.018 290.206H205.726Z" fill="#82AEFF"/>
<path d="M164.547 185.032C165.069 182.1 167.619 179.965 170.596 179.965H205.681C208.659 179.965 211.208 182.1 211.731 185.032V185.032C212.402 188.797 209.506 192.255 205.681 192.255H170.596C166.771 192.255 163.876 188.797 164.547 185.032V185.032Z" fill="#DFE7F6"/>
<path fill-rule="evenodd" clip-rule="evenodd" d="M55.4882 181.326L45.0062 175.383L45.9926 173.644L56.4746 179.587L55.4882 181.326ZM43.6004 196.752L56.2484 185.964L57.5463 187.485L44.8983 198.273L43.6004 196.752Z" fill="#DFE7F6"/>
<path fill-rule="evenodd" clip-rule="evenodd" d="M48.2793 171.056C48.1786 172.144 47.8635 173.201 47.3521 174.167C46.8408 175.132 46.1434 175.987 45.3001 176.681C44.4569 177.376 43.4844 177.897 42.4389 178.214C41.3934 178.53 40.2955 178.637 39.2085 178.528C38.1216 178.418 37.067 178.094 36.1058 177.575C35.1446 177.056 34.2956 176.352 33.6079 175.503C32.9202 174.654 32.4074 173.677 32.0991 172.629C31.7907 171.581 31.6929 170.482 31.8113 169.396C32.0479 167.226 33.1326 165.237 34.829 163.863C36.5255 162.488 38.6963 161.84 40.8686 162.059C43.0409 162.278 45.0386 163.347 46.4267 165.032C47.8147 166.717 48.4806 168.882 48.2793 171.056Z" fill="#DFE7F6"/>
<path fill-rule="evenodd" clip-rule="evenodd" d="M48.3992 199.568C48.2485 201.064 47.51 202.438 46.3461 203.389C45.1821 204.34 43.6881 204.79 42.1927 204.639C40.6972 204.488 39.3229 203.75 38.372 202.586C37.4211 201.422 36.9715 199.928 37.1222 198.432C37.1968 197.692 37.4165 196.973 37.7687 196.318C38.121 195.662 38.599 195.083 39.1753 194.612C39.7516 194.141 40.415 193.788 41.1277 193.574C41.8403 193.359 42.5882 193.287 43.3287 193.362C44.0691 193.437 44.7876 193.656 45.4432 194.008C46.0987 194.361 46.6785 194.839 47.1493 195.415C47.6202 195.991 47.9729 196.655 48.1873 197.367C48.4018 198.08 48.4738 198.828 48.3992 199.568ZM66.1122 183.463C66.0431 184.214 65.826 184.944 65.4735 185.61C65.121 186.276 64.64 186.866 64.0584 187.345C63.4767 187.825 62.8058 188.184 62.0845 188.403C61.3631 188.621 60.6056 188.695 59.8557 188.62C59.1057 188.544 58.3781 188.321 57.715 187.962C57.0518 187.604 56.4662 187.118 55.9919 186.532C55.5176 185.946 55.164 185.272 54.9516 184.549C54.7391 183.826 54.672 183.068 54.7542 182.318C54.9182 180.822 55.6666 179.451 56.8365 178.504C58.0064 177.557 59.503 177.11 61.0007 177.261C62.4984 177.412 63.8758 178.149 64.8331 179.31C65.7904 180.472 66.2501 181.965 66.1122 183.463Z" fill="#DFE7F6"/>
<path fill-rule="evenodd" clip-rule="evenodd" d="M26.1054 151.944L35.9238 163.766L34.3853 165.044L24.5668 153.222L26.1054 151.944ZM67.4424 169.834L64.0241 179.484L62.1388 178.816L65.5572 169.166L67.4424 169.834ZM53.8038 212.226L44.2223 202.499L45.6471 201.095L55.2286 210.822L53.8038 212.226Z" fill="#DFE7F6"/>
<path fill-rule="evenodd" clip-rule="evenodd" d="M55.5561 211.337C55.2363 211.337 54.9291 211.462 54.7005 211.686C54.472 211.91 54.3402 212.214 54.3334 212.534C54.3299 212.697 54.359 212.858 54.4189 213.01C54.4788 213.161 54.5683 213.299 54.6822 213.415C54.7961 213.532 54.932 213.624 55.0821 213.687C55.2322 213.75 55.3933 213.783 55.5561 213.783C55.7189 213.783 55.8801 213.75 56.0301 213.687C56.1802 213.624 56.3161 213.532 56.43 213.415C56.5439 213.299 56.6334 213.161 56.6933 213.01C56.7532 212.858 56.7823 212.697 56.7789 212.534C56.7721 212.214 56.6403 211.91 56.4117 211.686C56.1831 211.462 55.876 211.337 55.5561 211.337ZM53.3014 210.257C53.9038 209.667 54.7132 209.337 55.5561 209.337C56.3991 209.337 57.2085 209.667 57.8108 210.257C58.4132 210.847 58.7605 211.649 58.7784 212.492C58.7875 212.92 58.7109 213.347 58.553 213.746C58.3952 214.145 58.1593 214.508 57.8592 214.815C57.559 215.121 57.2007 215.365 56.8053 215.531C56.4098 215.697 55.9851 215.783 55.5561 215.783C55.1271 215.783 54.7024 215.697 54.307 215.531C53.9115 215.365 53.5532 215.121 53.2531 214.815C52.953 214.508 52.7171 214.145 52.5592 213.746C52.4014 213.347 52.3247 212.92 52.3338 212.492C52.3517 211.649 52.6991 210.847 53.3014 210.257Z" fill="#DFE7F6"/>
<path fill-rule="evenodd" clip-rule="evenodd" d="M24.3924 149.504C24.0726 149.504 23.7654 149.629 23.5369 149.853C23.3083 150.077 23.1765 150.381 23.1697 150.701C23.1663 150.864 23.1953 151.026 23.2552 151.177C23.3151 151.329 23.4046 151.466 23.5185 151.583C23.6324 151.699 23.7684 151.791 23.9184 151.855C24.0685 151.918 24.2296 151.95 24.3924 151.95C24.5552 151.95 24.7164 151.918 24.8664 151.855C25.0165 151.791 25.1525 151.699 25.2663 151.583C25.3802 151.466 25.4697 151.329 25.5296 151.177C25.5895 151.026 25.6186 150.864 25.6152 150.701C25.6084 150.381 25.4766 150.077 25.248 149.853C25.0194 149.629 24.7123 149.504 24.3924 149.504ZM22.1377 148.424C22.7401 147.834 23.5495 147.504 24.3924 147.504C25.2354 147.504 26.0448 147.834 26.6471 148.424C27.2495 149.014 27.5968 149.816 27.6147 150.659C27.6238 151.088 27.5472 151.514 27.3893 151.913C27.2315 152.312 26.9956 152.675 26.6955 152.982C26.3954 153.288 26.0371 153.532 25.6416 153.698C25.2461 153.865 24.8214 153.95 24.3924 153.95C23.9634 153.95 23.5388 153.865 23.1433 153.698C22.7478 153.532 22.3895 153.288 22.0894 152.982C21.7893 152.675 21.5534 152.312 21.3955 151.913C21.2377 151.514 21.1611 151.088 21.1702 150.659C21.188 149.816 21.5354 149.014 22.1377 148.424Z" fill="#DFE7F6"/>
<path fill-rule="evenodd" clip-rule="evenodd" d="M67.2228 166C66.9029 166 66.5958 166.125 66.3672 166.349C66.1386 166.573 66.0068 166.877 66 167.197C65.9966 167.36 66.0257 167.522 66.0856 167.673C66.1455 167.824 66.235 167.962 66.3489 168.079C66.4627 168.195 66.5987 168.287 66.7488 168.35C66.8988 168.413 67.06 168.446 67.2228 168.446C67.3856 168.446 67.5467 168.413 67.6968 168.35C67.8468 168.287 67.9828 168.195 68.0967 168.079C68.2106 167.962 68.3001 167.824 68.36 167.673C68.4199 167.522 68.449 167.36 68.4455 167.197C68.4387 166.877 68.3069 166.573 68.0783 166.349C67.8498 166.125 67.5426 166 67.2228 166ZM64.9681 164.92C65.5704 164.33 66.3798 164 67.2228 164C68.0657 164 68.8751 164.33 69.4775 164.92C70.0798 165.51 70.4272 166.312 70.4451 167.155C70.4542 167.584 70.3775 168.01 70.2197 168.409C70.0618 168.808 69.8259 169.171 69.5258 169.478C69.2257 169.784 68.8674 170.028 68.4719 170.194C68.0765 170.36 67.6518 170.446 67.2228 170.446C66.7938 170.446 66.3691 170.36 65.9736 170.194C65.5781 170.028 65.2198 169.784 64.9197 169.478C64.6196 169.171 64.3837 168.808 64.2259 168.409C64.068 168.01 63.9914 167.583 64.0005 167.155C64.0184 166.312 64.3657 165.51 64.9681 164.92Z" fill="#DFE7F6"/>
<path fill-rule="evenodd" clip-rule="evenodd" d="M208.912 108.983C208.359 114.468 203.465 118.466 197.981 117.913C192.496 117.36 188.498 112.465 189.051 106.981C189.603 101.496 194.498 97.4981 199.983 98.0511C205.468 98.6041 209.466 103.498 208.913 108.983" fill="#DFE7F6"/>
<path fill-rule="evenodd" clip-rule="evenodd" d="M215.796 123.102L203.156 115.935L204.142 114.195L216.782 121.362L215.796 123.102ZM201.491 142.042L216.746 129.031L218.044 130.553L202.789 143.564L201.491 142.042Z" fill="#DFE7F6"/>
<path fill-rule="evenodd" clip-rule="evenodd" d="M209.057 143.372C208.977 144.273 208.719 145.149 208.298 145.95C207.877 146.75 207.301 147.459 206.604 148.035C205.907 148.611 205.102 149.044 204.237 149.307C203.372 149.57 202.463 149.658 201.563 149.568C200.663 149.477 199.79 149.208 198.995 148.778C198.2 148.347 197.498 147.763 196.93 147.059C196.362 146.355 195.939 145.546 195.686 144.677C195.434 143.809 195.356 142.899 195.457 142C195.659 140.213 196.557 138.577 197.957 137.448C199.357 136.318 201.146 135.786 202.935 135.967C204.725 136.147 206.371 137.026 207.517 138.412C208.663 139.798 209.216 141.581 209.057 143.372ZM227.729 126.64C227.645 127.545 227.383 128.425 226.958 129.228C226.533 130.031 225.952 130.742 225.251 131.32C224.549 131.898 223.74 132.331 222.87 132.595C222 132.859 221.087 132.947 220.182 132.856C219.278 132.765 218.401 132.495 217.601 132.063C216.801 131.631 216.095 131.045 215.523 130.339C214.951 129.633 214.525 128.82 214.268 127.948C214.012 127.076 213.931 126.162 214.029 125.258C214.226 123.453 215.129 121.798 216.54 120.655C217.952 119.512 219.758 118.973 221.565 119.156C223.372 119.338 225.033 120.227 226.188 121.629C227.343 123.03 227.897 124.832 227.729 126.64Z" fill="#DFE7F6"/>
<path fill-rule="evenodd" clip-rule="evenodd" d="M232.694 79.485H228.743C227.486 79.4816 226.282 78.9809 225.393 78.0924C224.505 77.2038 224.004 75.9997 224 74.743C224.003 73.4861 224.504 72.2817 225.393 71.393C226.282 70.5042 227.486 70.0034 228.743 70H232.694C233.951 70.0034 235.155 70.5042 236.044 71.393C236.933 72.2817 237.434 73.4861 237.437 74.743C237.433 75.9997 236.932 77.2038 236.044 78.0924C235.155 78.9809 233.951 79.4816 232.694 79.485Z" fill="#DFE7F6"/>
<path d="M37.4095 63.175L7.5895 63.189C6.987 63.1892 6.39035 63.0707 5.83363 62.8403C5.27692 62.6099 4.77103 62.2722 4.34486 61.8463C3.91868 61.4204 3.58057 60.9147 3.34982 60.3581C3.11907 59.8016 3.0002 59.205 3 58.6025C2.9998 58 3.11828 57.4034 3.34867 56.8466C3.57906 56.2899 3.91684 55.784 4.34274 55.3579C4.76863 54.9317 5.2743 54.5936 5.83086 54.3628C6.38743 54.1321 6.984 54.0132 7.5865 54.013L37.4065 54C38.0089 53.9998 38.6055 54.1183 39.1622 54.3486C39.7188 54.579 40.2247 54.9167 40.6508 55.3426C41.0769 55.7684 41.415 56.274 41.6457 56.8306C41.8764 57.3871 41.9953 57.9836 41.9955 58.586C41.9957 59.1884 41.8772 59.785 41.6469 60.3417C41.4165 60.8983 41.0788 61.4042 40.6529 61.8303C40.2271 62.2564 39.7215 62.5945 39.1649 62.8252C38.6084 63.0559 38.0119 63.1748 37.4095 63.175Z" fill="#DFE7F6"/>
<path d="M48.8155 81.512L18.9955 81.525C18.3931 81.5253 17.7965 81.4069 17.2398 81.1766C16.6831 80.9463 16.1772 80.6086 15.7511 80.1828C15.3249 79.757 14.9868 79.2514 14.756 78.6949C14.5252 78.1384 14.4063 77.5419 14.406 76.9395C14.4057 76.3371 14.5241 75.7405 14.7544 75.1838C14.9847 74.6271 15.3224 74.1212 15.7482 73.6951C16.174 73.2689 16.6796 72.9308 17.2361 72.7C17.7926 72.4692 18.3891 72.3503 18.9915 72.35L48.8115 72.337C50.0165 72.3543 51.1663 72.8449 52.0125 73.7029C52.8586 74.5609 53.3333 75.7174 53.3338 76.9225C53.3343 78.1276 52.8607 79.2845 52.0153 80.1433C51.1698 81.002 50.0205 81.4937 48.8155 81.512Z" fill="#DFE7F6"/>
<path d="M17.9482 63.1796V63.1776L33.5963 63.1717C33.6416 63.171 33.6869 63.171 33.7322 63.1716L33.5963 63.1717C33.0343 63.1802 32.4782 63.292 31.9559 63.5018C31.3915 63.7285 30.8779 64.0651 30.4448 64.4921C30.0117 64.9192 29.6678 65.428 29.4332 65.9891C29.1986 66.5503 29.0778 67.1524 29.078 67.7606C29.0782 68.3688 29.1994 68.9709 29.4344 69.5319C29.6694 70.0929 30.0136 70.6015 30.4469 71.0283C30.8803 71.455 31.3942 71.7913 31.9587 72.0176C32.4816 72.2273 33.0383 72.3387 33.6009 72.3467L33.7353 72.3466C33.6904 72.3473 33.6456 72.3473 33.6009 72.3467L17.9522 72.3536V72.3516C19.1685 72.3511 20.3348 71.8674 21.1945 71.007C22.0541 70.1466 22.5368 68.9799 22.5362 67.7636C22.5357 66.5473 22.052 65.3811 21.1916 64.5214C20.3312 63.6617 19.1645 63.1791 17.9482 63.1796Z" fill="#DFE7F6"/>
</svg>
