<svg
    width="252"
    height="294"
    style="height: 294px;"
    viewBox="0 0 252 294"
    fill="none"
    xmlns="http://www.w3.org/2000/svg"
  >
    <path
      fillRule="evenodd"
      clipRule="evenodd"
      d="M39.755 130.84C39.6543 131.928 39.3392 132.985 38.8278 133.95C38.3165 134.916 37.6191 135.77 36.7758 136.465C35.9326 137.16 34.9601 137.68 33.9146 137.997C32.8691 138.314 31.7712 138.421 30.6842 138.311C29.5973 138.202 28.5427 137.878 27.5815 137.359C26.6203 136.84 25.7713 136.135 25.0836 135.286C24.3959 134.438 23.8831 133.461 23.5748 132.413C23.2664 131.365 23.1686 130.266 23.287 129.18C23.5236 127.01 24.6083 125.021 26.3047 123.646C28.0012 122.272 30.172 121.624 32.3443 121.843C34.5166 122.062 36.5143 123.13 37.9024 124.815C39.2904 126.501 39.9563 128.666 39.755 130.84Z"
      fill="#DFE7F6"
    />
    <path
      d="M48.373 146.508L35.725 157.296M36.975 134.297L47.457 140.24L36.975 134.297Z"
      stroke="#DFE7F6"
      strokeWidth="2"
    />
    <path
      fillRule="evenodd"
      clipRule="evenodd"
      d="M39.875 159.352C39.7244 160.847 38.9858 162.222 37.8219 163.173C36.6579 164.124 35.1639 164.573 33.6685 164.422C32.1731 164.272 30.7987 163.533 29.8478 162.369C28.8969 161.205 28.4474 159.711 28.598 158.216C28.6726 157.476 28.8923 156.757 29.2446 156.101C29.5968 155.446 30.0748 154.866 30.6511 154.395C31.2274 153.924 31.8909 153.572 32.6035 153.357C33.3161 153.143 34.064 153.071 34.8045 153.145C35.545 153.22 36.2635 153.44 36.919 153.792C37.5746 154.144 38.1543 154.622 38.6252 155.199C39.096 155.775 39.4487 156.438 39.6632 157.151C39.8776 157.864 39.9496 158.612 39.875 159.352ZM57.588 143.247C57.5189 143.998 57.3019 144.727 56.9494 145.393C56.5969 146.06 56.1159 146.649 55.5342 147.129C54.9525 147.608 54.2816 147.968 53.5603 148.186C52.839 148.405 52.0815 148.479 51.3315 148.403C50.5815 148.328 49.854 148.104 49.1908 147.746C48.5276 147.388 47.942 146.901 47.4677 146.316C46.9934 145.73 46.6398 145.056 46.4274 144.333C46.215 143.609 46.1479 142.851 46.23 142.102C46.394 140.606 47.1424 139.235 48.3123 138.288C49.4822 137.34 50.9789 136.894 52.4765 137.045C53.9742 137.196 55.3516 137.932 56.3089 139.094C57.2662 140.255 57.7259 141.748 57.588 143.247ZM99.018 26.875L128.838 26.861C129.44 26.8608 130.037 26.7419 130.593 26.5112C131.15 26.2805 131.656 25.9424 132.081 25.5163C132.507 25.0902 132.845 24.5843 133.075 24.0277C133.306 23.471 133.424 22.8744 133.424 22.272C133.424 21.6696 133.305 21.0731 133.074 20.5166C132.843 19.96 132.505 19.4544 132.079 19.0286C131.653 18.6027 131.147 18.265 130.591 18.0346C130.034 17.8043 129.437 17.6858 128.835 17.686L99.015 17.699C98.4125 17.6992 97.8159 17.8181 97.2594 18.0488C96.7028 18.2796 96.1971 18.6177 95.7712 19.0439C95.3453 19.47 95.0076 19.9759 94.7772 20.5326C94.5468 21.0894 94.4283 21.686 94.4285 22.2885C94.4287 22.891 94.5476 23.4876 94.7783 24.0441C95.0091 24.6007 95.3472 25.1064 95.7734 25.5323C96.1995 25.9582 96.7054 26.2959 97.2621 26.5263C97.8188 26.7567 98.4155 26.8752 99.018 26.875ZM110.424 45.211L140.244 45.198C141.449 45.1797 142.598 44.688 143.444 43.8293C144.289 42.9705 144.763 41.8136 144.762 40.6085C144.762 39.4034 144.287 38.2469 143.441 37.3889C142.595 36.5309 141.445 36.0403 140.24 36.023L110.42 36.036C109.818 36.0363 109.221 36.1552 108.665 36.386C108.108 36.6168 107.603 36.9549 107.177 37.3811C106.751 37.8072 106.413 38.3131 106.183 38.8698C105.953 39.4265 105.834 40.0231 105.835 40.6255C105.835 41.2279 105.954 41.8244 106.184 42.3809C106.415 42.9374 106.753 43.443 107.18 43.8688C107.606 44.2946 108.112 44.6323 108.668 44.8626C109.225 45.0929 109.822 45.2113 110.424 45.211Z"
      fill="#DFE7F6"
    />
    <path
      fillRule="evenodd"
      clipRule="evenodd"
      d="M112.798 26.861V26.859L128.582 26.853C127.974 26.8442 127.37 26.9564 126.806 27.1831C126.241 27.4098 125.728 27.7465 125.295 28.1735C124.861 28.6005 124.518 29.1094 124.283 29.6705C124.048 30.2316 123.928 30.8338 123.928 31.442C123.928 32.0502 124.049 32.6523 124.284 33.2133C124.519 33.7743 124.863 34.2829 125.297 34.7096C125.73 35.1364 126.244 35.4727 126.808 35.699C127.373 35.9253 127.977 36.0372 128.585 36.028L112.802 36.035V36.033C114.018 36.0325 115.185 35.5488 116.044 34.6884C116.904 33.828 117.387 32.6613 117.386 31.445C117.385 30.2287 116.902 29.0625 116.041 28.2028C115.181 27.3431 114.014 26.8605 112.798 26.861ZM184.523 135.668C183.97 141.153 179.076 145.151 173.592 144.598C168.107 144.045 164.109 139.15 164.662 133.666C165.214 128.181 170.109 124.183 175.594 124.736C181.079 125.289 185.077 130.183 184.524 135.668"
      fill="#DFE7F6"
    />
    <path
      d="M193.006 156.477L177.751 169.488M179.26 141.75L191.9 148.917L179.26 141.75Z"
      stroke="#DFE7F6"
      strokeWidth="2"
    />
    <path
      fillRule="evenodd"
      clipRule="evenodd"
      d="M184.668 170.057C184.588 170.958 184.33 171.834 183.909 172.634C183.488 173.435 182.912 174.144 182.215 174.72C181.518 175.296 180.713 175.728 179.848 175.991C178.983 176.255 178.074 176.343 177.174 176.252C176.274 176.162 175.401 175.893 174.606 175.463C173.81 175.032 173.108 174.448 172.54 173.744C171.972 173.04 171.55 172.23 171.297 171.362C171.044 170.494 170.967 169.584 171.068 168.685C171.27 166.898 172.168 165.262 173.568 164.133C174.968 163.003 176.756 162.471 178.546 162.652C180.335 162.832 181.982 163.711 183.128 165.097C184.274 166.483 184.827 168.265 184.668 170.057ZM203.34 153.325C203.256 154.23 202.994 155.11 202.569 155.913C202.143 156.716 201.563 157.427 200.862 158.005C200.16 158.583 199.351 159.016 198.481 159.28C197.611 159.543 196.698 159.632 195.793 159.541C194.889 159.45 194.012 159.18 193.212 158.748C192.412 158.316 191.706 157.73 191.134 157.024C190.562 156.317 190.135 155.505 189.879 154.633C189.622 153.761 189.541 152.847 189.64 151.943C189.837 150.138 190.74 148.483 192.151 147.34C193.563 146.197 195.368 145.658 197.175 145.84C198.982 146.023 200.644 146.912 201.799 148.313C202.953 149.715 203.507 151.517 203.34 153.325Z"
      fill="#DFE7F6"
    />
    <path
      fillRule="evenodd"
      clipRule="evenodd"
      d="M151.931 192.324C151.931 192.913 151.697 193.478 151.28 193.895C150.863 194.312 150.298 194.546 149.709 194.546C149.12 194.546 148.555 194.312 148.138 193.895C147.721 193.478 147.487 192.913 147.487 192.324C147.487 191.735 147.721 191.17 148.138 190.753C148.555 190.336 149.12 190.102 149.709 190.102C150.298 190.102 150.863 190.336 151.28 190.753C151.697 191.17 151.931 191.735 151.931 192.324V192.324ZM225.27 116.056C225.27 116.645 225.036 117.211 224.619 117.628C224.202 118.044 223.637 118.279 223.048 118.279C222.458 118.279 221.893 118.044 221.476 117.628C221.059 117.211 220.825 116.645 220.825 116.056C220.825 115.467 221.059 114.902 221.476 114.485C221.893 114.068 222.458 113.834 223.047 113.834C223.636 113.834 224.201 114.068 224.618 114.485C225.035 114.902 225.269 115.467 225.269 116.056H225.27ZM216.38 151.08C216.38 151.372 216.322 151.661 216.211 151.931C216.099 152.2 215.935 152.445 215.729 152.652C215.522 152.858 215.277 153.022 215.007 153.133C214.738 153.245 214.448 153.303 214.156 153.303C213.865 153.302 213.576 153.245 213.306 153.133C213.036 153.021 212.791 152.858 212.585 152.651C212.378 152.445 212.215 152.199 212.103 151.93C211.991 151.66 211.934 151.371 211.934 151.079C211.934 150.489 212.168 149.924 212.585 149.507C213.002 149.09 213.567 148.856 214.157 148.856C214.747 148.856 215.312 149.09 215.729 149.507C216.146 149.924 216.38 150.489 216.38 151.079V151.08ZM176.917 107.636C176.923 107.932 176.87 108.226 176.762 108.501C176.653 108.776 176.49 109.027 176.283 109.238C176.076 109.45 175.829 109.618 175.556 109.732C175.283 109.847 174.99 109.906 174.695 109.906C174.399 109.906 174.106 109.847 173.833 109.732C173.56 109.618 173.313 109.45 173.106 109.238C172.899 109.027 172.736 108.776 172.627 108.501C172.519 108.226 172.466 107.932 172.472 107.636C172.484 107.055 172.724 106.501 173.139 106.095C173.555 105.688 174.113 105.46 174.695 105.46C175.276 105.46 175.834 105.688 176.25 106.095C176.665 106.501 176.905 107.055 176.917 107.636ZM195.291 92.165C195.297 92.4608 195.244 92.7549 195.136 93.0301C195.027 93.3052 194.864 93.5559 194.657 93.7673C194.45 93.9787 194.203 94.1467 193.93 94.2614C193.657 94.3761 193.364 94.4351 193.068 94.4351C192.773 94.4351 192.48 94.3761 192.207 94.2614C191.934 94.1467 191.687 93.9787 191.48 93.7673C191.273 93.5559 191.11 93.3052 191.001 93.0301C190.893 92.7549 190.84 92.4608 190.846 92.165C190.858 91.5837 191.098 91.0304 191.513 90.6237C191.929 90.2169 192.487 89.9891 193.068 89.9891C193.65 89.9891 194.208 90.2169 194.624 90.6237C195.039 91.0304 195.279 91.5837 195.291 92.165V92.165ZM202.058 180.711C202.058 181.301 201.824 181.866 201.407 182.283C200.99 182.7 200.425 182.934 199.835 182.934C199.245 182.934 198.68 182.7 198.263 182.283C197.846 181.866 197.612 181.301 197.612 180.711C197.612 180.121 197.846 179.556 198.263 179.139C198.68 178.722 199.245 178.488 199.835 178.488C200.425 178.488 200.99 178.722 201.407 179.139C201.824 179.556 202.058 180.121 202.058 180.711V180.711Z"
      stroke="#DFE7F6"
      strokeWidth="2"
    />
    <path
      d="M220.824 117.25L207.984 125.151L192.674 117.249V94.39M214.404 153.302L212.492 173.486L201.564 179.476L214.404 153.302ZM173.661 174.792L167.305 184.606H155.945L151.437 191.09L173.661 174.792ZM174.941 125.168V109.364V125.168Z"
      stroke="#DFE7F6"
      strokeWidth="2"
    />
    <path
      fillRule="evenodd"
      clipRule="evenodd"
      d="M166.588 65.936H162.637C161.38 65.9326 160.176 65.4319 159.287 64.5434C158.399 63.6549 157.898 62.4507 157.894 61.194C157.897 59.9371 158.398 58.7327 159.287 57.844C160.176 56.9552 161.38 56.4544 162.637 56.451H166.588C167.845 56.4544 169.049 56.9552 169.938 57.844C170.827 58.7327 171.328 59.9371 171.331 61.194C171.327 62.4507 170.826 63.6549 169.938 64.5434C169.049 65.4319 167.845 65.9326 166.588 65.936Z"
      fill="#DFE7F6"
    />
    <path
      fillRule="evenodd"
      clipRule="evenodd"
      d="M174.823 30.03C174.823 13.749 188.021 0.55 204.303 0.55C220.583 0.55 233.783 13.749 233.783 30.03C233.783 46.31 220.583 59.51 204.303 59.51C188.021 59.51 174.823 46.31 174.823 30.03Z"
      fill="#1890FF"
    />
    <path
      fillRule="evenodd"
      clipRule="evenodd"
      d="M205.952 38.387C206.452 38.887 206.737 39.529 206.737 40.315C206.737 41.101 206.451 41.78 205.952 42.279C205.38 42.779 204.738 43.029 203.952 43.029C203.167 43.029 202.523 42.744 202.023 42.244C201.451 41.744 201.203 41.101 201.203 40.315C201.203 39.529 201.451 38.887 202.023 38.387C202.523 37.887 203.167 37.637 203.953 37.637C204.738 37.637 205.415 37.887 205.952 38.387ZM210.237 18.924C211.665 20.173 212.38 21.887 212.38 24.066C212.38 25.778 211.953 27.196 211.161 28.316C211.094 28.412 211.024 28.496 210.943 28.581C210.527 29.01 209.533 29.927 207.987 31.28C207.385 31.7485 206.897 32.3467 206.559 33.03C206.198 33.7627 206.014 34.5702 206.023 35.387V35.887H201.916V35.387C201.916 34.03 202.131 32.851 202.63 31.887C203.094 30.923 204.487 29.423 206.808 27.351L207.238 26.851C207.881 26.066 208.202 25.208 208.202 24.316C208.202 23.136 207.844 22.208 207.202 21.531C206.524 20.851 205.559 20.53 204.344 20.53C202.808 20.53 201.702 20.994 200.987 21.96C200.617 22.46 200.366 23.095 200.227 23.864C200.141 24.3232 199.896 24.7377 199.536 25.0355C199.176 25.3333 198.723 25.4955 198.256 25.494H198.252C196.975 25.494 195.995 24.311 196.272 23.064C196.609 21.546 197.292 20.284 198.345 19.28C199.881 17.78 201.952 17.03 204.595 17.03C206.915 17.03 208.809 17.637 210.237 18.924Z"
      fill="white"
    />
    <path
      fillRule="evenodd"
      clipRule="evenodd"
      d="M52.04 76.131C52.04 76.131 73.85 81.491 79.347 92.076C84.922 102.816 72.995 101.336 63.617 97.011C52.757 92.003 38.917 85.189 52.04 76.131Z"
      fill="#FFB594"
    />
    <path
      fillRule="evenodd"
      clipRule="evenodd"
      d="M90.483 67.504L90.034 70.397C89.281 70.887 85.286 67.734 85.286 67.734L83.641 68.482L82.295 62.798C82.295 62.798 89.11 58.209 91.212 57.78C93.664 57.279 101.096 58.72 101.912 60.058C101.912 60.058 103.232 60.544 99.685 60.748C96.137 60.951 94.642 61.195 92.895 63.88C91.148 66.566 90.483 67.504 90.483 67.504Z"
      fill="#FFC6A0"
    />
    <path
      fillRule="evenodd"
      clipRule="evenodd"
      d="M128.055 111.367C125.428 103.643 121.905 98.187 119.138 95.889C115.638 92.983 109.798 93.664 107.772 91.702C106.502 90.471 104.557 90.505 104.557 90.505C104.557 90.505 89.577 87.347 87.729 87.026C85.359 86.616 85.605 86.312 81.675 85.621C80.105 83.714 78.758 84.499 78.758 84.499L71.648 83.116C70.795 81.644 69.225 82.093 69.225 82.093L66.757 81.196C65.112 91.172 59.017 94.992 59.017 94.992C60.812 96.114 74.72 103.292 74.72 103.292L79.827 140.402C79.827 140.402 76.506 146.096 81.173 149.511C81.173 149.511 101.056 145.768 116.094 149.182C116.094 149.182 119.141 146.636 117.066 140.376C117.589 137.366 118.46 132.113 118.802 128.754C119.187 129.526 120.821 130.672 121.942 132.231C121.942 132.231 131.349 124.866 132.994 118.219C132.162 117.496 131.396 116.634 130.727 115.766C130.16 115.03 130.369 113.71 129.962 113.049C129.293 111.965 128.158 111.671 128.055 111.367Z"
      fill="white"
    />
    <path
      fillRule="evenodd"
      clipRule="evenodd"
      d="M101.09 289.998C101.09 289.998 105.385 292.039 108.444 291.019C111.265 290.079 112.974 291.687 115.524 292.197C118.074 292.707 122.398 293.297 127.21 290.937C127.107 285.427 120.321 286.957 115.25 284.224C112.687 282.844 111.466 279.502 111.652 275.425H102.25C102.25 275.425 100.858 285.945 101.09 289.998Z"
      fill="#CBD1D1"
    />
    <path
      fillRule="evenodd"
      clipRule="evenodd"
      d="M101.067 289.826C101.067 289.826 103.495 291.097 107.826 290.479C110.884 290.042 111.538 290.96 115.249 291.51C118.961 292.06 125.973 291.441 127.072 290.616C127.485 291.716 126.729 292.679 126.729 292.679C126.729 292.679 125.217 293.282 121.917 293.503C119.887 293.639 116.117 293.794 114.31 293C112.523 291.625 109.063 291.097 108.582 292.759C104.664 293.709 101.227 292.473 101.227 292.473L101.067 289.826Z"
      fill="#2B0849"
    />
    <path
      fillRule="evenodd"
      clipRule="evenodd"
      d="M108.341 276.044H111.435C111.435 276.044 111.332 282.746 115.971 284.602C111.331 285.22 107.413 282.299 108.341 276.044Z"
      fill="#A4AABA"
    />
    <path
      fillRule="evenodd"
      clipRule="evenodd"
      d="M57.542 272.401C57.542 272.401 55.435 279.817 53.057 284.707C51.259 288.402 48.832 292.199 58.522 292.199C65.17 292.199 67.475 291.719 65.945 285.6C64.415 279.48 66.211 272.401 66.211 272.401H57.542Z"
      fill="#CBD1D1"
    />
    <path
      fillRule="evenodd"
      clipRule="evenodd"
      d="M51.476 289.793C51.476 289.793 53.573 290.962 58.109 290.962C64.192 290.962 66.358 289.312 66.358 289.312C66.358 289.312 66.96 290.426 65.739 291.477C64.746 292.332 62.142 293.068 58.349 293.023C54.204 292.975 52.517 292.457 51.613 291.855C50.788 291.305 50.926 290.275 51.476 289.793Z"
      fill="#2B0849"
    />
    <path
      fillRule="evenodd"
      clipRule="evenodd"
      d="M58.419 274.304C58.419 274.304 58.452 275.823 58.105 277.234C57.756 278.654 57.027 280.338 56.975 281.373C56.917 282.524 61.512 282.953 62.13 281.407C62.75 279.86 63.424 274.98 64.043 274.155C64.662 273.33 59.14 272.036 58.419 274.305"
      fill="#A4AABA"
    />
    <path
      fillRule="evenodd"
      clipRule="evenodd"
      d="M99.66 278.514L113.038 278.606C113.038 278.606 114.336 224.086 114.891 214.203C115.445 204.321 118.667 170.839 115.893 151.075L103.346 150.431L80.497 151.211C80.497 151.211 80.063 155.177 79.302 161.187C79.239 161.683 78.62 162.03 78.553 162.552C78.478 163.137 78.976 163.906 78.873 164.518C76.509 178.598 72.496 197.622 70.129 211.195C70.013 211.861 68.895 212.204 68.671 213.886C68.631 214.188 68.882 215.411 68.783 215.681C61.91 234.425 57.834 263.523 54.506 277.566L69.113 277.552C69.113 277.552 71.31 268.982 73.143 260.582C75.954 247.696 96.254 175.572 96.254 175.572L99.27 175.051L100.313 221.401C100.313 221.401 100.089 222.635 100.65 223.421C101.21 224.206 100.09 224.544 100.258 225.665L100.65 227.459C100.65 227.459 100.201 234.637 99.752 239.349C99.304 244.059 99.66 278.514 99.66 278.514Z"
      fill="#7BB2F9"
    />
    <path
      d="M106.36 225.142C106.36 225.142 109.134 224.032 112.463 221.259M76.085 221.626C77.238 221.72 80.123 219.607 83.04 216.691L76.085 221.626Z"
      stroke="#648BD8"
      strokeWidth="1.051"
      strokeLinecap="round"
      strokeLinejoin="round"
    />
    <path
      d="M107.275 222.1C107.275 222.1 110.048 220.99 113.377 218.216"
      stroke="#648BD8"
      strokeLinecap="round"
      strokeLinejoin="round"
    />
    <path
      d="M56.12 274.418H69.43M74.74 224.767C74.74 224.767 77.362 224.176 81.245 221.402L74.74 224.767ZM86.03 151.634C85.76 154.74 86.33 160.159 81.694 160.757L86.03 151.634ZM103.625 149.88C103.625 149.88 103.735 163.892 102.332 164.945C100.113 166.609 99.342 166.889 99.342 166.889L103.625 149.88ZM99.79 150.438C99.79 150.438 99.825 163.318 98.594 174.815L99.79 150.438ZM93.673 175.911C93.673 175.911 100.885 174.247 103.104 174.247L93.673 175.911ZM74.31 205.861C74.0004 207.385 73.674 208.905 73.331 210.421C73.331 210.421 71.873 212.253 72.322 214.197C72.771 216.141 71.375 216.242 67.337 229.552C65.641 235.142 62.847 248.143 60.989 257.149L60.758 258.269L74.31 205.861ZM75.689 197.807C75.4069 199.394 75.1129 200.979 74.807 202.561L75.689 197.807ZM82.591 152.233L81.395 162.7C81.395 162.7 80.298 162.85 80.895 164.944C81.008 166.29 78.221 180.719 75.715 195.374L82.591 152.233Z"
      stroke="#648BD8"
      strokeWidth="1.051"
      strokeLinecap="round"
      strokeLinejoin="round"
    />
    <path
      fillRule="evenodd"
      clipRule="evenodd"
      d="M116.241 148.22C116.241 148.22 99.194 145.116 80.348 148.42C80.506 150.934 80.345 152.57 80.345 152.57C80.345 152.57 95.032 149.752 116.015 152.258C116.267 149.903 116.241 148.22 116.241 148.22Z"
      fill="#192064"
    />
    <path
      fillRule="evenodd"
      clipRule="evenodd"
      d="M106.322 151.165L106.325 146.254C106.326 146.044 106.246 145.841 106.101 145.689C105.956 145.537 105.757 145.447 105.547 145.439C103.107 145.348 100.481 145.331 97.711 145.425C97.4996 145.432 97.2994 145.522 97.1523 145.674C97.0052 145.825 96.9226 146.029 96.922 146.24L96.919 151.146C96.9186 151.254 96.9399 151.362 96.9817 151.462C97.0236 151.562 97.085 151.652 97.1625 151.728C97.24 151.804 97.332 151.864 97.4329 151.903C97.5338 151.943 97.6416 151.962 97.75 151.959C100.135 151.899 102.723 151.895 105.48 151.976C105.589 151.98 105.697 151.961 105.799 151.922C105.901 151.883 105.994 151.824 106.072 151.749C106.151 151.673 106.213 151.583 106.256 151.483C106.299 151.383 106.321 151.275 106.322 151.166"
      fill="white"
    />
    <path
      fillRule="evenodd"
      clipRule="evenodd"
      d="M105.207 150.233L105.209 147.157C105.21 146.99 105.146 146.829 105.031 146.708C104.915 146.588 104.757 146.517 104.59 146.511C102.635 146.447 100.679 146.444 98.724 146.501C98.5556 146.506 98.3958 146.577 98.2783 146.697C98.1608 146.818 98.0947 146.98 98.094 147.148V150.22C98.0934 150.306 98.1101 150.39 98.1429 150.469C98.1756 150.548 98.224 150.62 98.2849 150.68C98.3459 150.74 98.4183 150.787 98.4978 150.819C98.5774 150.851 98.6624 150.866 98.748 150.864C100.679 150.821 102.611 150.825 104.542 150.875C104.904 150.885 105.207 150.595 105.207 150.233Z"
      fill="#192064"
    />
    <path
      d="M100.986 174.965L101.884 219.607C101.884 219.607 102.557 221.177 101.659 222.299C100.762 223.421 104.127 222.972 102.557 224.542C100.987 226.112 103.454 225.664 102.557 227.907C101.961 229.396 101.563 249.007 101.461 263.053M100.263 275.415H112.601H100.263ZM101.436 270.53C101.442 273.917 101.478 276.32 101.547 277.036L101.436 270.53ZM101.451 264.548C101.443 265.994 101.438 267.439 101.436 268.885L101.451 264.548Z"
      stroke="#648BD8"
      strokeWidth="1.051"
      strokeLinecap="round"
      strokeLinejoin="round"
    />
    <path
      fillRule="evenodd"
      clipRule="evenodd"
      d="M46.876 83.427C46.876 83.427 46.36 89.472 54.099 88.979C65.299 88.267 63.317 79.634 85.639 67.324C84.853 64.616 83.192 62.58 83.192 62.58C83.192 62.58 72.124 65.69 60.608 70.626C53.842 73.526 47.213 76.978 46.876 83.427ZM104.46 91.057L105.401 85.685L96.517 74.255L91.48 79.627L89.74 87.461C89.7265 87.5191 89.7294 87.5798 89.7485 87.6364C89.7676 87.6929 89.802 87.743 89.848 87.781C90.813 88.581 96.348 92.794 104.195 91.325C104.261 91.3123 104.321 91.2799 104.369 91.232C104.416 91.1842 104.447 91.1231 104.459 91.057"
      fill="#FFC6A0"
    />
    <path
      fillRule="evenodd"
      clipRule="evenodd"
      d="M93.942 79.387C93.942 79.387 89.409 76.534 91.51 72.532C93.133 69.442 96.023 73.665 96.023 73.665C96.023 73.665 96.543 70.023 99.144 70.023C99.664 68.983 100.705 65.861 100.705 65.861C100.705 65.861 112.15 68.462 114.231 68.982C114.231 74.185 111.927 88.406 106.391 88.843C97.499 89.546 93.942 79.387 93.942 79.387Z"
      fill="#FFC6A0"
    />
    <path
      fillRule="evenodd"
      clipRule="evenodd"
      d="M113.874 73.446C116.475 71.365 117.344 63.724 117.344 63.724C117.344 63.724 114.865 63.234 110.704 61.674C106.021 59.593 97.906 56.927 93.224 62.65C83.556 65.873 91.174 82.473 91.174 82.473L93.887 79.452C93.887 79.452 89.952 76.165 91.807 73.209C93.977 69.747 95.727 74.282 95.727 74.282C95.727 74.282 96.364 71.895 99.308 70.94C99.663 70.23 100.344 68.266 100.74 67.09C100.825 66.8363 101.001 66.6235 101.235 66.4933C101.469 66.3631 101.743 66.3248 102.003 66.386C104.403 66.944 110.68 68.405 113.359 69.048C113.881 69.173 114.23 69.663 114.179 70.198L113.874 73.446Z"
      fill="#520038"
    />
    <path
      fillRule="evenodd"
      clipRule="evenodd"
      d="M104.977 76.064C104.874 76.674 104.395 77.102 103.907 77.02C103.418 76.937 103.106 76.376 103.209 75.766C103.312 75.156 103.791 74.728 104.279 74.81C104.767 74.892 105.079 75.454 104.977 76.064ZM112.132 77.694C112.029 78.304 111.55 78.732 111.062 78.65C110.574 78.567 110.262 78.006 110.364 77.396C110.467 76.786 110.946 76.358 111.434 76.44C111.922 76.522 112.234 77.083 112.132 77.694Z"
      fill="#552950"
    />
    <path
      d="M110.13 74.84L109.234 76.45L108.936 80.807H106.708"
      stroke="#DB836E"
      strokeWidth="1.118"
      strokeLinecap="round"
      strokeLinejoin="round"
    />
    <path
      d="M110.846 74.481C110.846 74.481 112.636 73.765 113.352 75.018"
      stroke="#5C2552"
      strokeWidth="1.118"
      strokeLinecap="round"
      strokeLinejoin="round"
    />
    <path
      d="M92.386 74.282C92.386 74.282 92.863 73.168 93.499 73.566C94.136 73.964 94.773 74.999 94.057 75.556C93.34 76.112 94.216 77.226 94.216 77.226"
      stroke="#DB836E"
      strokeWidth="1.118"
      strokeLinecap="round"
      strokeLinejoin="round"
    />
    <path
      d="M103.287 72.93C103.287 72.93 105.117 74.043 107.424 73.884"
      stroke="#5C2552"
      strokeWidth="1.118"
      strokeLinecap="round"
      strokeLinejoin="round"
    />
    <path
      d="M94.693 81.205C94.693 81.205 97.001 88.605 105.117 88.844M103.685 81.762C103.685 81.762 105.912 82.955 108.061 82.955L103.685 81.762ZM104.64 84.308C104.64 84.308 105.594 84.706 106.151 84.626L104.64 84.308Z"
      stroke="#DB836E"
      strokeWidth="1.118"
      strokeLinecap="round"
      strokeLinejoin="round"
    />
    <path
      d="M69 82.654C69 82.654 68.274 91.936 60.796 96.86M81.45 89.384C81.45 89.384 81.9 95.031 76.515 102.171L81.45 89.384Z"
      stroke="#E4EBF7"
      strokeWidth="1.101"
      strokeLinecap="round"
      strokeLinejoin="round"
    />
    <path
      d="M129.405 122.865C129.405 122.865 124.133 130.268 119.983 133.633"
      stroke="#E4EBF7"
      strokeWidth="1.051"
      strokeLinecap="round"
      strokeLinejoin="round"
    />
    <path
      d="M119.306 107.329C119.306 107.329 119.758 111.695 117.179 139.391"
      stroke="#E4EBF7"
      strokeWidth="1.101"
      strokeLinecap="round"
      strokeLinejoin="round"
    />
    <path
      fillRule="evenodd"
      clipRule="evenodd"
      d="M150.028 151.232H100.191C99.9231 151.232 99.6662 151.126 99.4768 150.936C99.2874 150.747 99.181 150.49 99.181 150.222V118.534C99.181 117.977 99.633 117.524 100.191 117.524H150.028C150.586 117.524 151.038 117.977 151.038 118.534V150.222C151.038 150.49 150.932 150.747 150.742 150.936C150.553 151.126 150.296 151.232 150.028 151.232Z"
      fill="#F2D7AD"
    />
    <path
      fillRule="evenodd"
      clipRule="evenodd"
      d="M150.29 151.232H130.427V117.525H151.211V150.311C151.211 150.555 151.114 150.789 150.942 150.962C150.769 151.134 150.535 151.231 150.291 151.231"
      fill="#F4D19D"
    />
    <path
      fillRule="evenodd"
      clipRule="evenodd"
      d="M123.554 127.896H92.917C92.822 127.896 92.7288 127.87 92.6476 127.821C92.5663 127.772 92.5001 127.702 92.4563 127.617C92.4124 127.533 92.3925 127.438 92.3988 127.344C92.4051 127.249 92.4374 127.158 92.492 127.08L98.872 117.967C99.065 117.69 99.382 117.525 99.722 117.525H130.814L123.554 127.896Z"
      fill="#F2D7AD"
    />
    <path
      fillRule="evenodd"
      clipRule="evenodd"
      d="M123.689 128.447H99.25V127.928H123.419L130.602 117.668L131.026 117.966L123.689 128.447Z"
      fill="#CC9B6E"
    />
    <path
      fillRule="evenodd"
      clipRule="evenodd"
      d="M158.298 127.896H139.629C139.307 127.896 138.989 127.821 138.701 127.677C138.414 127.533 138.163 127.324 137.97 127.066L130.814 117.525H150.779C151.269 117.525 151.729 117.755 152.023 118.147L158.713 127.067C158.771 127.144 158.806 127.236 158.814 127.332C158.823 127.428 158.805 127.524 158.762 127.61C158.719 127.696 158.652 127.769 158.571 127.819C158.489 127.87 158.394 127.897 158.298 127.897"
      fill="#F4D19D"
    />
    <path
      fillRule="evenodd"
      clipRule="evenodd"
      d="M157.847 128.479H138.463L130.606 118.004L131.021 117.694L138.721 127.96H157.847V128.479ZM130.554 150.685L130.522 142.508L131.041 142.506L131.073 150.683L130.554 150.685Z"
      fill="#CC9B6E"
    />
    <path
      fillRule="evenodd"
      clipRule="evenodd"
      d="M130.511 139.783L130.431 118.369L130.95 118.367L131.03 139.781L130.511 139.783ZM111.876 140.932L111.378 140.789L112.857 135.622L113.355 135.765L111.876 140.932ZM108.437 141.06L105.758 138.125L108.423 134.691L108.833 135.009L106.436 138.098L108.82 140.71L108.437 141.06ZM116.607 141.06L116.224 140.71L118.607 138.098L116.21 135.009L116.62 134.691L119.285 138.125L116.607 141.06Z"
      fill="#CC9B6E"
    />
    <path
      fillRule="evenodd"
      clipRule="evenodd"
      d="M154.316 131.892L151.202 129.932L151.24 133.446L150.197 133.538C148.515 133.653 146.563 133.768 145.408 133.768C143.506 133.768 142.715 136.026 147.638 136.416L144.993 135.82C144.993 135.82 142.825 137.137 145.497 138.12C145.497 138.12 143.917 139.337 146.058 140.7C145.474 144.204 151.305 144.758 153.18 144.29C155.056 143.82 157.413 141.931 157.667 139.13C157.947 136.045 156.777 133.698 154.317 131.892"
      fill="#FFC6A0"
    />
    <path
      d="M153.686 133.577C153.686 133.577 147.164 134.047 145.326 133.949C143.49 133.851 143.422 136.139 147.685 136.213C151.424 136.363 153.136 136.169 153.136 136.169"
      stroke="#DB836E"
      strokeWidth="1.051"
      strokeLinecap="round"
      strokeLinejoin="round"
    />
    <path
      d="M145.16 135.877C143.31 137.223 145.721 138.232 145.721 138.232C145.721 138.232 149.199 139.13 152.451 138.849"
      stroke="#DB836E"
      strokeWidth="1.051"
      strokeLinecap="round"
      strokeLinejoin="round"
    />
    <path
      d="M52.838 89.286C56.371 88.949 61.261 88.038 66.42 81.532M151.89 141.71C151.89 141.71 145.61 141.821 145.16 139.578C144.937 138.232 145.61 138.176 145.61 138.176L151.89 141.71ZM146.114 140.868C146.114 140.868 145.011 144.028 151.554 144.401L146.114 140.868ZM151.202 129.932V133.409V129.932Z"
      stroke="#DB836E"
      strokeWidth="1.051"
      strokeLinecap="round"
      strokeLinejoin="round"
    />
    <path
      fillRule="evenodd"
      clipRule="evenodd"
      d="M168.567 248.318C166.804 248.318 165.113 247.618 163.867 246.371C162.62 245.125 161.92 243.434 161.92 241.671V175.205C161.92 174.332 162.092 173.468 162.426 172.661C162.76 171.855 163.25 171.122 163.867 170.505C164.484 169.888 165.217 169.398 166.023 169.064C166.83 168.73 167.694 168.558 168.567 168.558C169.44 168.558 170.304 168.73 171.111 169.064C171.917 169.398 172.65 169.888 173.267 170.505C173.884 171.122 174.374 171.855 174.708 172.661C175.042 173.468 175.214 174.332 175.214 175.205V241.671C175.214 243.434 174.514 245.125 173.267 246.371C172.021 247.618 170.33 248.318 168.567 248.318Z"
      fill="#5BA02E"
    />
    <path
      fillRule="evenodd"
      clipRule="evenodd"
      d="M176.543 247.653C174.78 247.653 173.09 246.952 171.844 245.706C170.597 244.459 169.897 242.769 169.897 241.006V207.774C169.886 206.894 170.05 206.021 170.379 205.205C170.709 204.39 171.196 203.647 171.815 203.021C172.433 202.395 173.169 201.898 173.981 201.559C174.793 201.22 175.664 201.045 176.543 201.045C177.423 201.045 178.294 201.22 179.106 201.559C179.918 201.898 180.654 202.395 181.272 203.021C181.891 203.647 182.378 204.39 182.708 205.205C183.037 206.021 183.201 206.894 183.19 207.774V241.006C183.19 242.769 182.49 244.46 181.243 245.706C179.997 246.953 178.306 247.653 176.543 247.653Z"
      fill="#92C110"
    />
    <path
      fillRule="evenodd"
      clipRule="evenodd"
      d="M186.443 293.613H158.92C158.075 293.613 157.264 293.277 156.666 292.68C156.069 292.082 155.733 291.271 155.733 290.426V244.292C155.733 243.447 156.069 242.636 156.666 242.038C157.264 241.441 158.075 241.105 158.92 241.105H186.444C187.289 241.105 188.1 241.441 188.698 242.038C189.295 242.636 189.631 243.447 189.631 244.292V290.426C189.631 291.271 189.295 292.082 188.698 292.68C188.1 293.277 187.289 293.613 186.444 293.613"
      fill="#F2D7AD"
    />
    <path
      d="M88.979 89.48C88.979 89.48 96.755 94.864 105.579 92.322"
      stroke="#E4EBF7"
      strokeWidth="1.101"
      strokeLinecap="round"
      strokeLinejoin="round"
    />
  </svg>