<svg xmlns="http://www.w3.org/2000/svg">
    <path
      fillRule="evenodd"
      clipRule="evenodd"
      d="M0 8C0 3.58125 3.58125 0 8 0C12.4188 0 16 3.58125 16 8C16 12.4188 12.4188 16 8 16C3.58125 16 0 12.4188 0 8ZM10.675 14.3344C11.4938 13.9891 12.2297 13.4922 12.8609 12.8609C13.4938 12.2297 13.9891 11.4938 14.3359 10.675C14.6938 9.82812 14.875 8.92813 14.875 8C14.875 7.07188 14.6938 6.17188 14.3344 5.32344C13.9891 4.50469 13.4922 3.76875 12.8609 3.1375C12.2281 2.50625 11.4938 2.01094 10.675 1.66406C9.82812 1.30625 8.92813 1.125 8 1.125C7.07188 1.125 6.17188 1.30625 5.32344 1.66562C4.50469 2.01094 3.76875 2.50781 3.1375 3.13906C2.50625 3.77188 2.01094 4.50625 1.66406 5.325C1.30625 6.17188 1.125 7.07188 1.125 8C1.125 8.92813 1.30625 9.82812 1.66562 10.6766C2.01094 11.4953 2.50781 12.2313 3.13906 12.8625C3.77188 13.4938 4.50625 13.9891 5.325 14.3359C6.17188 14.6938 7.07188 14.875 8 14.875C8.92813 14.875 9.82812 14.6938 10.675 14.3344ZM7.91875 10.3734C7.9 10.3734 7.88125 10.3719 7.8625 10.3703C7.55313 10.3406 7.32812 10.0641 7.35781 9.75469C7.43438 8.975 8.00625 8.34531 8.63594 7.71562C9.64375 6.70781 9.66094 6.3875 9.67813 6.04844C9.69844 5.65313 9.55312 5.27031 9.26562 4.96875C8.93906 4.625 8.47656 4.42812 7.99688 4.42812H7.99375C7.07031 4.42969 6.31719 5.18281 6.31719 6.10781C6.31719 6.41875 6.06563 6.67031 5.75469 6.67031C5.44375 6.67031 5.19219 6.41875 5.19219 6.10781C5.19219 5.35938 5.48281 4.65625 6.01094 4.12656C6.53906 3.59687 7.24219 3.30469 7.99062 3.30313C8.77969 3.30156 9.54219 3.62656 10.0813 4.19375C10.5828 4.72188 10.8391 5.40156 10.8016 6.10781C10.7625 6.83125 10.5406 7.40156 9.43125 8.51094C8.86875 9.07344 8.51406 9.49531 8.47813 9.86563C8.45 10.1562 8.20469 10.3734 7.91875 10.3734ZM7.56016 12.6047C7.35083 12.4838 7.22187 12.2605 7.22187 12.0187C7.22187 11.6451 7.52478 11.3422 7.89844 11.3422C8.27209 11.3422 8.575 11.6451 8.575 12.0187C8.575 12.2605 8.44605 12.4838 8.23672 12.6047C8.02739 12.7255 7.76949 12.7255 7.56016 12.6047Z"
    />
  </svg>