<svg width="18" height="18" viewBox="0 0 18 18" fill="none"
  xmlns="http://www.w3.org/2000/svg">
  <path d="M15.1875 14.611H9.16176L11.6086 12.1711L15.5883 8.19145C15.9022 7.8742 16.0783 7.44593 16.0783 6.99965C16.0783 6.55337 15.9022 6.1251 15.5883 5.80785L12.4032 2.6227C12.0868 2.30711 11.6582 2.12988 11.2114 2.12988C10.7645 2.12988 10.3359 2.30711 10.0196 2.6227L6.03988 6.60238L2.0602 10.5821C1.74461 10.8984 1.56738 11.327 1.56738 11.7739C1.56738 12.2207 1.74461 12.6493 2.0602 12.9657L4.66879 15.5743C4.77595 15.6787 4.91992 15.7368 5.06957 15.736H15.1875C15.3367 15.736 15.4798 15.6767 15.5853 15.5712C15.6908 15.4657 15.75 15.3227 15.75 15.1735C15.75 15.0243 15.6908 14.8812 15.5853 14.7757C15.4798 14.6702 15.3367 14.611 15.1875 14.611ZM10.8141 3.41723C10.9204 3.31372 11.063 3.2558 11.2114 3.2558C11.3598 3.2558 11.5023 3.31372 11.6086 3.41723L14.7868 6.60238C14.8397 6.65412 14.8818 6.71591 14.9105 6.78413C14.9392 6.85236 14.954 6.92563 14.954 6.99965C14.954 7.07367 14.9392 7.14694 14.9105 7.21516C14.8818 7.28339 14.8397 7.34518 14.7868 7.39691L11.2079 10.9758L7.2352 6.99613L10.8141 3.41723Z" fill="currentColor"/>
</svg>
