<svg width="20" height="20" viewBox="0 0 20 20" fill="currentColor" xmlns="http://www.w3.org/2000/svg">
  <path d="M10.0096 7.62906C9.42561 7.62906 8.87873 7.85562 8.46467 8.26968C8.05256 8.68375 7.82404 9.23062 7.82404 9.81461C7.82404 10.3986 8.05256 10.9455 8.46467 11.3595C8.87873 11.7716 9.42561 12.0002 10.0096 12.0002C10.5936 12.0002 11.1405 11.7716 11.5545 11.3595C11.9666 10.9455 12.1951 10.3986 12.1951 9.81461C12.1951 9.23062 11.9666 8.68375 11.5545 8.26968C11.3523 8.06589 11.1116 7.90431 10.8463 7.79434C10.5811 7.68436 10.2967 7.62818 10.0096 7.62906ZM18.0623 12.2287L16.785 11.1369C16.8455 10.7658 16.8768 10.3869 16.8768 10.0099C16.8768 9.63297 16.8455 9.25211 16.785 8.88297L18.0623 7.79117C18.1588 7.70856 18.2279 7.59854 18.2603 7.47574C18.2928 7.35293 18.2871 7.22316 18.244 7.10367L18.2264 7.05289C17.8748 6.06986 17.3481 5.15866 16.6717 4.36343L16.6365 4.32242C16.5544 4.22584 16.4449 4.15642 16.3226 4.12329C16.2002 4.09017 16.0706 4.0949 15.951 4.13687L14.3651 4.70132C13.7791 4.22086 13.1268 3.84195 12.4197 3.57828L12.1131 1.92007C12.09 1.79516 12.0294 1.68024 11.9394 1.59058C11.8494 1.50092 11.7342 1.44077 11.6092 1.41812L11.5565 1.40836C10.5408 1.22476 9.47053 1.22476 8.4549 1.40836L8.40217 1.41812C8.27716 1.44077 8.16201 1.50092 8.072 1.59058C7.98199 1.68024 7.9214 1.79516 7.89826 1.92007L7.58967 3.58609C6.88933 3.85186 6.23693 4.22985 5.65803 4.70523L4.06037 4.13687C3.94077 4.09457 3.81114 4.08967 3.68868 4.12281C3.56623 4.15595 3.45676 4.22557 3.37483 4.32242L3.33967 4.36343C2.66446 5.15951 2.13786 6.07048 1.78498 7.05289L1.7674 7.10367C1.67951 7.34781 1.75178 7.62125 1.94905 7.79117L3.24201 8.89468C3.18147 9.26187 3.15217 9.63687 3.15217 10.008C3.15217 10.383 3.18147 10.758 3.24201 11.1212L1.95295 12.2248C1.85646 12.3074 1.7874 12.4174 1.75495 12.5402C1.72251 12.663 1.72821 12.7928 1.77131 12.9123L1.78889 12.963C2.1424 13.9455 2.66389 14.8537 3.34358 15.6525L3.37873 15.6935C3.46087 15.7901 3.57034 15.8595 3.69272 15.8926C3.8151 15.9258 3.94464 15.921 4.06428 15.8791L5.66194 15.3107C6.24397 15.7892 6.8924 16.1681 7.59358 16.4298L7.90217 18.0959C7.9253 18.2208 7.9859 18.3357 8.07591 18.4254C8.16591 18.515 8.28107 18.5752 8.40608 18.5978L8.45881 18.6076C9.48443 18.7922 10.5348 18.7922 11.5604 18.6076L11.6131 18.5978C11.7381 18.5752 11.8533 18.515 11.9433 18.4254C12.0333 18.3357 12.0939 18.2208 12.117 18.0959L12.4237 16.4377C13.1307 16.172 13.783 15.7951 14.369 15.3146L15.9549 15.8791C16.0745 15.9214 16.2041 15.9263 16.3266 15.8931C16.449 15.86 16.5585 15.7904 16.6405 15.6935L16.6756 15.6525C17.3553 14.8498 17.8768 13.9455 18.2303 12.963L18.2479 12.9123C18.3319 12.6701 18.2596 12.3986 18.0623 12.2287ZM10.0096 13.2482C8.11311 13.2482 6.576 11.7111 6.576 9.81461C6.576 7.91812 8.11311 6.38101 10.0096 6.38101C11.9061 6.38101 13.4432 7.91812 13.4432 9.81461C13.4432 11.7111 11.9061 13.2482 10.0096 13.2482Z"/>
</svg>