<svg width="24" height="24" viewBox="0 0 24 24" fill="currentColor" xmlns="http://www.w3.org/2000/svg">
<path d="M16.7471 16.3466C17.0766 16.6761 17.6109 16.6761 17.9404 16.3466C18.2699 16.0171 18.2699 15.4829 17.9404 15.1534L14.787 12L17.9404 8.84662C18.2699 8.51712 18.2699 7.98288 17.9404 7.65338C17.6109 7.32387 17.0766 7.32387 16.7471 7.65338L13.0137 11.3868C12.675 11.7255 12.675 12.2745 13.0137 12.6132L16.7471 16.3466Z" fill="currentColor"/>
<path fill-rule="evenodd" clip-rule="evenodd" d="M3.1875 1.5C2.25552 1.5 1.5 2.25552 1.5 3.1875V20.8125C1.5 21.7445 2.25552 22.5 3.1875 22.5H20.8125C21.7445 22.5 22.5 21.7445 22.5 20.8125V3.1875C22.5 2.25552 21.7445 1.5 20.8125 1.5H3.1875ZM20.8125 3.1875H10.6875V20.8125H20.8125V3.1875ZM3.1875 3.1875H9V20.8125H3.1875L3.1875 3.1875Z" fill="currentColor"/>
</svg>