<svg width="16" height="16" viewBox="0 0 16 16" fill="currentColor"
  xmlns="http://www.w3.org/2000/svg">
  <path fill-rule="evenodd" clip-rule="evenodd" d="M10.6 6C10.6 7.43594 9.43592 8.6 7.99998 8.6C6.56404 8.6 5.39998 7.43594 5.39998 6C5.39998 4.56406 6.56404 3.4 7.99998 3.4C9.43592 3.4 10.6 4.56406 10.6 6ZM10.2732 9.29172C11.3165 8.56985 12 7.36474 12 6C12 3.79086 10.2091 2 7.99998 2C5.79084 2 3.99998 3.79086 3.99998 6C3.99998 7.36483 4.68354 8.57001 5.72698 9.29186C4.99429 9.48315 4.28571 9.7669 3.6189 10.1385C2.69003 10.6562 1.86358 11.3325 1.17518 12.1334C1.04033 12.2903 0.9109 12.4519 0.787183 12.6177C0.527919 12.9651 0.644799 13.4513 1.01365 13.6791C1.38219 13.9067 1.86231 13.7895 2.1277 13.4472C2.73953 12.658 3.50591 11.998 4.38285 11.5093C5.48904 10.8927 6.73443 10.5692 8.00082 10.5692C9.26721 10.5693 10.5126 10.893 11.6187 11.5097C12.4953 11.9984 13.2615 12.6583 13.8731 13.4473C14.1383 13.7893 14.6178 13.9066 14.9863 13.6797C15.3558 13.4521 15.4731 12.9655 15.2136 12.6177C15.09 12.452 14.9608 12.2907 14.8263 12.1342C14.138 11.3333 13.3116 10.6569 12.3828 10.1391C11.7155 9.76706 11.0064 9.48309 10.2732 9.29172Z"/>
</svg>
